<svg width="40" height="40" viewBox="0 0 40 40" fill="none" xmlns="http://www.w3.org/2000/svg">
<path d="M35.2762 27.5233C34.026 26.7729 31.4255 25.2103 31.4255 21.1456C31.4255 17.715 33.7214 15.9838 34.9545 15.0537L34.9803 15.0342C35.4754 14.6609 35.5933 13.9659 35.2497 13.4497C32.4946 9.31318 27.7631 9.19371 26.8431 9.21089H26.8377C26.2067 9.21167 25.6046 9.28429 25.0338 9.39909C25.2446 9.23041 25.4492 9.0508 25.646 8.86026C27.617 6.95326 28.7002 4.13963 28.6166 1.13857C28.5986 0.505252 28.0801 0 27.446 0C25.3141 0 22.8902 1.27367 21.1198 3.32435C19.3362 5.39065 18.503 7.86615 18.8349 10.1152C18.8622 10.3018 18.934 10.4721 19.0371 10.6181C18.7248 10.5135 18.3944 10.3916 18.068 10.2714C16.8279 9.81453 15.4215 9.29679 14.1049 9.29679C14.0783 9.29679 11.4013 9.31631 8.72828 10.9765C6.39022 12.4298 3.60236 15.4543 3.60236 21.6149C3.60236 24.819 4.85416 29.3046 6.79161 33.0436C8.1301 35.6269 10.9078 39.9625 14.475 39.9828H14.5133C17.1145 39.9828 19.2698 38.4468 20.7356 38.4468C23.2392 38.4468 24.1302 40 26.8377 40C29.2648 40 31.6169 38.1563 33.8292 34.5211C34.6414 33.1857 35.2731 31.8652 35.6597 30.9922C36.3976 29.3288 36.3976 29.107 36.3976 28.9446C36.3976 28.1973 35.8276 27.8544 35.2762 27.5233ZM22.8933 4.85494C23.8546 3.74136 25.0658 2.91515 26.2129 2.55047C25.9935 4.36922 25.2251 6.00836 24.017 7.1766C23.1705 7.99578 22.1545 8.52837 21.1229 8.71188C21.2323 7.42493 21.8476 6.06614 22.8933 4.85494ZM31.7145 33.4872C30.0425 36.1766 28.3105 37.6573 26.8377 37.6573C24.8112 37.6573 23.864 36.104 20.7356 36.104C18.6248 36.104 16.6108 37.651 14.4883 37.6401C12.8328 37.6307 10.6806 35.4566 8.87196 31.966C7.09382 28.5354 5.9451 24.4723 5.9451 21.6149C5.9451 17.5698 7.275 14.6749 9.89574 13.01C11.9363 11.7145 14.0237 11.6419 14.1119 11.6395C15.9408 11.6442 18.4796 13.2631 20.3295 13.2631C21.9952 13.2631 24.2255 11.5536 26.8463 11.5536H26.8892C27.5249 11.5411 30.5259 11.6122 32.6344 13.9003C31.1444 15.1552 29.0828 17.412 29.0828 21.1456C29.0828 26.2169 32.29 28.4432 33.805 29.3718C33.4278 30.2854 32.7086 31.8886 31.7145 33.4872Z" fill="#2F2F2F"/>
</svg>
