<svg width="40" height="40" viewBox="0 0 40 40" fill="none" xmlns="http://www.w3.org/2000/svg">
<path d="M11.1497 22.9027L3.80594 14.4963L11.1497 6.08986C11.7431 5.40978 11.6739 4.37705 10.9938 3.78306C10.3137 3.18962 9.28156 3.25939 8.68703 3.93892L0.403828 13.421C-0.134609 14.0368 -0.134609 14.9562 0.403828 15.572L8.68711 25.0542C9.01078 25.4236 9.46367 25.6133 9.91922 25.6133C10.3007 25.6133 10.6837 25.4803 10.9938 25.2095C11.674 24.6155 11.7437 23.5827 11.1497 22.9027Z" fill="black"/>
<path d="M28.1195 12.8604H1.63484C0.731875 12.8604 0 13.5921 0 14.4952C0 15.3982 0.731875 16.13 1.63484 16.13H28.1195C32.8677 16.13 36.7303 19.9926 36.7303 24.7403C36.7303 29.4879 32.8677 33.3505 28.1195 33.3505H3.81469C2.91172 33.3505 2.17984 34.0824 2.17984 34.9854C2.17984 35.8883 2.91172 36.6202 3.81469 36.6202H28.1195C34.6698 36.6202 40 31.2906 40 24.7403C40 18.19 34.6704 12.8604 28.1195 12.8604Z" fill="black"/>
</svg>
