<svg width="80" height="80" viewBox="0 0 80 80" fill="none" xmlns="http://www.w3.org/2000/svg">
<g clip-path="url(#clip0)">
<path d="M72.5027 27.3587C72.3767 26.3379 72.4317 25.3029 72.6653 24.3013C73.108 22.644 73.0284 20.8904 72.4373 19.28C71.5104 17.8009 70.1559 16.6385 68.5533 15.9467C67.6264 15.5123 66.7815 14.9209 66.056 14.1987C65.5002 13.3447 65.099 12.3996 64.8707 11.4067C64.534 9.70892 63.6858 8.15488 62.44 6.95333C60.9742 6.02128 59.2599 5.55632 57.524 5.61999C56.4788 5.6191 55.4415 5.4387 54.4573 5.08666C53.5932 4.55908 52.8264 3.88658 52.1907 3.09866C51.1301 1.70287 49.6713 0.661496 48.0067 0.111992C46.3039 -0.0945737 44.5784 0.217716 43.056 1.00799C42.094 1.46513 41.06 1.75204 40 1.85599C38.9404 1.75202 37.9069 1.46511 36.9453 1.00799C35.4242 0.219651 33.701 -0.0925594 32 0.111992C30.3343 0.663663 28.875 1.70734 27.8147 3.10533C27.1796 3.89432 26.4127 4.56738 25.548 5.09466C24.5639 5.44681 23.5266 5.62721 22.4813 5.62799C20.745 5.56438 19.0303 6.02933 17.564 6.96133C16.3179 8.16191 15.47 9.71578 15.1347 11.4133C14.9057 12.4059 14.504 13.3505 13.948 14.204C13.2217 14.925 12.3758 15.5146 11.448 15.9467C9.84518 16.6386 8.49028 17.801 7.56267 19.28C6.97269 20.8901 6.89262 22.6428 7.33333 24.3C7.56761 25.3015 7.62268 26.3366 7.496 27.3573C7.16622 28.2946 6.67628 29.1676 6.048 29.9373C4.89318 31.2644 4.17773 32.9165 4 34.6667C4.17837 36.4165 4.89428 38.0682 6.04933 39.3947C6.67735 40.1646 7.16726 41.0375 7.49733 41.9747C7.62287 42.9955 7.56736 44.0304 7.33333 45.032C6.89061 46.6893 6.97023 48.4429 7.56133 50.0533C8.48828 51.5324 9.84278 52.6948 11.4453 53.3867C12.3723 53.821 13.2172 54.4124 13.9427 55.1347C14.4985 55.9886 14.8997 56.9337 15.128 57.9267C15.4647 59.6244 16.3129 61.1784 17.5587 62.38C18.2883 62.9277 19.138 63.2934 20.0373 63.4467C17.8012 67.2945 16.0161 71.3873 14.7173 75.644C14.5819 76.1193 14.7205 76.6305 15.0774 76.9723C15.4343 77.3141 15.951 77.4305 16.42 77.2747L23.7333 74.828L29.8333 79.708C30.2028 80.0034 30.7011 80.081 31.1429 79.9118C31.5847 79.7426 31.9037 79.352 31.9813 78.8853C32.663 75.3165 33.9543 71.8917 35.7987 68.7613C36.184 68.628 36.5653 68.4747 36.944 68.3253C37.906 67.8682 38.94 67.5813 40 67.4773C41.0596 67.5813 42.0931 67.8682 43.0547 68.3253C43.432 68.4747 43.8147 68.62 44.2 68.7573C46.0458 71.8905 47.3376 75.3185 48.0187 78.8907C48.096 79.3571 48.4146 79.7478 48.856 79.9173C49.2981 80.0869 49.797 80.0092 50.1667 79.7133L56.2667 74.8333L63.5787 77.2707C64.0476 77.4265 64.5643 77.3101 64.9212 76.9683C65.2782 76.6265 65.4167 76.1153 65.2813 75.64C63.9823 71.3834 62.1972 67.2907 59.9613 63.4427C60.8604 63.29 61.7099 62.9242 62.4387 62.376C63.6847 61.1754 64.5326 59.6215 64.868 57.924C65.097 56.9314 65.4986 55.9868 66.0547 55.1333C66.7795 54.4104 67.6246 53.8189 68.552 53.3853C70.1548 52.6934 71.5097 51.531 72.4373 50.052C73.0271 48.4413 73.1067 46.6881 72.6653 45.0307C72.4311 44.0291 72.376 42.994 72.5027 41.9733C72.8324 41.036 73.3224 40.1631 73.9507 39.3933C75.1055 38.0672 75.8214 36.416 76 34.6667C75.8216 32.9168 75.1057 31.2652 73.9507 29.9387C73.3226 29.1687 72.8327 28.2958 72.5027 27.3587ZM29.8093 76.2747L24.8333 72.292C24.4794 72.0112 24.0079 71.927 23.5787 72.068L18.112 73.892C19.378 70.3499 21.0113 66.95 22.9853 63.748C23.861 63.7631 24.7274 63.9291 25.5467 64.2387C26.4108 64.7662 27.1776 65.4387 27.8133 66.2267C28.8734 67.6258 30.3334 68.6701 32 69.2213C32.1626 69.2547 32.3268 69.2796 32.492 69.296C31.3492 71.5189 30.4498 73.8587 29.8093 76.2747ZM56.4213 72.068C55.992 71.9273 55.5207 72.0114 55.1667 72.292L50.1907 76.2747C49.5507 73.8511 48.6499 71.504 47.504 69.2747C47.672 69.2668 47.8394 69.249 48.0053 69.2213C49.671 68.6697 51.1303 67.626 52.1907 66.228C52.8257 65.439 53.5926 64.7659 54.4573 64.2387C55.277 63.9291 56.1439 63.7635 57.02 63.7493C58.9939 66.9509 60.6273 70.3503 61.8933 73.892L56.4213 72.068ZM71.772 37.8667C70.9295 38.9073 70.2957 40.1006 69.9053 41.3813C69.6842 42.7363 69.7268 44.1212 70.0307 45.46C70.3469 46.5798 70.3511 47.7647 70.0427 48.8867C69.3271 49.8512 68.363 50.6033 67.2533 51.0627C66.022 51.6495 64.9128 52.4638 63.984 53.4627C63.1975 54.5753 62.6321 55.8287 62.3187 57.1547C62.1053 58.3195 61.5768 59.4037 60.7907 60.2893C59.7296 60.8491 58.5384 61.1156 57.34 61.0613C55.9614 61.0679 54.5962 61.332 53.3147 61.84C52.1339 62.499 51.0888 63.3758 50.2347 64.424C49.5162 65.4012 48.5443 66.1633 47.424 66.628C46.2445 66.6721 45.0742 66.405 44.0307 65.8533C42.7643 65.2564 41.397 64.9027 40 64.8107C38.6032 64.8998 37.2355 65.2503 35.968 65.844C34.9254 66.3981 33.7544 66.6655 32.5747 66.6187C31.4543 66.1534 30.4824 65.3908 29.764 64.4133C28.9094 63.3655 27.8644 62.4888 26.684 61.8293C25.402 61.3212 24.0363 61.0571 22.6573 61.0507C21.4591 61.1045 20.2681 60.8385 19.2067 60.28C18.4215 59.3933 17.8936 58.3089 17.68 57.144C17.3665 55.8176 16.8012 54.5638 16.0147 53.4507C15.0859 52.4517 13.9767 51.6374 12.7453 51.0507C11.6365 50.5905 10.673 49.8386 9.95733 48.8747C9.64935 47.7527 9.65304 46.568 9.968 45.448C10.2721 44.1097 10.3151 42.7253 10.0947 41.3707C9.7043 40.0895 9.0705 38.8957 8.228 37.8547C7.4233 36.9565 6.88291 35.8531 6.66667 34.6667C6.88238 33.4785 7.42278 32.3732 8.228 31.4733C9.07047 30.4327 9.70427 29.2394 10.0947 27.9587C10.3158 26.6037 10.2732 25.2188 9.96933 23.88C9.65306 22.7602 9.64891 21.5753 9.95733 20.4533C10.6729 19.4888 11.637 18.7367 12.7467 18.2773C13.978 17.6905 15.0872 16.8762 16.016 15.8773C16.8025 14.7647 17.3679 13.5113 17.6813 12.1853C17.8952 11.0214 18.4236 9.93825 19.2093 9.05333C20.2723 8.49238 21.466 8.22585 22.6667 8.28133C24.0452 8.27475 25.4104 8.01067 26.692 7.50266C27.8727 6.8437 28.9178 5.96689 29.772 4.91866C30.4904 3.9415 31.4624 3.17936 32.5827 2.71466C33.7623 2.66867 34.9331 2.93596 35.976 3.48933C37.241 4.08222 38.6059 4.43272 40 4.52266C41.3968 4.43355 42.7645 4.08303 44.032 3.48933C45.0748 2.93596 46.2457 2.66867 47.4253 2.71466C48.5457 3.1799 49.5176 3.94248 50.236 4.91999C51.0906 5.96781 52.1356 6.84455 53.316 7.50399C54.598 8.01216 55.9636 8.27625 57.3427 8.28266C58.5431 8.22761 59.7366 8.49364 60.8 9.05333C61.5828 9.94074 62.1084 11.0251 62.32 12.1893C62.6335 13.5157 63.1988 14.7696 63.9853 15.8827C64.914 16.8816 66.0233 17.6959 67.2547 18.2827C68.3635 18.7428 69.327 19.4948 70.0427 20.4587C70.3506 21.5806 70.3469 22.7653 70.032 23.8853C69.7279 25.2236 69.6848 26.6081 69.9053 27.9627C70.2957 29.2438 70.9295 30.4376 71.772 31.4787C72.5767 32.3769 73.1171 33.4803 73.3333 34.6667C73.1188 35.8572 72.5783 36.9649 71.772 37.8667Z" fill="url(#paint0_linear)"/>
<path d="M40 6.66669C24.536 6.66669 12 19.2027 12 34.6667C12 50.1307 24.536 62.6667 40 62.6667C55.464 62.6667 68 50.1307 68 34.6667C67.9831 19.2097 55.457 6.68359 40 6.66669ZM40 60C26.0088 60 14.6667 48.6579 14.6667 34.6667C14.6667 20.6755 26.0088 9.33335 40 9.33335C53.9912 9.33335 65.3333 20.6755 65.3333 34.6667C65.3179 48.6515 53.9848 59.9846 40 60Z" fill="url(#paint1_linear)"/>
<path d="M54.6667 21.3333V18.6667C54.6667 17.1939 53.4728 16 52 16H44C42.4684 15.9992 41.0107 16.6585 40 17.8093C38.9893 16.6585 37.5316 15.9992 36 16H28C26.5272 16 25.3333 17.1939 25.3333 18.6667V21.3333H24C22.9391 21.3333 21.9217 21.7548 21.1716 22.5049C20.4214 23.2551 20 24.2725 20 25.3333V45.3333C20 47.5425 21.7909 49.3333 24 49.3333H56C58.2091 49.3333 60 47.5425 60 45.3333V25.3333C60 23.1242 58.2091 21.3333 56 21.3333H54.6667ZM28 38.6667H36C37.4728 38.6667 38.6667 39.8606 38.6667 41.3333H28V38.6667ZM44 18.6667H52V36H44C43.061 36.0055 42.1405 36.2614 41.3333 36.7413V21.3333C41.3333 19.8606 42.5272 18.6667 44 18.6667ZM52 38.6667V41.3333H41.3333C41.3333 39.8606 42.5272 38.6667 44 38.6667H52ZM28 18.6667H36C37.4728 18.6667 38.6667 19.8606 38.6667 21.3333V36.7413C37.8595 36.2614 36.939 36.0055 36 36H28V18.6667ZM57.3333 25.3333V45.3333C57.3333 46.0697 56.7364 46.6667 56 46.6667H24C23.2636 46.6667 22.6667 46.0697 22.6667 45.3333V25.3333C22.6667 24.597 23.2636 24 24 24H25.3333V41.3333C25.3333 42.8061 26.5272 44 28 44H52C53.4728 44 54.6667 42.8061 54.6667 41.3333V24H56C56.7364 24 57.3333 24.597 57.3333 25.3333Z" fill="url(#paint2_linear)"/>
</g>
<defs>
<linearGradient id="paint0_linear" x1="76" y1="0.0499878" x2="4" y2="0.0499878" gradientUnits="userSpaceOnUse">
<stop stop-color="#FFD600"/>
<stop offset="1" stop-color="#AF9E72"/>
</linearGradient>
<linearGradient id="paint1_linear" x1="68" y1="6.66669" x2="12" y2="6.66669" gradientUnits="userSpaceOnUse">
<stop stop-color="#FFD600"/>
<stop offset="1" stop-color="#AF9E72"/>
</linearGradient>
<linearGradient id="paint2_linear" x1="60" y1="16" x2="20" y2="16" gradientUnits="userSpaceOnUse">
<stop stop-color="#FFD600"/>
<stop offset="1" stop-color="#AF9E72"/>
</linearGradient>
<clipPath id="clip0">
<rect width="80" height="80" fill="white"/>
</clipPath>
</defs>
</svg>
