<svg width="80" height="80" viewBox="0 0 80 80" fill="none" xmlns="http://www.w3.org/2000/svg">
<g clip-path="url(#clip0)">
<path d="M75.8097 32.0191C75.8586 31.9171 75.8958 31.8103 75.9214 31.6998C76.7832 27.9816 75.0309 25.4847 73.5215 24.3018C73.1791 21.5131 70.5503 19.7291 68.3989 18.8678C68.1797 16.2409 67.1824 14.1077 65.4252 12.5153C62.5493 9.90974 58.4288 9.55818 56.414 9.55818C56.3933 9.55818 56.3731 9.55818 56.3524 9.55818C54.3895 6.20309 49.8979 6.04806 47.2789 6.53451C45.7427 6.00961 44.1936 5.59213 42.6696 5.29122C41.8206 5.12399 40.9948 5.67574 40.8269 6.52596C40.6591 7.37557 41.212 8.20076 42.0623 8.36861C43.5753 8.66768 45.1195 9.09431 46.6497 9.63692C46.9335 9.73823 47.2399 9.75471 47.5328 9.68574C47.5853 9.67354 52.7617 8.49678 53.8969 11.692C54.138 12.3688 54.8106 12.7949 55.526 12.7277C55.5754 12.7228 60.5156 12.2889 63.3281 14.8487C64.3174 15.7496 64.9284 16.9117 65.178 18.3747C63.062 18.476 59.7612 19.2194 58.043 22.6215C57.6524 23.3948 57.9619 24.3378 58.7352 24.729C58.9622 24.8432 59.2039 24.8975 59.4414 24.8975C60.0145 24.8975 60.5668 24.5826 60.8427 24.0363C62.2893 21.1737 65.8836 21.4612 66.5361 21.5393C67.1159 21.7298 70.5552 22.956 70.4167 25.058C70.3758 25.6806 70.7078 26.2683 71.2626 26.5546C71.2681 26.557 71.8247 26.8701 72.3075 27.5275C72.9417 28.3905 73.1498 29.4507 72.9289 30.6824L72.8233 30.8228C70.3886 31.0901 66.7271 32.6221 66.2272 37.1509C66.1326 38.0121 66.7533 38.7872 67.6146 38.8824C67.6731 38.8885 67.7311 38.8916 67.7885 38.8916C68.5777 38.8916 69.257 38.2977 69.3455 37.4951C69.6623 34.6253 72.1269 34.0546 73.1895 33.9423C80.0626 38.9838 75.211 50.7409 74.8899 51.4947C73.1883 54.7479 71.0527 56.4123 68.3757 56.5643C67.2282 55.6054 64.2241 53.4735 58.9738 52.2155C58.1309 52.0135 57.2844 52.5329 57.0824 53.3752C56.8809 54.2181 57.3997 55.0647 58.2426 55.2661C62.7287 56.3409 65.2897 58.1066 66.2346 58.8659C66.2223 59.2962 66.1656 59.7216 66.0612 60.1348C64.9455 64.5672 58.9464 66.892 52.6878 65.3161C51.6521 65.0549 50.6487 64.6954 49.7057 64.2468C49.2418 64.0258 48.6992 64.0466 48.253 64.3017C47.8075 64.5562 47.5145 65.014 47.4693 65.5254C47.2899 67.5561 47.3772 69.5122 47.7275 71.3616L43.6089 72.0464C43.4331 71.4226 43.2567 70.6933 43.0657 69.9004C42.1453 66.0888 40.8159 60.5902 36.9072 56.0784C40.161 55.2862 43.2915 54.7631 46.2419 54.5208C47.1056 54.45 47.7483 53.6926 47.6769 52.8296C47.6061 51.9659 46.848 51.3244 45.9856 51.3946C42.0861 51.7144 37.9052 52.4945 33.557 53.7121C29.5708 54.2517 26.7791 54.0356 26.4666 54.0081C19.6673 52.9864 17.7685 48.8781 18.2104 45.6659C18.2812 45.1513 18.0926 44.635 17.7069 44.2871C17.3211 43.9392 16.7889 43.8049 16.2841 43.9282L15.1471 44.2065C13.164 44.1083 8.20738 43.3404 5.97655 40.7428C5.00731 39.6136 4.63622 38.2501 4.84313 36.5741C4.92247 35.9271 4.5941 35.2985 4.01793 34.9951C4.01122 34.9915 3.3435 34.5892 3.17931 33.8806C2.984 33.0365 3.55041 32.0258 4.06005 31.3269C4.36827 30.9039 4.44518 30.3546 4.26513 29.8633C4.25292 29.8303 3.09631 26.4936 4.4171 23.7238C5.15196 22.1827 6.56065 21.0462 8.60471 20.3467C9.19675 20.1441 9.61057 19.6198 9.6594 18.996C9.66123 18.9759 9.86081 16.9867 11.3098 15.9064C12.3108 15.1606 13.7548 14.9695 15.6012 15.3388C16.0199 15.4218 16.4538 15.3321 16.8042 15.0886C17.1545 14.845 17.3907 14.4697 17.4578 14.0479C17.4633 14.0137 18.1658 10.7496 24.2858 10.6336C25.2142 11.9013 27.2625 15.232 25.7427 18.216C25.3497 18.9881 25.6573 19.9329 26.4288 20.326C26.657 20.4419 26.9 20.4969 27.1392 20.4969C27.7105 20.4969 28.2616 20.1838 28.5387 19.6399C29.1039 18.5297 29.3639 17.4164 29.4176 16.3416C30.2642 15.9815 31.5826 15.5945 32.6348 15.9077C33.319 16.1103 33.8451 16.6071 34.2437 17.425C34.5153 17.9828 35.0738 18.3069 35.6554 18.3069C35.8855 18.3069 36.1199 18.2557 36.3414 18.1476C37.1203 17.7686 37.4437 16.8293 37.0641 16.0505C36.281 14.444 35.0585 13.3546 33.5277 12.8998C31.8975 12.4158 30.2386 12.7247 29.0111 13.1385C28.6016 11.7384 27.9577 10.5219 27.3913 9.62654C28.1298 9.30489 29.1271 8.93013 30.3551 8.60726C31.1931 8.38753 31.6942 7.52938 31.4739 6.69198C31.2536 5.85336 30.3954 5.35348 29.558 5.57321C27.0788 6.22445 25.3802 7.07161 24.627 7.49215C18.2739 7.49337 15.8178 10.2686 14.8931 12.0655C12.7038 11.8586 10.86 12.3121 9.39756 13.4186C7.69285 14.7083 6.99461 16.5644 6.71385 17.7106C4.30358 18.7201 2.58056 20.2857 1.58508 22.3731C0.140382 25.4035 0.697021 28.664 1.07849 30.1404C0.119019 31.6889 -0.202635 33.1824 0.123292 34.5886C0.39917 35.7813 1.08093 36.6107 1.65527 37.1246C1.58264 39.2975 2.23327 41.1987 3.59618 42.7862C6.97508 46.7199 13.7097 47.2699 15.0396 47.3407C15.382 51.7151 18.7121 56.0314 26.0485 57.1173C26.0717 57.1209 26.0955 57.124 26.1193 57.1264C26.1846 57.1331 26.997 57.2125 28.3697 57.2125C29.616 57.2125 31.3262 57.1466 33.3581 56.9C37.6854 60.9905 39.0276 66.5417 40.0158 70.6365C40.3759 72.127 40.6865 73.4148 41.0918 74.4072C41.3353 75.0042 41.9146 75.3826 42.5432 75.3826C42.6287 75.3826 42.7147 75.3759 42.8014 75.3612L49.8992 74.1802C50.341 74.1064 50.7304 73.8476 50.9691 73.4685C51.2077 73.0895 51.273 72.6263 51.1479 72.196C50.761 70.8611 50.551 69.4396 50.5199 67.9491C50.9801 68.1029 51.4482 68.2391 51.9212 68.3581C55.684 69.3053 59.5152 69.0997 62.7098 67.7782C66.0655 66.3903 68.336 63.9477 69.1032 60.9008C69.2088 60.4797 69.2826 60.0512 69.3266 59.6185C72.0042 59.2462 75.2274 57.6525 77.6988 52.8924C77.7134 52.8643 77.7268 52.8363 77.7396 52.8076C77.8074 52.6556 79.4059 49.0265 79.8734 44.6008C80.4508 39.1315 79.0495 34.8193 75.8097 32.0191Z" fill="url(#paint0_linear)"/>
<path d="M36.4873 27.4097C36.5038 27.5007 36.9115 29.6625 38.4112 31.7841C38.7688 32.2901 39.2071 32.8187 39.7368 33.3253C39.4549 34.9366 36.9903 35.8185 36.9323 35.8387C36.1144 36.1176 35.6762 37.0057 35.952 37.8248C36.173 38.4797 36.7833 38.8929 37.4383 38.8929C37.6049 38.8929 37.7739 38.866 37.94 38.8099C39.3902 38.321 41.4971 37.1033 42.4291 35.1465C43.6486 35.6971 45.1189 36.0535 46.8847 36.0535C46.997 36.0535 47.1111 36.0517 47.2259 36.0493C48.0919 36.0267 48.7761 35.3071 48.7536 34.441C48.7322 33.5883 48.0346 32.912 47.1862 32.912C47.1728 32.912 47.1593 32.9127 47.1459 32.9127C40.852 33.0707 39.6251 27.1143 39.572 26.8409C39.414 25.9919 38.5985 25.4291 37.7483 25.5854C36.8963 25.7404 36.3317 26.5577 36.4873 27.4097Z" fill="url(#paint1_linear)"/>
<path d="M55.6114 41.1829C58.3348 36.424 57.2594 32.7442 55.8782 30.495C54.4188 28.1201 52.3162 26.8689 52.2276 26.817C51.4824 26.38 50.5284 26.6291 50.0878 27.3712C49.6471 28.114 49.8931 29.0747 50.6334 29.5191C50.6493 29.5282 52.2234 30.4853 53.2585 32.226C54.5653 34.4232 54.4402 36.9123 52.8881 39.6247C52.4578 40.3766 52.719 41.3349 53.4709 41.7652C53.7163 41.9062 53.9842 41.9727 54.2479 41.9727C54.793 41.9727 55.3215 41.6895 55.6114 41.1829Z" fill="url(#paint2_linear)"/>
<path d="M72.2368 44.8493C72.9417 44.3457 73.1053 43.3661 72.6018 42.6612C72.0982 41.9562 71.1186 41.7926 70.4136 42.2962C68.8841 43.3887 67.4925 43.7995 66.2773 43.5163C64.4462 43.0909 63.4062 41.211 63.3818 41.167C62.9789 40.4047 62.036 40.1105 61.27 40.5097C60.5015 40.9107 60.2037 41.8579 60.6047 42.6258C60.6663 42.7436 62.0256 45.2942 64.7398 46.3196C64.254 48.2386 63.9445 51.6248 66.7802 53.996C67.0738 54.2414 67.4302 54.3616 67.7855 54.3616C68.2341 54.3616 68.679 54.17 68.9897 53.7995C69.5451 53.1348 69.4572 52.1454 68.7926 51.5894C67.0616 50.1416 67.548 47.7662 67.8892 46.6907C69.3059 46.5174 70.7609 45.9034 72.2368 44.8493Z" fill="url(#paint3_linear)"/>
<path d="M26.0565 34.7754C25.9478 33.9161 25.1629 33.3088 24.3029 33.4168C23.4436 33.5254 22.835 34.311 22.9443 35.1703C23.2165 37.3169 21.5326 38.8794 20.5352 39.6039C18.0249 38.3613 15.2136 38.8349 15.0738 38.8593C14.2236 39.0095 13.6578 39.8188 13.8043 40.6696C13.9508 41.5204 14.7613 42.0923 15.6128 41.9501C15.6396 41.9452 18.2873 41.521 19.8718 42.8943C20.7763 43.6786 21.214 44.9903 21.1718 46.7927C21.1517 47.6587 21.8377 48.3771 22.7038 48.3973C22.716 48.3979 22.7282 48.3979 22.7411 48.3979C23.5901 48.3979 24.2883 47.7198 24.3084 46.8659C24.3579 44.7565 23.9087 43.0207 22.9718 41.6828C24.5092 40.4065 26.4764 38.0872 26.0565 34.7754Z" fill="url(#paint4_linear)"/>
<path d="M11.3055 26.5522C11.1352 26.9599 10.8764 27.3249 10.5499 27.6569C9.69907 28.5242 8.63095 28.8465 8.59067 28.8587C7.76059 29.0888 7.27048 29.9457 7.49509 30.7788C7.68369 31.4783 8.31723 31.9391 9.00815 31.9391C9.14365 31.9391 9.28098 31.9214 9.41831 31.8842C9.51718 31.8573 11.4874 31.3074 13.009 29.6155C14.0564 30.3931 15.2868 30.799 16.6351 30.799C17.0105 30.799 17.3944 30.7679 17.7862 30.7044C19.5636 30.4181 20.8947 29.5801 21.0406 29.4855C21.7676 29.0143 21.9751 28.0433 21.5039 27.3163C21.0327 26.5894 20.0616 26.3819 19.3341 26.8531C19.3255 26.8586 18.4124 27.4256 17.2876 27.6075C16.1572 27.79 15.2649 27.5324 14.5294 26.8024C14.8846 25.4505 14.8419 23.9441 14.3957 22.3017C14.1693 21.4655 13.3081 20.9717 12.4713 21.1988C11.6351 21.4258 11.1413 22.287 11.3684 23.1232C11.7285 24.4513 11.7187 25.5622 11.3348 26.4838C11.325 26.5064 11.3153 26.529 11.3055 26.5522Z" fill="url(#paint5_linear)"/>
<path d="M48.0144 13.2087C45.3649 11.6371 42.3198 12.4488 42.1917 12.4842C41.3567 12.7143 40.866 13.578 41.0961 14.413C41.3256 15.2479 42.1904 15.738 43.0248 15.5092C43.0431 15.5037 44.923 15.0221 46.4135 15.9065C47.3003 16.4326 47.9125 17.3927 48.2341 18.7593C48.4044 19.4819 49.0484 19.969 49.76 19.969C49.879 19.969 49.9993 19.955 50.1201 19.9269C50.9636 19.7285 51.4867 18.8838 51.2877 18.0409C50.7634 15.8125 49.6624 14.1865 48.0144 13.2087Z" fill="url(#paint6_linear)"/>
<path d="M42.3321 42.7838C41.2145 44.704 39.5995 45.7324 37.5329 45.8404C35.8727 45.9265 34.5043 45.3912 34.4707 45.3772C33.6712 45.05 32.7581 45.4309 32.4279 46.2292C32.0965 47.03 32.4767 47.9474 33.2769 48.2782C33.4612 48.3545 35.053 48.9874 37.1599 48.9874C37.2893 48.9874 37.4212 48.985 37.5548 48.9795C39.7942 48.8946 42.9119 48.0243 45.0439 44.3616C45.4796 43.6133 45.2257 42.6526 44.4768 42.2168C43.7285 41.781 42.7679 42.0349 42.3321 42.7838Z" fill="url(#paint7_linear)"/>
<path d="M53.69 51.9836C53.3196 51.4312 52.6262 51.1663 51.9792 51.3409C51.3536 51.5087 50.8904 52.0574 50.8244 52.7013C50.7579 53.352 51.1247 53.9947 51.7149 54.2724C52.2905 54.5428 52.9924 54.4372 53.4569 54.0002C54.0123 53.4783 54.1124 52.6147 53.69 51.9836Z" fill="url(#paint8_linear)"/>
<path d="M34.7167 6.85253C34.9657 7.45555 35.5889 7.85106 36.2401 7.81993C36.878 7.78881 37.4444 7.36095 37.6494 6.7567C37.8576 6.14574 37.6592 5.45116 37.1605 5.041C36.6338 4.60765 35.8623 4.56859 35.2953 4.94823C34.6819 5.359 34.4341 6.16832 34.7167 6.85253Z" fill="url(#paint9_linear)"/>
</g>
<defs>
<linearGradient id="paint0_linear" x1="80.0002" y1="5.26135" x2="0.000106812" y2="5.26135" gradientUnits="userSpaceOnUse">
<stop stop-color="#FFD600"/>
<stop offset="1" stop-color="#AF9E72"/>
</linearGradient>
<linearGradient id="paint1_linear" x1="48.7541" y1="25.5593" x2="35.8695" y2="25.5593" gradientUnits="userSpaceOnUse">
<stop stop-color="#FFD600"/>
<stop offset="1" stop-color="#AF9E72"/>
</linearGradient>
<linearGradient id="paint2_linear" x1="57.2986" y1="26.6016" x2="49.8688" y2="26.6016" gradientUnits="userSpaceOnUse">
<stop stop-color="#FFD600"/>
<stop offset="1" stop-color="#AF9E72"/>
</linearGradient>
<linearGradient id="paint3_linear" x1="72.894" y1="40.3315" x2="60.4263" y2="40.3315" gradientUnits="userSpaceOnUse">
<stop stop-color="#FFD600"/>
<stop offset="1" stop-color="#AF9E72"/>
</linearGradient>
<linearGradient id="paint4_linear" x1="26.114" y1="33.4044" x2="13.7812" y2="33.4044" gradientUnits="userSpaceOnUse">
<stop stop-color="#FFD600"/>
<stop offset="1" stop-color="#AF9E72"/>
</linearGradient>
<linearGradient id="paint5_linear" x1="21.7563" y1="21.1436" x2="7.4406" y2="21.1436" gradientUnits="userSpaceOnUse">
<stop stop-color="#FFD600"/>
<stop offset="1" stop-color="#AF9E72"/>
</linearGradient>
<linearGradient id="paint6_linear" x1="51.33" y1="12.2434" x2="41.0394" y2="12.2434" gradientUnits="userSpaceOnUse">
<stop stop-color="#FFD600"/>
<stop offset="1" stop-color="#AF9E72"/>
</linearGradient>
<linearGradient id="paint7_linear" x1="45.257" y1="42.0037" x2="32.3082" y2="42.0037" gradientUnits="userSpaceOnUse">
<stop stop-color="#FFD600"/>
<stop offset="1" stop-color="#AF9E72"/>
</linearGradient>
<linearGradient id="paint8_linear" x1="53.9507" y1="51.2876" x2="50.8167" y2="51.2876" gradientUnits="userSpaceOnUse">
<stop stop-color="#FFD600"/>
<stop offset="1" stop-color="#AF9E72"/>
</linearGradient>
<linearGradient id="paint9_linear" x1="37.7312" y1="4.68774" x2="34.6004" y2="4.68774" gradientUnits="userSpaceOnUse">
<stop stop-color="#FFD600"/>
<stop offset="1" stop-color="#AF9E72"/>
</linearGradient>
<clipPath id="clip0">
<rect width="80" height="80" fill="white"/>
</clipPath>
</defs>
</svg>
