<svg width="80" height="80" viewBox="0 0 80 80" fill="none" xmlns="http://www.w3.org/2000/svg">
<g clip-path="url(#clip0)">
<path d="M75.5679 8.13355C75.2884 7.65159 74.7735 7.35508 74.2165 7.35508H66.6879L62.9135 0.789853C62.6347 0.305085 62.1183 0.00622559 61.5591 0.00622559H53.1183C52.5601 0.00622559 52.0442 0.303992 51.7652 0.78751L48.2962 6.79704L45.5691 5.3643C45.6007 5.14495 45.6179 4.92093 45.6179 4.69299C45.6179 2.10871 43.5154 0.00622559 40.9311 0.00622559C38.3468 0.00622559 36.2443 2.10871 36.2443 4.69299C36.2443 7.27728 38.3468 9.37976 40.9311 9.37976C42.1589 9.37976 43.2774 8.90452 44.1139 8.12918L47.7758 10.0531L51.7696 16.8858C52.0497 17.3651 52.5632 17.6597 53.1183 17.6597H60.6393L63.9449 23.5291L60.8008 28.2637C60.4409 28.175 60.0651 28.1268 59.6782 28.1268C57.0939 28.1268 54.9914 30.2293 54.9914 32.8136C54.9914 35.3979 57.0939 37.5004 59.6782 37.5004C60.3893 37.5004 61.0761 37.3426 61.6993 37.044L64.8213 40.166C64.5229 40.7892 64.3649 41.476 64.3649 42.1871C64.3649 44.7714 66.4674 46.8739 69.0517 46.8739C71.636 46.8739 73.7385 44.7714 73.7385 42.1871C73.7385 39.6029 71.636 37.5004 69.0517 37.5004C68.3406 37.5004 67.6538 37.6582 67.0306 37.9567L63.9086 34.8347C64.207 34.2115 64.3649 33.5247 64.3649 32.8136C64.3649 31.7506 64.0087 30.7697 63.4101 29.9825L66.6135 25.1585H74.2165C74.7775 25.1585 75.2956 24.8577 75.5737 24.3704L79.7949 16.97C80.0706 16.4866 80.0684 15.8933 79.7893 15.4121L75.5679 8.13355ZM40.9311 6.25525C40.0697 6.25525 39.3688 5.55442 39.3688 4.69299C39.3688 3.83157 40.0697 3.13074 40.9311 3.13074C41.7925 3.13074 42.4934 3.83157 42.4934 4.69299C42.4934 5.55442 41.7925 6.25525 40.9311 6.25525ZM50.7052 8.87343L54.0201 3.13074H60.6552L63.973 8.90171L60.6649 14.5352H54.0147L50.7052 8.87343ZM58.1159 32.8136C58.1159 31.9522 58.8167 31.2513 59.6782 31.2513C60.5396 31.2513 61.2404 31.9522 61.2404 32.8136C61.2404 33.6761 60.5407 34.3759 59.6782 34.3759C58.8167 34.3759 58.1159 33.675 58.1159 32.8136ZM70.614 42.1871C70.614 43.0486 69.9131 43.7494 69.0517 43.7494C68.1903 43.7494 67.4895 43.0486 67.4895 42.1871C67.4895 41.3246 68.1892 40.6249 69.0517 40.6249C69.9131 40.6249 70.614 41.3257 70.614 42.1871ZM73.309 22.034H66.6888L63.3579 16.1195L66.6699 10.4733H73.3165L76.6355 16.2023L73.309 22.034Z" fill="url(#paint0_linear)"/>
<path d="M30.1515 32.1886C29.6383 32.1886 29.1579 32.4406 28.8661 32.8629C27.8434 34.3433 25.4647 38.0022 25.4647 39.9999C25.4647 42.5842 27.5672 44.6866 30.1515 44.6866C32.7358 44.6866 34.8383 42.5842 34.8383 39.9999C34.8383 38.0022 32.4596 34.3433 31.4369 32.8629C31.1451 32.4406 30.6647 32.1886 30.1515 32.1886ZM30.1515 41.5621C29.2901 41.5621 28.5892 40.8613 28.5892 40.0018C28.6019 39.524 29.2518 38.1625 30.1518 36.6462C31.051 38.1608 31.7005 39.5218 31.7138 40.0013C31.7131 40.8621 31.0126 41.5621 30.1515 41.5621Z" fill="url(#paint1_linear)"/>
<path d="M30.1516 79.9938C31.0144 79.9938 31.7138 79.2943 31.7138 78.4315C31.7138 77.5687 31.0144 76.8693 30.1516 76.8693C29.2887 76.8693 28.5893 77.5687 28.5893 78.4315C28.5893 79.2943 29.2887 79.9938 30.1516 79.9938Z" fill="url(#paint2_linear)"/>
<path d="M41.556 36.4904V22.8152H43.1183C43.9811 22.8152 44.6805 22.1156 44.6805 21.2529V15.0039C44.6805 14.1412 43.9811 13.4417 43.1183 13.4417H17.1848C16.322 13.4417 15.6226 14.1412 15.6226 15.0039V21.2529C15.6226 22.1156 16.322 22.8152 17.1848 22.8152H18.7471V36.4904L0.741915 70.7903C0.256522 71.6939 0 72.7154 0 73.7447C0 77.1904 2.80331 79.9937 6.24902 79.9937H23.1214C23.9842 79.9937 24.6836 79.2942 24.6836 78.4315C24.6836 77.5688 23.9842 76.8692 23.1214 76.8692H6.24902C4.52617 76.8692 3.12451 75.4676 3.12451 73.7447C3.12451 73.2207 3.24965 72.7227 3.49664 72.2645C3.49945 72.2595 13.0528 54.0603 13.0528 54.0603H47.2501C47.2501 54.0603 56.8035 72.2595 56.8063 72.2645C57.0533 72.7227 57.1784 73.2206 57.1784 73.7447C57.1784 75.4676 55.7768 76.8692 54.0539 76.8692H37.1817C36.3189 76.8692 35.6194 77.5688 35.6194 78.4315C35.6194 79.2942 36.3189 79.9937 37.1817 79.9937H54.0541C57.4998 79.9937 60.3031 77.1904 60.3031 73.7447C60.3031 72.7154 60.0466 71.6939 59.5612 70.7903L41.556 36.4904ZM18.7471 16.5662H41.556V19.6907H18.7471V16.5662ZM14.693 50.9358L21.6925 37.6015C21.81 37.3774 21.8716 37.1284 21.8716 36.8755V22.8152H38.4315V36.8755C38.4315 37.1284 38.4929 37.3776 38.6105 37.6015L45.6101 50.9358H14.693Z" fill="url(#paint3_linear)"/>
</g>
<defs>
<linearGradient id="paint0_linear" x1="80.0002" y1="0.00622559" x2="36.2443" y2="0.00622559" gradientUnits="userSpaceOnUse">
<stop stop-color="#FFD600"/>
<stop offset="1" stop-color="#AF9E72"/>
</linearGradient>
<linearGradient id="paint1_linear" x1="34.8383" y1="32.1886" x2="25.4647" y2="32.1886" gradientUnits="userSpaceOnUse">
<stop stop-color="#FFD600"/>
<stop offset="1" stop-color="#AF9E72"/>
</linearGradient>
<linearGradient id="paint2_linear" x1="31.7138" y1="76.8693" x2="28.5893" y2="76.8693" gradientUnits="userSpaceOnUse">
<stop stop-color="#FFD600"/>
<stop offset="1" stop-color="#AF9E72"/>
</linearGradient>
<linearGradient id="paint3_linear" x1="60.3031" y1="13.4417" x2="0" y2="13.4417" gradientUnits="userSpaceOnUse">
<stop stop-color="#FFD600"/>
<stop offset="1" stop-color="#AF9E72"/>
</linearGradient>
<clipPath id="clip0">
<rect width="80" height="80" fill="white"/>
</clipPath>
</defs>
</svg>
