<svg width="236" height="40" viewBox="0 0 236 40" fill="none" xmlns="http://www.w3.org/2000/svg">
<g clip-path="url(#clip0)">
<path d="M5.54494 38.1353C9.89277 36.5113 13.6648 36.3078 16.3059 32.0905C17.8299 29.6628 15.737 24.442 18.2954 22.873C19.5263 25.2317 22.5156 29.7456 19.8538 32.3732C18.8022 33.4112 18.3023 35.0285 17.0541 36.1491C14.582 38.3699 19.7366 38.1148 20.209 39.9148C18.7333 40.4182 16.7059 38.1906 14.9268 38.6457C14.3958 38.7836 15.5819 39.4735 15.5405 39.6803C15.5164 39.8044 12.4167 38.7045 11.9443 38.8562C11.5305 38.9871 10.3686 41.3391 10.6617 38.4975C10.0445 38.07 8.26191 40.1458 7.1689 39.832C7.34131 39.4217 8.43084 39.1734 8.44121 38.5836C7.19648 37.7148 5.07946 39.6182 3.75891 38.9734C3.63478 38.4079 5.56562 38.1423 5.63113 38.1388" fill="white"/>
<path d="M20.3228 34.0356C20.2607 35.9872 30.0356 39.4288 30.0562 39.4045C29.2564 40.3805 25.8498 37.2666 24.9327 38.5389C24.5947 39.001 25.8395 39.201 25.5049 39.4631C24.9429 39.8976 21.0537 37.6839 21.6054 39.1632C21.8364 39.777 18.7091 38.2115 18.6953 38.2148C16.0439 37.801 18.6402 34.4561 20.3262 33.9492" fill="white"/>
<path d="M13.8303 21.9867C13.7855 21.1315 12.5753 20.2936 12.2098 20.1074C8.92737 18.4763 9.67557 15.8452 8.76532 12.8417C8.01712 10.3692 6.4828 8.80365 6.65174 6.10015C6.78276 3.98286 8.27227 1.94487 8.88256 0C8.96875 2.13453 6.88619 5.94153 7.70337 7.7795C8.32398 9.17263 9.42733 10.6175 10.1514 11.983C11.9684 15.4107 12.0029 10.014 10.9099 8.65539C9.81695 7.29327 8.24123 4.90356 9.62731 3.29663C10.079 4.19666 10.1204 5.49322 10.7444 6.62431C11.2547 7.54846 12.2167 8.17607 12.4477 9.27609C13.2028 12.8486 15.575 5.22081 16.1301 5.16219C16.4094 6.60361 15.3785 9.4485 14.0924 10.3451C12.1547 11.6968 12.9408 12.4072 12.1064 14.2693C11.7099 15.1555 12.8201 18.3729 13.6062 17.7487C14.1993 17.2797 14.2613 14.49 14.5854 13.6555C15.0164 12.5589 15.8612 11.9417 16.8266 11.3072C18.7264 10.0554 19.4574 8.31744 20.2711 6.26221C20.4262 6.30361 18.9643 11.2244 19.0471 11.1106C17.9265 12.6313 16.1991 13.29 15.6371 15.2176C15.2267 16.6314 15.9818 18.128 15.5267 19.397C15.0647 20.6763 14.1096 21.0384 13.8303 21.9867Z" fill="white"/>
<path d="M14.5164 32.9216C14.513 32.9181 14.5095 32.9181 14.5061 32.9146C14.4785 32.9146 14.4578 32.9216 14.4302 32.9216H14.5164ZM26.6428 9.32103C26.4394 10.1935 25.4361 11.928 24.6085 12.3418C24.4603 8.90722 26.8739 6.91063 27.1635 3.81056C26.9152 4.74505 25.4844 7.26582 24.5257 7.55203C23.9397 5.73474 22.4606 4.41747 22.4606 2.36914C22.4606 4.66575 23.7604 6.11751 23.8223 8.14514C23.8706 9.65898 23.2225 10.8142 23.4846 12.4418C23.6568 13.5039 24.2981 14.6522 23.381 15.5626C23.1569 15.7867 21.5675 16.7453 21.7847 15.7833C22.0778 14.4901 21.0089 13.2384 21.2571 11.9211C21.464 10.8176 21.7674 9.75207 21.8708 8.60376C21.5088 9.31069 18.9884 13.4729 20.5469 14.0832C20.8537 14.5177 20.4779 16.5557 19.6573 15.6729C18.8815 14.8384 19.0022 13.3866 19.0539 12.3625C18.8988 12.7935 17.2955 14.9557 17.4782 16.0764C17.6609 17.1971 16.2852 18.9351 15.968 19.3385C15.1784 20.3454 14.7371 21.973 13.9475 22.8455C12.2649 24.7111 11.9753 31.4458 14.5095 32.9181C17.33 32.7767 16.468 26.9802 16.3955 25.6628C16.2576 23.1111 18.5505 21.5558 18.6919 19.2178C19.2401 18.3488 21.1054 18.173 21.8019 18.1454C25.4981 18.0075 24.9465 14.7212 25.998 12.5797C27.4704 9.58311 30.3218 8.08997 30.3218 4.58643C30.2872 6.79338 27.0877 7.40719 26.6428 9.32103Z" fill="white"/>
<path d="M9.30319 16.945C8.15158 15.4657 5.41047 15.076 4.66918 13.5484C3.96925 12.1035 3.00382 10.8345 1.7867 9.78624C-0.357913 7.93445 -0.237235 5.48613 0.428216 4.84473C-0.48204 6.86202 2.95211 11.1001 3.99683 10.9552C4.53814 8.91725 3.53825 7.48274 4.71744 5.60337C4.96225 5.82062 4.41058 8.78965 4.69331 9.50346C5.28291 11.007 5.08981 13.0173 6.56898 13.9519C9.23768 12.9242 9.15493 16.5795 9.22044 16.6002" fill="white"/>
<path d="M9.5618 18.1454C9.5618 18.9937 8.8722 19.6834 8.02401 19.6834C7.17583 19.6834 6.48624 18.9937 6.48624 18.1454C6.48624 17.2971 7.17583 16.6074 8.02401 16.6074C8.8722 16.604 9.5618 17.2937 9.5618 18.1454Z" fill="white"/>
<path d="M8.02401 12.0794C8.02401 12.738 7.48958 13.276 6.82757 13.276C6.16558 13.276 5.63113 12.7415 5.63113 12.0794C5.63113 11.4173 6.16558 10.8828 6.82757 10.8828C7.48958 10.8828 8.02401 11.4173 8.02401 12.0794Z" fill="white"/>
<path d="M2.89694 11.9482C2.89694 12.5861 2.37974 13.1034 1.74533 13.1034C1.10746 13.1034 0.590271 12.5861 0.590271 11.9482C0.590271 11.3102 1.10746 10.793 1.74533 10.793C2.37974 10.7964 2.89694 11.3102 2.89694 11.9482Z" fill="white"/>
<path d="M14.3441 7.25234C14.3441 7.89028 13.8269 8.40755 13.189 8.40755C12.5546 8.40755 12.0374 7.89028 12.0374 7.25234C12.0374 6.61785 12.5546 6.1006 13.189 6.1006C13.8269 6.09715 14.3441 6.61439 14.3441 7.25234Z" fill="white"/>
<path d="M4.09336 5.45532C4.09336 6.32776 3.38655 7.03469 2.51422 7.03469C1.64188 7.03469 0.935059 6.32776 0.935059 5.45532C0.935059 4.58291 1.64188 3.87598 2.51422 3.87598C3.38655 3.87598 4.09336 4.58291 4.09336 5.45532Z" fill="white"/>
<path d="M26.6048 12.2966C25.0326 15.3347 31.4286 11.3518 31.4286 11.3518C31.4286 11.3518 28.1773 9.25519 26.6048 12.2966Z" fill="white"/>
<path d="M19.8607 18.8518C16.2473 20.3139 24.7292 21.6105 24.7292 21.6105C24.7292 21.6105 23.4741 17.3897 19.8607 18.8518Z" fill="white"/>
<path d="M20.2021 8.67632C20.3952 11.0453 22.6951 6.34867 22.6951 6.34867C22.6951 6.34867 20.009 6.31075 20.2021 8.67632Z" fill="white"/>
<path d="M30.315 6.90707C29.4321 9.11402 33.5801 5.9312 33.5801 5.9312C33.5801 5.9312 31.1941 4.70012 30.315 6.90707Z" fill="white"/>
<path d="M25.4706 5.85902C24.8809 8.29701 23.2535 3.01758 23.2535 3.01758C23.2535 3.01758 26.0601 3.42103 25.4706 5.85902Z" fill="white"/>
<path d="M41.2127 22.0825C41.2127 22.2917 41.1729 22.8078 41.0936 23.6303C41.0142 24.4602 40.9637 24.9111 40.9421 24.9833H40.0654C40.0582 24.7885 40.0221 24.406 39.9572 23.836C39.892 23.2731 39.8415 22.9448 39.8055 22.851H32.9323V22.2124L33.8739 22.0825V15.6204L33.0079 15.4797V14.8086H36.4284V15.4797L35.4435 15.6204V22.1474H38.4092V15.6204L37.5974 15.4797V14.8086H40.823V15.4797L39.9788 15.6204V22.0825H41.2127Z" fill="white"/>
<path d="M43.0966 15.6204L42.2308 15.4797V14.8086H48L48.1408 16.6271H47.3832L47.0258 15.5555L44.6879 15.458V18.3698L46.1924 18.3373L46.3657 17.4497H47.0584V20.0691H46.3657L46.1924 19.1383L44.6879 19.1058V22.1581L47.3073 22.0283L47.9351 20.6428L48.7469 20.8701L48.4656 22.851H42.2415V22.2014L43.0966 22.0932V15.6204Z" fill="white"/>
<path d="M50.5762 15.6204L49.7751 15.4797V14.8086H53.0658V15.4797L52.1565 15.6204V18.3373H55.447V15.6204L54.6136 15.4797V14.8086H57.8608V15.4797L57.0383 15.6204V22.0932L57.8608 22.2014V22.851H54.6028V22.2014L55.447 22.0932V19.1599H52.1565V22.0932L53.0658 22.2014V22.851H49.7534V22.2014L50.5762 22.0932V15.6204Z" fill="white"/>
<path d="M61.7541 15.523L60.2063 15.5771L59.784 17.9368H58.875L59.0588 14.8086H66.0404L66.1703 17.9368H65.3152L64.8931 15.5771L63.367 15.523V22.0932L64.8824 22.2014V22.851H60.3685V22.2014L61.7541 22.0932V15.523Z" fill="white"/>
<path d="M68.0715 15.6209L67.2597 15.4802V14.8091H68.8942C69.0457 14.8091 69.2802 14.8019 69.5978 14.7874C70.0162 14.7586 70.3952 14.7441 70.7342 14.7441C71.4848 14.7441 72.0765 14.838 72.5095 15.0256C72.9495 15.206 73.2599 15.4694 73.4402 15.8157C73.628 16.1549 73.7218 16.5879 73.7218 17.1146C73.7218 18.0239 73.4367 18.731 72.8667 19.2362C72.3038 19.7413 71.5209 19.9939 70.5178 19.9939C70.1209 19.9939 69.8359 19.983 69.6627 19.9614V22.0937L71.113 22.2019V22.8515H67.2164V22.2019L68.0715 22.0937V15.6209ZM69.6518 19.2686C69.8177 19.3047 70.0992 19.3228 70.4962 19.3228C70.9797 19.3228 71.3657 19.1568 71.6542 18.8249C71.9502 18.4857 72.0981 17.9264 72.0981 17.1471C72.0981 16.5409 71.9646 16.1008 71.6975 15.8265C71.4378 15.5451 71.0374 15.4044 70.4962 15.4044C70.294 15.4044 70.0848 15.4189 69.8684 15.4477C69.7672 15.4622 69.6951 15.4694 69.6518 15.4694V19.2686Z" fill="white"/>
<path d="M81.3624 22.9696C80.1355 22.9696 79.1974 22.6053 78.548 21.8765C77.8986 21.1404 77.5738 20.1374 77.5738 18.8673C77.5738 18.0303 77.7434 17.3015 78.0826 16.6809C78.4288 16.0531 78.9016 15.5696 79.5005 15.2304C80.0994 14.8913 80.7777 14.7217 81.5355 14.7217C81.8529 14.7217 82.1598 14.7433 82.4555 14.7866C82.7515 14.8227 83.1014 14.8732 83.5056 14.9382C83.8085 14.9887 83.9746 15.0139 84.0035 15.0139L83.8844 17.2437H82.8885L82.553 15.6959C82.4737 15.6165 82.3364 15.5515 82.1416 15.501C81.9469 15.4505 81.6979 15.4253 81.3947 15.4253C80.7814 15.4253 80.2872 15.7103 79.9119 16.2804C79.5438 16.8432 79.3598 17.6622 79.3598 18.7375C79.3598 19.7766 79.5366 20.6245 79.8903 21.2811C80.2437 21.9377 80.7598 22.2662 81.438 22.2662C81.7628 22.2662 82.0118 22.2372 82.1849 22.1795C82.3652 22.1146 82.5169 22.0245 82.6396 21.9089L83.1158 20.7941L84.0251 20.8807L83.8085 22.5585C83.657 22.5729 83.5056 22.6018 83.3539 22.645C83.2096 22.6811 83.1193 22.7028 83.0833 22.71C82.7947 22.7893 82.5241 22.8507 82.2715 22.894C82.0262 22.9445 81.7231 22.9696 81.3624 22.9696Z" fill="white"/>
<path d="M86.0376 15.6204L85.1716 15.4797V14.8086H90.941L91.0815 16.6271H90.3239L89.9668 15.5555L87.6286 15.458V18.3698L89.1333 18.3373L89.3064 17.4497H89.9991V20.0691H89.3064L89.1333 19.1383L87.6286 19.1058V22.1581L90.2481 22.0283L90.8758 20.6428L91.6879 20.8701L91.4063 22.851H85.1825V22.2014L86.0376 22.0932V15.6204Z" fill="white"/>
<path d="M93.9609 15.6204L92.7917 15.4797V14.8086H96.169L97.457 19.463L97.76 20.7294L98.0199 19.463L99.297 14.8086H102.642V15.4797L101.462 15.6204L102.328 22.0825L103.205 22.2014V22.851H99.7517V22.2014L100.704 22.0932L100.228 17.3523L100.022 15.3715L99.6218 17.0384L98.0522 22.5153H96.9049L95.3029 17.3198L94.751 15.3715L94.5886 17.3523L94.1773 22.0932L95.2706 22.2014V22.851H92.2614V22.2014L93.1707 22.0932L93.9609 15.6204Z" fill="white"/>
<path d="M104.886 15.6204L104.02 15.4797V14.8086H109.789L109.93 16.6271H109.172L108.815 15.5555L106.477 15.458V18.3698L107.982 18.3373L108.155 17.4497H108.847V20.0691H108.155L107.982 19.1383L106.477 19.1058V22.1581L109.096 22.0283L109.724 20.6428L110.536 20.8701L110.255 22.851H104.031V22.2014L104.886 22.0932V15.6204Z" fill="white"/>
<path d="M114.931 14.8087V15.4798L113.935 15.6206V20.6646L114.66 19.4523L117.42 15.8803V15.6206L116.511 15.4798V14.8087H119.823V15.4798L118.99 15.6206V22.0934L119.856 22.2016V22.8512H116.511V22.2016L117.42 22.0934V16.9844L116.771 18.1534L113.935 21.7578V22.0934L114.898 22.2016V22.8512H111.521V22.2016L112.376 22.0934V15.6206L111.543 15.4798V14.8087H114.931ZM114.628 12.2109C114.743 12.2109 114.801 12.3805 114.801 12.7197C114.801 12.9939 114.876 13.2068 115.028 13.3583C115.18 13.5026 115.429 13.5748 115.775 13.5748C116.114 13.5748 116.356 13.5026 116.5 13.3583C116.652 13.2068 116.727 12.9939 116.727 12.7197C116.727 12.5898 116.738 12.4743 116.76 12.3733C116.789 12.2651 116.836 12.2109 116.901 12.2109H117.962L117.972 12.5032C117.972 13.0372 117.777 13.4485 117.388 13.7371C116.998 14.0258 116.457 14.1701 115.764 14.1701C115.086 14.1701 114.548 14.0258 114.151 13.7371C113.762 13.4413 113.567 13.03 113.567 12.5032L113.578 12.2109H114.628Z" fill="white"/>
<path d="M121.948 15.6204L121.147 15.4797V14.8086H124.438V15.4797L123.528 15.6204V18.3373H126.819V15.6204L125.986 15.4797V14.8086H129.233V15.4797L128.41 15.6204V22.0932L129.233 22.2014V22.851H125.975V22.2014L126.819 22.0932V19.1599H123.528V22.0932L124.438 22.2014V22.851H121.125V22.2014L121.948 22.0932V15.6204Z" fill="white"/>
<path d="M133.916 22.9697C132.74 22.9697 131.86 22.6018 131.275 21.8657C130.69 21.1297 130.398 20.1266 130.398 18.8566C130.398 18.0267 130.55 17.2979 130.853 16.6701C131.163 16.0423 131.596 15.5588 132.152 15.2197C132.708 14.8805 133.346 14.7109 134.068 14.7109C135.258 14.7109 136.15 15.0645 136.741 15.7717C137.34 16.4717 137.64 17.4531 137.64 18.7159C137.64 19.5529 137.481 20.2962 137.163 20.9457C136.853 21.5879 136.417 22.0858 135.854 22.4394C135.291 22.7931 134.645 22.9697 133.916 22.9697ZM134.024 15.3712C133.433 15.3712 132.971 15.6635 132.639 16.248C132.307 16.8325 132.141 17.6984 132.141 18.8458C132.141 19.9787 132.3 20.841 132.617 21.4328C132.942 22.0174 133.404 22.3096 134.003 22.3096C134.587 22.3096 135.045 22.0029 135.377 21.3895C135.709 20.7689 135.875 19.8777 135.875 18.7159C135.875 17.5902 135.716 16.7531 135.399 16.2047C135.082 15.649 134.623 15.3712 134.024 15.3712Z" fill="white"/>
<path d="M142.178 14.8087V15.4798L141.182 15.6206V20.6646L141.907 19.4523L144.667 15.8803V15.6206L143.758 15.4798V14.8087H147.07V15.4798L146.237 15.6206V22.0934L147.103 22.2016V22.8512H143.758V22.2016L144.667 22.0934V16.9844L144.018 18.1534L141.182 21.7578V22.0934L142.145 22.2016V22.8512H138.768V22.2016L139.623 22.0934V15.6206L138.79 15.4798V14.8087H142.178ZM141.875 12.2109C141.99 12.2109 142.048 12.3805 142.048 12.7197C142.048 12.9939 142.124 13.2068 142.275 13.3583C142.427 13.5026 142.676 13.5748 143.022 13.5748C143.361 13.5748 143.603 13.5026 143.747 13.3583C143.899 13.2068 143.975 12.9939 143.975 12.7197C143.975 12.5898 143.986 12.4743 144.007 12.3733C144.036 12.2651 144.083 12.2109 144.148 12.2109H145.209L145.219 12.5032C145.219 13.0372 145.025 13.4485 144.635 13.7371C144.245 14.0258 143.704 14.1701 143.011 14.1701C142.333 14.1701 141.795 14.0258 141.398 13.7371C141.009 13.4413 140.814 13.03 140.814 12.5032L140.825 12.2109H141.875Z" fill="white"/>
<path d="M159.176 14.8086V15.4797L158.309 15.6204V22.0825L159.24 22.2014V22.851H155.906V22.2014L156.729 22.0932V15.5555H153.72V22.0932L154.629 22.2014V22.851H151.306V22.2014L152.151 22.0932V15.6204L151.274 15.4797V14.8086H159.176Z" fill="white"/>
<path d="M164.072 22.9696C162.845 22.9696 161.907 22.6053 161.257 21.8765C160.608 21.1404 160.283 20.1374 160.283 18.8673C160.283 18.0303 160.453 17.3015 160.792 16.6809C161.138 16.0531 161.611 15.5696 162.21 15.2304C162.809 14.8913 163.487 14.7217 164.245 14.7217C164.562 14.7217 164.869 14.7433 165.165 14.7866C165.461 14.8227 165.811 14.8732 166.215 14.9382C166.518 14.9887 166.684 15.0139 166.713 15.0139L166.594 17.2437H165.598L165.262 15.6959C165.183 15.6165 165.046 15.5515 164.851 15.501C164.656 15.4505 164.407 15.4253 164.104 15.4253C163.491 15.4253 162.996 15.7103 162.621 16.2804C162.253 16.8432 162.069 17.6622 162.069 18.7375C162.069 19.7766 162.246 20.6245 162.6 21.2811C162.953 21.9377 163.469 22.2662 164.147 22.2662C164.472 22.2662 164.721 22.2372 164.894 22.1795C165.075 22.1146 165.226 22.0245 165.349 21.9089L165.825 20.7941L166.734 20.8807L166.518 22.5585C166.366 22.5729 166.215 22.6018 166.063 22.645C165.919 22.6811 165.829 22.7028 165.793 22.71C165.504 22.7893 165.233 22.8507 164.981 22.894C164.736 22.9445 164.432 22.9696 164.072 22.9696Z" fill="white"/>
<path d="M171.323 14.8086V15.4797L170.327 15.6204V20.6645L171.052 19.4522L173.813 15.8802V15.6204L172.903 15.4797V14.8086H176.216V15.4797L175.382 15.6204V22.0932L176.248 22.2014V22.851H172.903V22.2014L173.813 22.0932V16.9842L173.163 18.1533L170.327 21.7577V22.0932L171.291 22.2014V22.851H167.913V22.2014L168.769 22.0932V15.6204L167.935 15.4797V14.8086H171.323Z" fill="white"/>
<path d="M180.17 18.9218L177.962 15.6312L177.215 15.4797V14.8086H180.754V15.4797L179.834 15.6312L181.317 18.0883L182.843 15.6204L181.912 15.4797V14.8086H184.694V15.4797L183.817 15.6312L181.718 18.5754L184.077 22.0932L184.835 22.2014V22.851H181.306V22.2014L182.216 22.0932L180.592 19.4413L179.033 22.0932L180.072 22.2014V22.851H177.117V22.2014L178.026 22.0932L180.17 18.9218Z" fill="white"/>
<path d="M189.051 22.9697C187.875 22.9697 186.994 22.6018 186.41 21.8657C185.825 21.1297 185.533 20.1266 185.533 18.8566C185.533 18.0267 185.684 17.2979 185.987 16.6701C186.298 16.0423 186.731 15.5588 187.286 15.2197C187.842 14.8805 188.481 14.7109 189.202 14.7109C190.393 14.7109 191.284 15.0645 191.876 15.7717C192.475 16.4717 192.774 17.4531 192.774 18.7159C192.774 19.5529 192.616 20.2962 192.298 20.9457C191.988 21.5879 191.551 22.0858 190.988 22.4394C190.425 22.7931 189.779 22.9697 189.051 22.9697ZM189.159 15.3712C188.567 15.3712 188.105 15.6635 187.773 16.248C187.442 16.8325 187.275 17.6984 187.275 18.8458C187.275 19.9787 187.434 20.841 187.752 21.4328C188.076 22.0174 188.538 22.3096 189.137 22.3096C189.722 22.3096 190.18 22.0029 190.512 21.3895C190.844 20.7689 191.01 19.8777 191.01 18.7159C191.01 17.5902 190.851 16.7531 190.534 16.2047C190.216 15.649 189.758 15.3712 189.159 15.3712Z" fill="white"/>
<path d="M196.717 16.4755C196.717 17.7311 196.649 18.8604 196.511 19.8635C196.381 20.8593 196.179 21.6098 195.905 22.1149C195.617 22.6489 195.202 22.916 194.66 22.916C194.292 22.916 194.015 22.8943 193.827 22.851L193.73 21.8768C194.018 21.9057 194.292 21.9201 194.552 21.9201C194.696 21.9201 194.819 21.8875 194.92 21.8227C195.028 21.7577 195.122 21.6423 195.202 21.4763C195.433 21.0722 195.609 20.4552 195.732 19.6254C195.862 18.7955 195.927 17.677 195.927 16.2699V15.6204L194.628 15.4797V14.8086H201.328V15.4797L200.332 15.6204V22.0932L201.382 22.2014V22.851H197.648V22.2014L198.763 22.0825L198.774 15.6204H196.717V16.4755Z" fill="white"/>
<path d="M205.838 22.9697C204.662 22.9697 203.781 22.6018 203.197 21.8657C202.612 21.1297 202.32 20.1266 202.32 18.8566C202.32 18.0267 202.471 17.2979 202.774 16.6701C203.085 16.0423 203.518 15.5588 204.073 15.2197C204.629 14.8805 205.268 14.7109 205.989 14.7109C207.18 14.7109 208.071 15.0645 208.663 15.7717C209.262 16.4717 209.561 17.4531 209.561 18.7159C209.561 19.5529 209.403 20.2962 209.085 20.9457C208.775 21.5879 208.338 22.0858 207.775 22.4394C207.212 22.7931 206.567 22.9697 205.838 22.9697ZM205.946 15.3712C205.354 15.3712 204.892 15.6635 204.56 16.248C204.229 16.8325 204.063 17.6984 204.063 18.8458C204.063 19.9787 204.221 20.841 204.539 21.4328C204.864 22.0174 205.325 22.3096 205.924 22.3096C206.509 22.3096 206.967 22.0029 207.299 21.3895C207.631 20.7689 207.797 19.8777 207.797 18.7159C207.797 17.5902 207.638 16.7531 207.321 16.2047C207.003 15.649 206.545 15.3712 205.946 15.3712Z" fill="white"/>
<path d="M216.47 14.8086L216.6 17.8502H215.669L215.301 15.6096L213.309 15.5013V22.0825L215.084 22.2124V22.851H210.538V22.2124L211.718 22.0825V15.6312L210.56 15.4689V14.8086H216.47Z" fill="white"/>
<path d="M220.903 14.8086V15.4797L219.906 15.6204V20.6645L220.632 19.4522L223.392 15.8802V15.6204L222.483 15.4797V14.8086H225.795V15.4797L224.962 15.6204V22.0932L225.827 22.2014V22.851H222.483V22.2014L223.392 22.0932V16.9842L222.743 18.1533L219.906 21.7577V22.0932L220.87 22.2014V22.851H217.493V22.2014L218.348 22.0932V15.6204L217.514 15.4797V14.8086H220.903Z" fill="white"/>
<path d="M230.485 14.8086V15.4797L229.489 15.6204V20.6645L230.214 19.4522L232.975 15.8802V15.6204L232.066 15.4797V14.8086H235.377V15.4797L234.544 15.6204V22.0932L235.41 22.2014V22.851H232.066V22.2014L232.975 22.0932V16.9842L232.326 18.1533L229.489 21.7577V22.0932L230.452 22.2014V22.851H227.075V22.2014L227.93 22.0932V15.6204L227.097 15.4797V14.8086H230.485Z" fill="white"/>
<path d="M34.9554 28.3643H36.2894L38.3036 34.2674L38.8094 34.3546V34.8777H36.2372V34.3546L36.8911 34.2674L36.551 33.1339H34.2927L33.9526 34.2762L34.659 34.3546V34.8777H32.4354L32.4267 34.3546L32.9499 34.2674L34.9554 28.3643ZM35.5569 29.8379L35.4 29.1579L35.2345 29.8467L34.4584 32.5236H36.3766L35.5569 29.8379Z" fill="white"/>
<path d="M39.8101 29.0529L39.1563 28.9395V28.3989H40.4728C40.595 28.3989 40.7839 28.393 41.0396 28.3814C41.3769 28.3583 41.682 28.3467 41.9552 28.3467C42.5598 28.3467 43.0363 28.4221 43.3852 28.5733C43.7397 28.7187 43.9898 28.9307 44.1351 29.2098C44.2861 29.4831 44.3618 29.8319 44.3618 30.2562C44.3618 30.9886 44.132 31.5583 43.6728 31.9653C43.2195 32.372 42.5889 32.5755 41.7808 32.5755C41.461 32.5755 41.2315 32.5668 41.0918 32.5493V34.2671L42.2604 34.3543V34.8774H39.1213V34.3543L39.8101 34.2671V29.0529ZM41.0833 31.9913C41.2169 32.0203 41.4435 32.035 41.7633 32.035C42.1528 32.035 42.4639 31.9012 42.6964 31.6339C42.9347 31.3607 43.0538 30.9102 43.0538 30.2824C43.0538 29.7941 42.9463 29.4394 42.7312 29.2186C42.522 28.9919 42.1994 28.8785 41.7633 28.8785C41.6005 28.8785 41.4319 28.8901 41.2575 28.9135C41.1762 28.925 41.1181 28.9307 41.0833 28.9307V31.9913Z" fill="white"/>
<path d="M47.0713 28.9749L45.8245 29.0184L45.4844 30.9194H44.7519L44.9001 28.3994H50.5242L50.6289 30.9194H49.9401L49.6 29.0184L48.3705 28.9749V34.2676L49.5913 34.3548V34.8779H45.9552V34.3548L47.0713 34.2676V28.9749Z" fill="white"/>
<path d="M51.9239 29.0536L51.2264 28.9402V28.3997H55.8739L55.9873 29.8646H55.3768L55.0892 29.0014L53.2057 28.9229V31.2683L54.4177 31.2423L54.5574 30.5273H55.1154V32.6373H54.5574L54.4177 31.8875L53.2057 31.8613V34.3201L55.3158 34.2156L55.8216 33.0996L56.4756 33.2825L56.249 34.8781H51.2352V34.3551L51.9239 34.2679V29.0536ZM52.5604 27.8241C52.3978 27.8241 52.264 27.7632 52.1593 27.641C52.0549 27.519 52.0024 27.3736 52.0024 27.2051C52.0024 26.99 52.0577 26.8156 52.1681 26.6818C52.2844 26.5424 52.4529 26.4727 52.6739 26.4727H52.6826C52.8802 26.4727 53.0315 26.5336 53.1359 26.6558C53.2406 26.7721 53.2929 26.9172 53.2929 27.0917C53.2929 27.3068 53.2319 27.484 53.1099 27.6237C52.9878 27.7572 52.8076 27.8241 52.5692 27.8241H52.5604ZM54.7753 27.8241C54.6125 27.8241 54.4789 27.7632 54.3742 27.641C54.2695 27.5131 54.2173 27.3677 54.2173 27.2051C54.2173 26.99 54.2723 26.8156 54.3829 26.6818C54.4992 26.5424 54.6678 26.4727 54.8885 26.4727H54.8973C55.1008 26.4727 55.252 26.5336 55.3508 26.6558C55.4553 26.7721 55.5078 26.9172 55.5078 27.0917C55.5078 27.3127 55.4468 27.4899 55.3246 27.6237C55.2026 27.7572 55.0194 27.8241 54.7753 27.8241Z" fill="white"/>
<path d="M58.0791 29.0534L57.1373 28.94V28.3994H59.8577L60.8955 32.1487L61.1397 33.169L61.3489 32.1487L62.3777 28.3994H65.0721V28.94L64.1215 29.0534L64.8192 34.2589L65.5255 34.3548V34.8779H62.7441V34.3548L63.5113 34.2676L63.1277 30.4486L62.962 28.8527L62.6394 30.1957L61.3751 34.6077H60.4507L59.1602 30.4224L58.7156 28.8527L58.5847 30.4486L58.2533 34.2676L59.134 34.3548V34.8779H56.7102V34.3548L57.4424 34.2676L58.0791 29.0534Z" fill="white"/>
<path d="M68.0037 28.3643H69.3377L71.3519 34.2674L71.8577 34.3546V34.8777H69.2855V34.3546L69.9395 34.2674L69.5993 33.1339H67.341L67.0011 34.2762L67.7073 34.3546V34.8777H65.4837L65.475 34.3546L65.9983 34.2674L68.0037 28.3643ZM68.6055 29.8379L68.4485 29.1579L68.2828 29.8467L67.5067 32.5236H69.4249L68.6055 29.8379Z" fill="white"/>
<path d="M77.0693 28.3994V28.94L76.2671 29.0534V33.1166L76.8514 32.1402L79.0748 29.2626V29.0534L78.3423 28.94V28.3994H81.0105V28.94L80.339 29.0534V34.2676L81.0367 34.3548V34.8779H78.3423V34.3548L79.0748 34.2676V30.152L78.5517 31.0938L76.2671 33.9972V34.2676L77.0431 34.3548V34.8779H74.3226V34.3548L75.0116 34.2676V29.0534L74.3401 28.94V28.3994H77.0693Z" fill="white"/>
<path d="M85.9819 28.3643H87.3159L89.3301 34.2674L89.8359 34.3546V34.8777H87.2636V34.3546L87.9176 34.2674L87.5775 33.1339H85.3191L84.979 34.2762L85.6853 34.3546V34.8777H83.4619L83.4531 34.3546L83.9764 34.2674L85.9819 28.3643ZM86.5834 29.8379L86.4265 29.1579L86.2608 29.8467L85.4848 32.5236H87.4031L86.5834 29.8379Z" fill="white"/>
<path d="M92.4234 29.7421C92.4234 30.7537 92.3683 31.6635 92.2577 32.4713C92.1532 33.2735 91.9904 33.8781 91.7694 34.2851C91.5371 34.7153 91.2026 34.9303 90.7668 34.9303C90.4704 34.9303 90.2466 34.9129 90.0953 34.8779L90.0168 34.0932C90.2494 34.1166 90.4704 34.1282 90.6796 34.1282C90.7959 34.1282 90.8947 34.1019 90.976 34.0497C91.0632 33.9972 91.1388 33.9043 91.2026 33.7706C91.3887 33.4451 91.5312 32.948 91.63 32.2796C91.7347 31.611 91.7869 30.71 91.7869 29.5765V29.0534L90.7406 28.94V28.3994H96.1379V28.94L95.3358 29.0534V34.2676L96.1817 34.3548V34.8779H93.1734V34.3548L94.0715 34.2589L94.0802 29.0534H92.4234V29.7421Z" fill="white"/>
<path d="M97.4767 29.0534L96.779 28.94V28.3994H101.426L101.54 29.8643H100.93L100.642 29.0012L98.7585 28.9227V31.268L99.9705 31.242L100.11 30.5271H100.668V32.637H100.11L99.9705 31.8873L98.7585 31.8611V34.3198L100.868 34.2154L101.374 33.0993L102.028 33.2823L101.802 34.8779H96.7878V34.3548L97.4767 34.2676V29.0534Z" fill="white"/>
<path d="M105.925 31.4162C106.134 31.4687 106.332 31.5937 106.518 31.7913C106.71 31.983 106.875 32.1953 107.015 32.4278C107.16 32.6545 107.334 32.9539 107.538 33.326C107.695 33.6224 107.82 33.8462 107.913 33.9972C108.012 34.1485 108.102 34.2357 108.183 34.2589L108.506 34.3548V34.8779H107.128C106.983 34.8779 106.84 34.7675 106.701 34.5467C106.567 34.3257 106.39 33.98 106.169 33.5089C105.925 32.98 105.71 32.576 105.524 32.2971C105.344 32.018 105.152 31.8785 104.948 31.8785H104.538V34.2589L105.315 34.3636V34.8779H102.603V34.3548L103.274 34.2589V29.0534L102.603 28.94V28.3994H105.201V28.94L104.538 29.0534V31.3902H105.175L106.736 29.0534L106.082 28.94V28.3994H108.384V28.94L107.66 29.0534L105.925 31.4162Z" fill="white"/>
<path d="M111.901 34.9742C110.912 34.9742 110.157 34.6807 109.633 34.0936C109.11 33.5008 108.849 32.6927 108.849 31.6695C108.849 30.9952 108.985 30.4081 109.259 29.9082C109.537 29.4026 109.918 29.0131 110.401 28.7399C110.883 28.4667 111.43 28.3301 112.04 28.3301C112.296 28.3301 112.543 28.3476 112.781 28.3823C113.019 28.4114 113.301 28.452 113.627 28.5045C113.871 28.5452 114.005 28.5655 114.028 28.5655L113.932 30.3618H113.13L112.86 29.1148C112.796 29.051 112.685 28.9985 112.528 28.9578C112.371 28.9172 112.171 28.8969 111.927 28.8969C111.433 28.8969 111.034 29.1264 110.732 29.5856C110.436 30.0391 110.287 30.6988 110.287 31.5651C110.287 32.402 110.43 33.085 110.715 33.614C111 34.143 111.415 34.4075 111.962 34.4075C112.223 34.4075 112.424 34.3843 112.563 34.3377C112.709 34.2855 112.831 34.2127 112.929 34.1198L113.313 33.2217L114.045 33.2914L113.871 34.6429C113.749 34.6547 113.627 34.6778 113.505 34.7128C113.389 34.7417 113.316 34.7591 113.287 34.765C113.054 34.8289 112.837 34.8783 112.633 34.9132C112.435 34.9539 112.191 34.9742 111.901 34.9742Z" fill="white"/>
<path d="M116.791 28.3643H118.125L120.139 34.2674L120.645 34.3546V34.8777H118.072V34.3546L118.726 34.2674L118.386 33.1339H116.128L115.788 34.2762L116.494 34.3546V34.8777H114.271L114.262 34.3546L114.785 34.2674L116.791 28.3643ZM117.392 29.8379L117.235 29.1579L117.07 29.8467L116.294 32.5236H118.212L117.392 29.8379Z" fill="white"/>
<path d="M121.645 29.0534L121 28.94V28.3994H123.651V28.94L122.918 29.0534V31.242H125.569V29.0534L124.898 28.94V28.3994H127.514V28.94L126.851 29.0534V34.2676L127.514 34.3548V34.8779H124.889V34.3548L125.569 34.2676V31.9045H122.918V34.2676L123.651 34.3548V34.8779H120.983V34.3548L121.645 34.2676V29.0534Z" fill="white"/>
<path d="M134.224 34.2589C134.224 34.4333 134.198 34.8519 134.145 35.5146C134.093 36.183 134.061 36.5435 134.05 36.5957H133.343C133.337 36.4447 133.302 36.1336 133.239 35.6628C133.175 35.192 133.125 34.9303 133.09 34.8779H129.254C129.213 34.9303 129.141 35.1745 129.036 35.6103C128.937 36.0464 128.87 36.3778 128.835 36.6044H128.111L128.12 36.2121C128.149 35.2355 128.176 34.5843 128.199 34.2589H128.827C128.966 34.0672 129.117 33.7736 129.28 33.3782C129.443 32.983 129.585 32.4541 129.707 31.7913C129.829 31.1286 129.89 30.3555 129.89 29.472V29.0534L128.984 28.94V28.3994H134.241V28.94L133.404 29.0534V34.2589H134.224ZM130.527 29.5242C130.533 30.3205 130.489 31.0442 130.396 31.6954C130.303 32.3406 130.193 32.8755 130.065 33.2997C129.937 33.724 129.815 34.0438 129.699 34.2589H132.14L132.149 28.9924H130.527V29.5242Z" fill="white"/>
<path d="M135.684 29.0529L135.03 28.9395V28.3989H136.346C136.469 28.3989 136.658 28.393 136.913 28.3814C137.251 28.3583 137.556 28.3467 137.829 28.3467C138.433 28.3467 138.91 28.4221 139.259 28.5733C139.613 28.7187 139.863 28.9307 140.009 29.2098C140.16 29.4831 140.235 29.8319 140.235 30.2562C140.235 30.9886 140.006 31.5583 139.547 31.9653C139.093 32.372 138.463 32.5755 137.654 32.5755C137.335 32.5755 137.105 32.5668 136.966 32.5493V34.2671L138.134 34.3543V34.8774H134.995V34.3543L135.684 34.2671V29.0529ZM136.957 31.9913C137.091 32.0203 137.317 32.035 137.637 32.035C138.026 32.035 138.338 31.9012 138.57 31.6339C138.808 31.3607 138.927 30.9102 138.927 30.2824C138.927 29.7941 138.82 29.4394 138.605 29.2186C138.396 28.9919 138.073 28.8785 137.637 28.8785C137.474 28.8785 137.306 28.8901 137.131 28.9135C137.05 28.925 136.992 28.9307 136.957 28.9307V31.9913Z" fill="white"/>
<path d="M142.797 30.9804C143.076 30.9688 143.454 30.9629 143.93 30.9629C144.657 30.9629 145.206 31.1286 145.578 31.46C145.95 31.7913 146.136 32.2562 146.136 32.8552C146.136 33.291 146.035 33.6661 145.831 33.98C145.633 34.2938 145.357 34.5349 145.003 34.7037C144.654 34.8663 144.256 34.9478 143.808 34.9478C143.68 34.9478 143.436 34.936 143.076 34.9129C142.657 34.8897 142.329 34.8779 142.09 34.8779H140.835V34.3548L141.524 34.2676V29.0447L140.852 28.9227V28.3994H143.686V28.9227L142.797 29.0447V30.9804ZM149.493 28.3994V28.94L148.735 29.0534V34.2676L149.493 34.3636V34.8779H146.712V34.3548L147.453 34.2676V29.0534L146.703 28.94V28.3994H149.493ZM142.797 34.3199C142.994 34.3664 143.23 34.3898 143.503 34.3898C143.951 34.3898 144.282 34.2589 144.497 33.9972C144.712 33.7299 144.82 33.3725 144.82 32.9249C144.82 32.0064 144.398 31.5472 143.555 31.5472L142.797 31.5559V34.3199Z" fill="white"/>
<path d="M154.565 28.9749L153.318 29.0184L152.978 30.9194H152.246L152.394 28.3994H158.018L158.123 30.9194H157.434L157.094 29.0184L155.864 28.9749V34.2676L157.085 34.3548V34.8779H153.449V34.3548L154.565 34.2676V28.9749Z" fill="white"/>
<path d="M161.484 34.9742C160.537 34.9742 159.828 34.6778 159.357 34.0848C158.886 33.492 158.651 32.6839 158.651 31.6607C158.651 30.9923 158.773 30.4052 159.017 29.8994C159.267 29.3939 159.616 29.0043 160.063 28.7311C160.511 28.4579 161.025 28.3213 161.607 28.3213C162.566 28.3213 163.284 28.6061 163.76 29.1757C164.243 29.7397 164.484 30.5303 164.484 31.5475C164.484 32.2218 164.356 32.8205 164.1 33.3438C163.85 33.861 163.499 34.2621 163.045 34.5471C162.592 34.8319 162.071 34.9742 161.484 34.9742ZM161.572 28.8531C161.095 28.8531 160.723 29.0885 160.456 29.5595C160.188 30.0304 160.054 30.7278 160.054 31.6522C160.054 32.5648 160.182 33.2594 160.438 33.7362C160.7 34.207 161.072 34.4424 161.554 34.4424C162.025 34.4424 162.394 34.1954 162.662 33.7012C162.929 33.2013 163.063 32.4835 163.063 31.5475C163.063 30.6406 162.935 29.9663 162.679 29.5246C162.423 29.0769 162.054 28.8531 161.572 28.8531Z" fill="white"/>
<path d="M167.433 29.7421C167.433 30.7537 167.377 31.6635 167.267 32.4713C167.162 33.2735 166.999 33.8781 166.779 34.2851C166.546 34.7153 166.212 34.9303 165.776 34.9303C165.479 34.9303 165.256 34.9129 165.104 34.8779L165.026 34.0932C165.258 34.1166 165.479 34.1282 165.689 34.1282C165.805 34.1282 165.904 34.1019 165.985 34.0497C166.072 33.9972 166.148 33.9043 166.212 33.7706C166.398 33.4451 166.54 32.948 166.639 32.2796C166.744 31.611 166.796 30.71 166.796 29.5765V29.0534L165.75 28.94V28.3994H171.147V28.94L170.345 29.0534V34.2676L171.191 34.3548V34.8779H168.182V34.3548L169.08 34.2589L169.089 29.0534H167.433V29.7421Z" fill="white"/>
<path d="M174.552 34.9742C173.605 34.9742 172.896 34.6778 172.425 34.0848C171.954 33.492 171.718 32.6839 171.718 31.6607C171.718 30.9923 171.84 30.4052 172.085 29.8994C172.334 29.3939 172.683 29.0043 173.131 28.7311C173.579 28.4579 174.093 28.3213 174.674 28.3213C175.633 28.3213 176.351 28.6061 176.828 29.1757C177.31 29.7397 177.552 30.5303 177.552 31.5475C177.552 32.2218 177.424 32.8205 177.168 33.3438C176.918 33.861 176.566 34.2621 176.113 34.5471C175.659 34.8319 175.139 34.9742 174.552 34.9742ZM174.639 28.8531C174.163 28.8531 173.791 29.0885 173.523 29.5595C173.256 30.0304 173.122 30.7278 173.122 31.6522C173.122 32.5648 173.25 33.2594 173.506 33.7362C173.767 34.207 174.139 34.4424 174.622 34.4424C175.093 34.4424 175.462 34.1954 175.729 33.7012C175.997 33.2013 176.13 32.4835 176.13 31.5475C176.13 30.6406 176.002 29.9663 175.747 29.5246C175.491 29.0769 175.122 28.8531 174.639 28.8531Z" fill="white"/>
<path d="M181.564 31.4162C181.773 31.4687 181.971 31.5937 182.157 31.7913C182.349 31.983 182.515 32.1953 182.654 32.4278C182.799 32.6545 182.974 32.9539 183.177 33.326C183.334 33.6224 183.459 33.8462 183.552 33.9972C183.651 34.1485 183.741 34.2357 183.822 34.2589L184.145 34.3548V34.8779H182.767C182.622 34.8779 182.48 34.7675 182.34 34.5467C182.206 34.3257 182.029 33.98 181.808 33.5089C181.564 32.98 181.349 32.576 181.163 32.2971C180.983 32.018 180.791 31.8785 180.588 31.8785H180.178V34.2589L180.954 34.3636V34.8779H178.242V34.3548L178.913 34.2589V29.0534L178.242 28.94V28.3994H180.84V28.94L180.178 29.0534V31.3902H180.814L182.375 29.0534L181.721 28.94V28.3994H184.023V28.94L183.299 29.0534L181.564 31.4162Z" fill="white"/>
<path d="M187.331 34.9742C186.383 34.9742 185.674 34.6778 185.203 34.0848C184.732 33.492 184.497 32.6839 184.497 31.6607C184.497 30.9923 184.619 30.4052 184.863 29.8994C185.113 29.3939 185.462 29.0043 185.909 28.7311C186.357 28.4579 186.871 28.3213 187.452 28.3213C188.412 28.3213 189.13 28.6061 189.606 29.1757C190.089 29.7397 190.33 30.5303 190.33 31.5475C190.33 32.2218 190.202 32.8205 189.946 33.3438C189.696 33.861 189.345 34.2621 188.891 34.5471C188.438 34.8319 187.918 34.9742 187.331 34.9742ZM187.418 28.8531C186.941 28.8531 186.569 29.0885 186.301 29.5595C186.034 30.0304 185.9 30.7278 185.9 31.6522C185.9 32.5648 186.028 33.2594 186.284 33.7362C186.546 34.207 186.918 34.4424 187.4 34.4424C187.871 34.4424 188.24 34.1954 188.508 33.7012C188.775 33.2013 188.909 32.4835 188.909 31.5475C188.909 30.6406 188.781 29.9663 188.525 29.5246C188.269 29.0769 187.9 28.8531 187.418 28.8531Z" fill="white"/>
<path d="M191.692 29.0534L191.046 28.94V28.3994H193.697V28.94L192.965 29.0534V31.242H195.615V29.0534L194.944 28.94V28.3994H197.56V28.94L196.897 29.0534V34.2676L197.56 34.3548V34.8779H194.935V34.3548L195.615 34.2676V31.9045H192.965V34.2676L193.697 34.3548V34.8779H191.029V34.3548L191.692 34.2676V29.0534Z" fill="white"/>
<path d="M201.114 28.3994V28.94L200.311 29.0534V33.1166L200.896 32.1402L203.119 29.2626V29.0534L202.387 28.94V28.3994H205.055V28.94L204.383 29.0534V34.2676L205.081 34.3548V34.8779H202.387V34.3548L203.119 34.2676V30.152L202.596 31.0938L200.311 33.9972V34.2676L201.087 34.3548V34.8779H198.367V34.3548L199.056 34.2676V29.0534L198.384 28.94V28.3994H201.114Z" fill="white"/>
<path d="M206.539 29.0534L205.894 28.94V28.3994H208.544V28.94L207.812 29.0534V31.242H210.463V29.0534L209.791 28.94V28.3994H212.407V28.94L211.744 29.0534V34.2676L212.407 34.3548V34.8779H209.783V34.3548L210.463 34.2676V31.9045H207.812V34.2676L208.544 34.3548V34.8779H205.876V34.3548L206.539 34.2676V29.0534Z" fill="white"/>
<path d="M215.168 30.9804C215.447 30.9688 215.825 30.9629 216.301 30.9629C217.028 30.9629 217.577 31.1286 217.949 31.46C218.321 31.7913 218.507 32.2562 218.507 32.8552C218.507 33.291 218.405 33.6661 218.202 33.98C218.004 34.2938 217.728 34.5349 217.374 34.7037C217.025 34.8663 216.627 34.9478 216.179 34.9478C216.051 34.9478 215.807 34.936 215.447 34.9129C215.028 34.8897 214.7 34.8779 214.461 34.8779H213.206V34.3548L213.895 34.2676V29.0447L213.223 28.9227V28.3994H216.057V28.9227L215.168 29.0447V30.9804ZM221.865 28.3994V28.94L221.106 29.0534V34.2676L221.865 34.3636V34.8779H219.082V34.3548L219.823 34.2676V29.0534L219.073 28.94V28.3994H221.865ZM215.168 34.3199C215.365 34.3664 215.601 34.3898 215.874 34.3898C216.322 34.3898 216.653 34.2589 216.868 33.9972C217.083 33.7299 217.191 33.3725 217.191 32.9249C217.191 32.0064 216.769 31.5472 215.926 31.5472L215.168 31.5559V34.3199Z" fill="white"/>
<path d="M224.844 31.7129L223.064 29.0621L222.463 28.94V28.3994H225.316V28.94L224.573 29.0621L225.768 31.0414L226.997 29.0534L226.247 28.94V28.3994H228.49V28.94L227.781 29.0621L226.092 31.4337L227.991 34.2676L228.601 34.3548V34.8779H225.76V34.3548L226.492 34.2676L225.185 32.1314L223.928 34.2676L224.765 34.3548V34.8779H222.385V34.3548L223.117 34.2676L224.844 31.7129Z" fill="white"/>
</g>
<defs>
<clipPath id="clip0">
<rect width="235.41" height="40" fill="white"/>
</clipPath>
</defs>
</svg>
