<svg width="127" height="40" viewBox="0 0 127 40" fill="none" xmlns="http://www.w3.org/2000/svg">
<g clip-path="url(#clip0)">
<path d="M40.4995 30.9307C41.0728 30.9307 41.4273 30.5565 41.4273 29.9639V19.0485H41.5211L49.4335 30.3174C49.7671 30.7956 50.0069 30.9307 50.5177 30.9307C51.1849 30.9307 51.581 30.5461 51.581 29.9119V16.6055C51.581 16.0129 51.2265 15.6387 50.6532 15.6387C50.0799 15.6387 49.7254 16.0129 49.7254 16.6055V27.5625H49.6316L41.7296 16.2625C41.396 15.7842 41.1458 15.6387 40.6454 15.6387C39.9991 15.6387 39.5717 16.0753 39.5717 16.7302V29.9639C39.5717 30.5565 39.9261 30.9307 40.4995 30.9307Z" fill="white"/>
<path d="M55.4382 30.7861H63.0795C63.6112 30.7861 63.976 30.4431 63.976 29.9441C63.976 29.4451 63.6112 29.102 63.0795 29.102H56.3764V23.9458H62.7042C63.2254 23.9458 63.5903 23.6027 63.5903 23.1141C63.5903 22.6151 63.2254 22.2825 62.7042 22.2825H56.3764V17.4693H63.0795C63.6112 17.4693 63.976 17.1262 63.976 16.6272C63.976 16.1282 63.6112 15.7852 63.0795 15.7852H55.4382C54.8648 15.7852 54.4999 16.1594 54.4999 16.752V29.8193C54.4999 30.4119 54.8648 30.7861 55.4382 30.7861Z" fill="white"/>
<path d="M72.6491 31.0351C76.913 31.0351 79.5818 28.0515 79.5818 23.2903C79.5818 18.5291 76.913 15.5352 72.6491 15.5352C68.3857 15.5352 65.717 18.5291 65.717 23.2903C65.717 28.0515 68.3857 31.0351 72.6491 31.0351ZM72.6491 29.3094C69.5741 29.3094 67.6455 26.9808 67.6455 23.2903C67.6455 19.5895 69.5741 17.2608 72.6491 17.2608C75.7249 17.2608 77.6533 19.5895 77.6533 23.2903C77.6533 26.9808 75.7249 29.3094 72.6491 29.3094Z" fill="white"/>
<path d="M91.5705 30.9307C92.1642 30.9307 92.4772 30.702 92.7172 30.0782L97.7733 16.9693C97.8463 16.7718 97.8877 16.5951 97.8877 16.4495C97.8877 15.9818 97.4919 15.6387 96.9389 15.6387C96.4807 15.6387 96.2302 15.8258 96.0526 16.304L91.6014 28.5086H91.5389L87.0877 16.304C86.9207 15.8466 86.6393 15.6387 86.1909 15.6387C85.6281 15.6387 85.2526 15.961 85.2526 16.4495C85.2526 16.5951 85.2842 16.7614 85.3677 16.9693L90.4133 30.0679C90.6526 30.6917 90.9761 30.9307 91.5705 30.9307Z" fill="white"/>
<path d="M100.702 30.9307C101.276 30.9307 101.641 30.5565 101.641 29.9639V16.6055C101.641 16.0129 101.276 15.6387 100.702 15.6387C100.129 15.6387 99.7642 16.0129 99.7642 16.6055V29.9639C99.7642 30.5565 100.129 30.9307 100.702 30.9307Z" fill="white"/>
<path d="M109.303 30.9317C109.877 30.9317 110.241 30.5574 110.241 29.9649V17.4693H114.244C114.776 17.4693 115.14 17.1262 115.14 16.6272C115.14 16.1282 114.776 15.7852 114.244 15.7852H104.361C103.83 15.7852 103.465 16.1282 103.465 16.6272C103.465 17.1262 103.83 17.4693 104.361 17.4693H108.365V29.9649C108.365 30.5574 108.729 30.9317 109.303 30.9317Z" fill="white"/>
<path d="M114.932 30.9307C115.401 30.9307 115.672 30.7124 115.85 30.2134L117.173 26.4918H123.126L124.46 30.2134C124.638 30.7124 124.909 30.9307 125.378 30.9307C125.92 30.9307 126.316 30.5877 126.316 30.1095C126.316 29.9743 126.285 29.8184 126.201 29.5897L121.354 16.5327C121.124 15.9194 120.749 15.6387 120.176 15.6387C119.561 15.6387 119.175 15.9298 118.946 16.5431L114.109 29.5897C114.025 29.8184 113.994 29.9743 113.994 30.1095C113.994 30.5877 114.39 30.9307 114.932 30.9307ZM117.716 24.9013L120.124 18.0609H120.186L122.594 24.9013H117.716Z" fill="white"/>
<path d="M5.95457 38.1456C10.6222 36.5198 14.6744 36.3155 17.5107 32.0972C19.1474 29.6682 16.8987 24.4463 19.6457 22.877C20.9673 25.238 24.177 29.7517 21.3201 32.3814C20.1906 33.4212 19.6534 35.0381 18.3129 36.1593C15.657 38.3819 21.1913 38.1239 21.6985 39.925C20.1147 40.4283 17.9382 38.2015 16.0287 38.6569C15.4567 38.7938 16.7328 39.4848 16.6888 39.6904C16.6621 39.8143 13.334 38.7141 12.8264 38.8642C12.3829 38.9949 11.1364 41.3491 11.4477 38.5051C10.7855 38.078 8.87073 40.1544 7.69712 39.8398C7.88147 39.4306 9.05136 39.1816 9.06322 38.5906C7.72786 37.7226 5.45219 39.6262 4.03429 38.9801C3.90213 38.4126 5.9742 38.148 6.04602 38.1453" fill="white"/>
<path d="M21.8208 34.0445C21.7538 35.9971 32.2488 39.4396 32.2702 39.4165C31.4125 40.3914 27.7552 37.278 26.7686 38.5492C26.4076 39.0129 27.7415 39.2129 27.3813 39.4751C26.7797 39.9112 22.6019 37.6965 23.1938 39.1767C23.4411 39.7911 20.0856 38.2253 20.0682 38.2274C17.2217 37.8131 20.0079 34.4682 21.8208 33.959" fill="white"/>
<path d="M14.8509 21.9936C14.8013 21.1384 13.5048 20.2984 13.1116 20.1152C9.58689 18.4841 10.3913 15.8502 9.4125 12.8479C8.60766 10.3752 6.96134 8.80653 7.1424 6.10263C7.28493 3.98275 8.88085 1.94601 9.53615 0C9.62942 2.1354 7.39152 5.94394 8.27075 7.78435C8.93566 9.17635 10.1225 10.6242 10.8985 11.989C12.8506 15.4163 12.8877 10.0195 11.7126 8.65853C10.5376 7.29691 8.8457 4.90349 10.3358 3.29659C10.8219 4.19801 10.8667 5.49305 11.5338 6.62458C12.0813 7.54912 13.1153 8.17558 13.363 9.27846C14.1741 12.8521 16.7223 5.22157 17.3153 5.16361C17.6137 6.6063 16.509 9.45095 15.1259 10.3489C13.0446 11.702 13.8887 12.4126 12.9935 14.2765C12.5689 15.1617 13.7595 18.3804 14.6039 17.758C15.2418 17.2878 15.3073 14.4969 15.6564 13.6648C16.1173 12.5692 17.0255 11.9514 18.0613 11.3152C20.1011 10.0626 20.8875 8.32358 21.7586 6.26787C21.9241 6.30961 20.3559 11.2317 20.4458 11.1186C19.2426 12.6406 17.3872 13.2975 16.7841 15.2286C16.3435 16.6423 17.1539 18.1413 16.6645 19.4107C16.1751 20.6796 15.1478 21.0422 14.8509 21.9936Z" fill="white"/>
<path d="M15.585 32.9327C15.5813 32.9306 15.5783 32.9279 15.5754 32.9265C15.5476 32.9272 15.5221 32.932 15.4928 32.9327H15.585ZM28.6071 9.3201C28.3902 10.1912 27.3121 11.9278 26.4221 12.3414C26.2636 8.90515 28.854 6.90805 29.1669 3.80603C28.9011 4.74264 27.3636 7.2627 26.334 7.54831C25.7058 5.73101 24.1157 4.41112 24.1157 2.3623C24.1157 4.65915 25.5107 6.11116 25.5769 8.13926C25.628 9.65336 24.9316 10.808 25.2138 12.4387C25.3974 13.4999 26.0879 14.6507 25.1008 15.5625C24.8602 15.7856 23.1521 16.7464 23.3857 15.7829C23.6989 14.4879 22.5538 13.2367 22.8196 11.9202C23.0414 10.8173 23.3679 9.75133 23.4794 8.60122C23.0891 9.30803 20.3836 13.4726 22.0559 14.0832C22.385 14.5193 21.98 16.5567 21.0992 15.6718C20.2648 14.8356 20.3944 13.3836 20.4507 12.3614C20.2844 12.7934 18.5618 14.9557 18.7603 16.0779C18.9568 17.2004 17.4805 18.9381 17.1392 19.3417C16.2902 20.3483 15.816 21.9776 14.9701 22.8501C13.1635 24.7171 12.8528 31.4538 15.5754 32.9272C18.6051 32.7871 17.6771 26.9863 17.6001 25.6685C17.4535 23.115 19.9154 21.5585 20.0656 19.2209C20.6528 18.3516 22.6586 18.1753 23.4046 18.1498C27.3728 18.0132 26.7797 14.7228 27.9088 12.5815C29.4886 9.58438 32.5528 8.09133 32.5528 4.5843C32.5202 6.7918 29.0828 7.40586 28.6071 9.3201Z" fill="white"/>
<path d="M9.98975 16.9509C8.75179 15.4706 5.80976 15.0825 5.01492 13.5543C4.26451 12.1102 3.22532 10.841 1.91959 9.78919C-0.383475 7.93564 -0.254628 5.48633 0.458395 4.8457C-0.520067 6.86312 3.16942 11.1053 4.29005 10.9604C4.8698 8.9202 3.79619 7.48715 5.06526 5.60775C5.32663 5.82543 4.73653 8.79536 5.03788 9.5108C5.67168 11.0153 5.46361 13.0264 7.05221 13.96C9.91719 12.9319 9.83025 16.5883 9.89726 16.6094" fill="white"/>
<path d="M8.61453 19.6866C9.52639 19.6866 10.2656 18.9977 10.2656 18.148C10.2656 17.2982 9.52639 16.6094 8.61453 16.6094C7.7026 16.6094 6.96341 17.2982 6.96341 18.148C6.96341 18.9977 7.7026 19.6866 8.61453 19.6866Z" fill="white"/>
<path d="M7.33072 13.2763C8.03998 13.2763 8.61493 12.7405 8.61493 12.0795C8.61493 11.4186 8.03998 10.8828 7.33072 10.8828C6.62143 10.8828 6.04645 11.4186 6.04645 12.0795C6.04645 12.7405 6.62143 13.2763 7.33072 13.2763Z" fill="white"/>
<path d="M1.87291 13.1048C2.55683 13.1048 3.11127 12.5882 3.11127 11.9508C3.11127 11.3136 2.55683 10.7969 1.87291 10.7969C1.189 10.7969 0.634583 11.3136 0.634583 11.9508C0.634583 12.5882 1.189 13.1048 1.87291 13.1048Z" fill="white"/>
<path d="M15.4016 7.24927C15.4016 7.88681 14.8474 8.40358 14.1621 8.40358C13.4795 8.40358 12.9249 7.88681 12.9249 7.24927C12.9249 6.61316 13.4795 6.0957 14.1621 6.0957C14.8474 6.09605 15.4016 6.61351 15.4016 7.24927Z" fill="white"/>
<path d="M2.69789 7.03606C3.63494 7.03606 4.39457 6.32821 4.39457 5.45503C4.39457 4.58186 3.63494 3.87402 2.69789 3.87402C1.76085 3.87402 1.00122 4.58186 1.00122 5.45503C1.00122 6.32821 1.76085 7.03606 2.69789 7.03606Z" fill="white"/>
<path d="M28.5664 12.3C26.8775 15.3409 33.7441 11.3554 33.7441 11.3554C33.7441 11.3554 30.2556 9.25726 28.5664 12.3Z" fill="white"/>
<path d="M21.3244 18.8562C17.445 20.3183 26.5535 21.6167 26.5535 21.6167C26.5535 21.6167 25.2049 17.3922 21.3244 18.8562Z" fill="white"/>
<path d="M21.6895 8.67724C21.8958 11.0476 24.3654 6.34867 24.3654 6.34867C24.3654 6.34867 21.4834 6.309 21.6895 8.67724Z" fill="white"/>
<path d="M32.548 6.90446C31.6003 9.11299 36.0557 5.92748 36.0557 5.92748C36.0557 5.92748 33.492 4.69799 32.548 6.90446Z" fill="white"/>
<path d="M27.3475 5.85949C26.7133 8.29985 24.9678 3.01758 24.9678 3.01758C24.9678 3.01758 27.9817 3.41914 27.3475 5.85949Z" fill="white"/>
</g>
<defs>
<clipPath id="clip0">
<rect width="126.316" height="40" fill="white"/>
</clipPath>
</defs>
</svg>
