<svg width="340" height="464" viewBox="0 0 340 464" fill="none" xmlns="http://www.w3.org/2000/svg">
<g clip-path="url(#clip0)">
<rect width="340" height="464" rx="4" fill="#F5F5F5"/>
<path d="M63 340L221 -6.9064e-06L340 -1.21081e-05L340 451L63 340Z" fill="url(#paint0_linear)"/>
<path d="M0 187L340 325V464H0V187Z" fill="#2F2F2F"/>
<g clip-path="url(#clip1)">
<path d="M190.079 137.486C190.079 128.76 190.23 120.635 190.685 113.112L167.5 117.476V119.582L169.773 119.883C171.44 120.033 172.5 120.635 173.107 121.538C173.713 122.591 174.167 124.096 174.47 126.353C174.773 130.716 175.077 140.646 174.925 156.293C174.925 171.791 174.773 181.57 174.47 185.332C182.805 187.137 189.321 187.889 194.17 187.889C203.263 187.889 210.385 185.332 215.537 180.066C220.69 174.95 223.418 167.728 223.418 158.851C223.418 151.78 221.448 145.912 217.508 141.248C213.567 136.584 208.567 134.327 202.657 134.327C198.717 134.327 194.625 135.38 190.079 137.486ZM190.534 183.827C190.23 179.012 189.927 164.569 189.927 140.947C191.291 140.495 193.11 140.195 195.383 140.195C199.02 140.195 201.899 142 204.021 145.761C206.142 149.523 207.203 154.037 207.203 159.754C207.203 166.825 205.991 172.543 203.566 177.357C201.141 182.022 198.11 184.429 194.322 184.429C193.11 184.128 191.897 183.978 190.534 183.827ZM80.5161 114.617H19.9004V117.626L23.0827 117.927C25.5073 118.378 27.1742 119.281 28.235 120.635C29.2958 122.14 29.9019 124.547 30.0535 127.857C31.2658 144.106 31.2658 159.303 30.0535 173.295C29.7504 176.605 29.1443 179.012 28.235 180.517C27.1742 182.022 25.5073 182.924 23.0827 183.225L19.9004 183.677V186.686H58.9975V183.677L54.9059 183.376C52.4813 183.075 50.8144 182.022 49.7536 180.667C48.6928 179.163 48.0867 176.756 47.9351 173.445C47.4805 167.427 47.1774 160.506 47.1774 152.833L55.3605 152.983C59.7552 153.134 62.786 156.444 64.3013 163.064H67.3321V138.54H64.3013C62.786 145.009 59.9067 148.319 55.3605 148.47L47.1774 148.62C47.1774 135.079 47.4805 125.45 47.9351 119.582H59.9067C68.3929 119.582 74.1514 124.998 77.4853 135.831L81.1222 134.778L80.5161 114.617ZM73.3937 160.958C73.3937 168.781 75.6668 175.251 80.0614 180.367C84.4561 185.482 90.9723 187.889 99.1554 187.889C107.338 187.889 114.006 185.332 118.855 180.066C123.705 174.95 125.978 168.48 125.978 160.657C125.978 152.833 123.705 146.363 119.31 141.248C114.915 136.132 108.399 133.725 100.216 133.725C92.033 133.725 85.3653 136.283 80.5161 141.549C75.6668 146.664 73.3937 153.134 73.3937 160.958ZM107.187 143.805C109.005 148.169 109.763 153.886 109.763 160.807C109.763 176.756 106.429 184.579 99.9131 184.579C96.5792 184.579 94.003 182.322 92.1846 177.809C90.3661 173.295 89.6084 167.578 89.6084 160.807C89.6084 145.009 92.9423 137.185 99.4585 137.185C102.792 137.035 105.368 139.292 107.187 143.805ZM235.238 180.367C240.238 185.332 246.603 187.889 254.18 187.889C258.878 187.889 262.969 186.987 266.606 185.031C270.243 183.225 273.122 180.968 275.092 178.26L273.577 176.455C270.243 179.012 266.455 180.216 262.06 180.216C255.998 180.216 251.301 178.26 248.118 174.198C244.785 170.135 243.269 165.02 243.572 158.4H276.002C276.002 151.178 274.183 145.31 270.395 140.646C266.606 136.132 261.302 133.875 254.483 133.875C245.997 133.875 239.481 136.584 234.783 141.85C230.085 147.116 227.812 153.585 227.812 161.259C227.812 169.082 230.237 175.401 235.238 180.367ZM246.452 142.602C248.118 138.991 250.24 137.185 253.119 137.185C257.665 137.185 259.938 142.903 259.938 154.488L243.875 154.789C244.027 150.275 244.785 146.213 246.452 142.602ZM316.766 136.584C312.674 134.778 307.522 133.725 301.309 133.725C294.944 133.725 289.943 135.38 286.155 138.54C282.366 141.699 280.396 145.611 280.396 150.275C280.396 154.337 281.609 157.497 283.882 159.754C286.155 162.011 289.792 163.967 294.489 165.622C298.733 167.126 301.763 168.631 303.279 169.985C304.794 171.49 305.703 173.145 305.703 175.401C305.703 177.508 304.946 179.464 303.279 180.968C301.763 182.623 299.642 183.376 296.914 183.376C290.246 183.376 285.246 178.561 281.76 168.932L279.184 169.684L279.79 184.73C285.246 186.836 291.307 187.889 297.975 187.889C304.946 187.889 310.249 186.385 314.19 183.225C318.13 180.216 320.1 175.853 320.1 170.436C320.1 166.825 319.19 163.816 317.22 161.559C315.25 159.303 312.068 157.347 307.522 155.541C302.521 153.736 299.036 152.081 297.217 150.576C295.399 149.071 294.489 147.266 294.489 145.009C294.489 142.752 295.096 140.947 296.459 139.442C297.823 137.938 299.49 137.336 301.612 137.336C307.673 137.336 312.068 141.699 314.796 150.275L317.372 149.523L316.766 136.584ZM170.985 135.229C168.863 134.176 166.59 133.725 164.014 133.725C161.438 133.725 158.862 134.778 155.983 136.884C153.103 138.991 150.982 141.85 149.315 145.761L149.466 133.725L126.432 138.239V140.345L128.706 140.495C131.585 140.796 133.252 143.053 133.555 147.116C134.464 156.444 134.464 166.374 133.555 176.906C133.252 180.968 131.585 183.075 128.706 183.526L126.432 183.827V186.686H158.559V183.827L154.467 183.526C151.588 183.225 149.921 180.968 149.618 176.906C148.709 168.18 148.557 158.851 149.315 149.222C150.224 147.717 152.194 146.815 155.225 146.514C158.256 146.213 161.741 147.116 165.378 149.222L170.985 135.229Z" fill="black"/>
</g>
</g>
<defs>
<linearGradient id="paint0_linear" x1="63" y1="0" x2="63" y2="451" gradientUnits="userSpaceOnUse">
<stop stop-color="#FFD600"/>
<stop offset="1" stop-color="#AF9E72"/>
</linearGradient>
<clipPath id="clip0">
<rect width="340" height="464" rx="4" fill="white"/>
</clipPath>
<clipPath id="clip1">
<rect width="300" height="75" fill="white" transform="translate(20 113)"/>
</clipPath>
</defs>
</svg>
