<svg width="40" height="40" viewBox="0 0 40 40" fill="none" xmlns="http://www.w3.org/2000/svg">
<g clip-path="url(#clip0)">
<path d="M36.2347 15.8285L8.73401 0.647228C7.12441 -0.240052 5.21738 -0.215058 3.63527 0.72221C2.14314 1.60449 1.25336 3.13661 1.25336 4.82119V35.1787C1.25336 36.8657 2.14564 38.3979 3.63777 39.2801C4.45007 39.76 5.34735 40 6.24713 40C7.09941 40 7.9517 39.785 8.73651 39.3501L36.2372 24.1739C37.8093 23.3041 38.7491 21.7445 38.7466 19.9974C38.7466 18.2529 37.8068 16.6957 36.2347 15.8285ZM35.025 21.9869L7.52681 37.1632C6.69951 37.6181 5.71976 37.6056 4.90746 37.1257C4.17264 36.6933 3.75274 35.9835 3.75274 35.1787V4.82119C3.75274 4.01639 4.17264 3.30657 4.90246 2.87418C5.32235 2.62674 5.78474 2.50427 6.24713 2.50427C6.68452 2.50427 7.12191 2.61424 7.52431 2.83419L35.0275 18.0179C35.7873 18.4378 36.2447 19.1801 36.2447 19.9999C36.2447 20.8197 35.7898 21.5645 35.025 21.9869Z" fill="#2F2F2F"/>
<path d="M30.6061 25.4063L4.51255 1.33474C4.00518 0.869855 3.21537 0.899847 2.74549 1.40722C2.27811 1.9146 2.3081 2.7044 2.81547 3.17178L28.909 27.2408C29.149 27.4633 29.4539 27.5732 29.7563 27.5732C30.0937 27.5732 30.4286 27.4408 30.6761 27.1708C31.146 26.6635 31.1135 25.8737 30.6061 25.4063Z" fill="#2F2F2F"/>
<path d="M29.2139 12.0218C28.7265 11.5344 27.9342 11.5344 27.4469 12.0218L2.703 36.7631C2.21562 37.2505 2.21562 38.0428 2.703 38.5302C2.94794 38.7726 3.26786 38.8951 3.58778 38.8951C3.9077 38.8951 4.22762 38.7726 4.47006 38.5302L29.2139 13.7888C29.7013 13.3015 29.7013 12.5092 29.2139 12.0218Z" fill="#2F2F2F"/>
</g>
<defs>
<clipPath id="clip0">
<rect width="40" height="40" fill="white"/>
</clipPath>
</defs>
</svg>
