<svg width="80" height="80" viewBox="0 0 80 80" fill="none" xmlns="http://www.w3.org/2000/svg">
<path d="M60.797 31.6831H68.3594C69.6086 31.6831 70.625 30.6667 70.625 29.4175V24.0964C70.625 22.8472 69.6086 21.8308 68.3594 21.8308H60.797C59.5478 21.8308 58.5314 22.8472 58.5314 24.0964V29.4175C58.5314 30.6667 59.5477 31.6831 60.797 31.6831ZM60.8752 24.1745H68.2812V29.3394H60.8752V24.1745ZM80 14.4062V12.8406C80 11.3303 78.7733 10.1016 77.2656 10.1016H53.1605C51.6044 4.29125 46.2942 0 40 0C33.7058 0 28.3956 4.29125 26.8395 10.1016H18.198C17.5506 10.1016 17.0261 10.6263 17.0261 11.2734C17.0261 11.9206 17.5506 12.4453 18.198 12.4453H26.4286C26.3952 12.8336 26.3772 13.2261 26.3772 13.6228C26.3772 14.0195 26.3952 14.4119 26.4286 14.8002H2.73438C2.51891 14.8002 2.34375 14.6236 2.34375 14.4064V12.8406C2.34375 12.6227 2.51891 12.4453 2.73438 12.4453H12.7294C13.3767 12.4453 13.9013 11.9206 13.9013 11.2734C13.9013 10.6263 13.3767 10.1016 12.7294 10.1016H2.73438C1.22672 10.1016 0 11.3303 0 12.8406V14.4062C0 15.7827 1.02094 16.9217 2.34375 17.1125V72.9902C1.02094 73.1809 0 74.3202 0 75.6966V77.2623C0 78.7719 1.22672 80 2.73438 80H77.2656C78.7733 80 80 78.7719 80 77.2623V75.6966C80 74.3202 78.9791 73.1809 77.6562 72.9902V17.1125C78.9791 16.9217 80 15.7827 80 14.4062ZM40 2.34375C46.2194 2.34375 51.2791 7.40344 51.2791 13.6228C51.2791 19.8422 46.2194 24.9017 40 24.9017C33.7806 24.9017 28.7209 19.842 28.7209 13.6227C28.7209 7.40328 33.7806 2.34375 40 2.34375ZM48.6055 24.175H51.5V29.3391H44.0938V26.6166C45.7577 26.0912 47.2842 25.2545 48.6055 24.175ZM35.9062 26.6166V29.3391H28.5V24.175H31.3945C32.7158 25.2545 34.2423 26.0912 35.9062 26.6166ZM4.6875 17.1437H26.8395C27.3 18.8633 28.0891 20.4497 29.1355 21.8312H28.4219C27.1727 21.8312 26.1562 22.8477 26.1562 24.0969V29.4172C26.1562 30.6664 27.1727 31.6828 28.4219 31.6828H35.9844C37.2336 31.6828 38.25 30.6664 38.25 29.4172V27.1334C38.8231 27.2072 39.4072 27.2455 40 27.2455C40.5928 27.2455 41.1769 27.2072 41.75 27.1334V29.4172C41.75 30.6664 42.7664 31.6828 44.0156 31.6828H51.5781C52.8273 31.6828 53.8438 30.6664 53.8438 29.4172V24.0969C53.8438 22.8477 52.8273 21.8312 51.5781 21.8312H50.8645C51.9109 20.4497 52.7 18.8633 53.1605 17.1437H75.3125V72.9589H51.5002V65.0003C51.5002 64.3531 50.9756 63.8284 50.3283 63.8284C49.6809 63.8284 49.1564 64.3531 49.1564 65.0003V72.9589H41.1719V53.8972H49.1564V59.5316C49.1564 60.1788 49.6809 60.7034 50.3283 60.7034C50.9756 60.7034 51.5002 60.1788 51.5002 59.5316V53.8659C52.823 53.6753 53.8439 52.5375 53.8439 51.1628V49.6003C53.8439 48.0927 52.6172 46.8659 51.1095 46.8659H28.8905C27.3828 46.8659 26.1561 48.0927 26.1561 49.6003V51.1628C26.1561 52.5375 27.177 53.6755 28.4998 53.8659V72.9589H4.6875V17.1437ZM28.8905 51.5534C28.675 51.5534 28.4998 51.3781 28.4998 51.1628V49.6003C28.4998 49.385 28.675 49.2097 28.8905 49.2097H51.1094C51.3248 49.2097 51.5 49.385 51.5 49.6003V51.1628C51.5 51.3781 51.3248 51.5534 51.1094 51.5534H28.8905ZM38.8281 53.8972V72.9589H30.8436V53.8972H38.8281ZM77.6562 77.2623C77.6562 77.4795 77.4811 77.6562 77.2656 77.6562H2.73438C2.51891 77.6562 2.34375 77.4795 2.34375 77.2623V75.6966C2.34375 75.4794 2.51891 75.3027 2.73438 75.3027H77.2656C77.4811 75.3027 77.6562 75.4794 77.6562 75.6966V77.2623ZM77.2656 14.8H53.5712C53.6047 14.4119 53.6227 14.0194 53.6227 13.6227C53.6227 13.2259 53.6047 12.8334 53.5712 12.4452H77.2656C77.4811 12.4452 77.6562 12.6225 77.6562 12.8405V14.4062C77.6562 14.6234 77.4811 14.8 77.2656 14.8ZM36.4844 17.1384V20.0348C36.4844 21.2841 37.5008 22.3005 38.75 22.3005H41.25C42.4992 22.3005 43.5156 21.2841 43.5156 20.0348V17.1384H46.412C47.6612 17.1384 48.6777 16.122 48.6777 14.8728V12.3728C48.6777 11.1236 47.6612 10.1072 46.412 10.1072H43.5156V7.21078C43.5156 5.96156 42.4992 4.94516 41.25 4.94516H38.75C37.5008 4.94516 36.4844 5.96156 36.4844 7.21078V10.1072H33.588C32.3387 10.1072 31.3223 11.1236 31.3223 12.3728V14.8728C31.3223 16.122 32.3387 17.1384 33.588 17.1384H36.4844ZM33.6661 12.4509H37.1875C38.0922 12.4509 38.8281 11.715 38.8281 10.8103V7.28891H41.1719V10.8103C41.1719 11.715 41.9078 12.4509 42.8125 12.4509H46.3339V14.7947H42.8125C41.9078 14.7947 41.1719 15.5306 41.1719 16.4353V19.9567H38.8281V16.4353C38.8281 15.5306 38.0922 14.7947 37.1875 14.7947H33.6661V12.4509ZM28.4217 43.8792H35.9841C37.2333 43.8792 38.2497 42.8628 38.2497 41.6136V36.2925C38.2497 35.0433 37.2333 34.0269 35.9841 34.0269H28.4217C27.1725 34.0269 26.1561 35.0433 26.1561 36.2925V41.6136C26.1561 42.8628 27.1725 43.8792 28.4217 43.8792ZM28.4998 36.3706H35.9059V41.5355H28.4998V36.3706ZM60.797 43.8792H68.3594C69.6086 43.8792 70.625 42.8628 70.625 41.6136V36.2925C70.625 35.0433 69.6086 34.0269 68.3594 34.0269H60.797C59.5478 34.0269 58.5314 35.0433 58.5314 36.2925V41.6136C58.5314 42.8628 59.5477 43.8792 60.797 43.8792ZM60.8752 36.3706H68.2812V41.5355H60.8752V36.3706ZM19.203 34.0269H11.6406C10.3914 34.0269 9.375 35.0433 9.375 36.2925V41.6136C9.375 42.8628 10.3914 43.8792 11.6406 43.8792H19.203C20.4522 43.8792 21.4686 42.8628 21.4686 41.6136V36.2925C21.4686 35.0433 20.4523 34.0269 19.203 34.0269ZM19.1248 41.5355H11.7188V36.3706H19.1248V41.5355ZM19.203 58.4191H11.6406C10.3914 58.4191 9.375 59.4355 9.375 60.6847V66.0058C9.375 67.255 10.3914 68.2714 11.6406 68.2714H19.203C20.4522 68.2714 21.4686 67.255 21.4686 66.0058V60.6847C21.4686 59.4355 20.4523 58.4191 19.203 58.4191ZM19.1248 65.9277H11.7188V60.7628H19.1248V65.9277ZM44.0158 43.8792H51.5781C52.8273 43.8792 53.8438 42.8628 53.8438 41.6136V36.2925C53.8438 35.0433 52.8273 34.0269 51.5781 34.0269H44.0158C42.7666 34.0269 41.7502 35.0433 41.7502 36.2925V41.6136C41.7502 42.8628 42.7666 43.8792 44.0158 43.8792ZM44.0939 36.3706H51.5V41.5355H44.0939V36.3706ZM19.203 46.223H11.6406C10.3914 46.223 9.375 47.2394 9.375 48.4886V53.8097C9.375 55.0589 10.3914 56.0753 11.6406 56.0753H19.203C20.4522 56.0753 21.4686 55.0589 21.4686 53.8097V48.4886C21.4686 47.2394 20.4523 46.223 19.203 46.223ZM19.1248 53.7316H11.7188V48.5667H19.1248V53.7316ZM60.797 68.2714H68.3594C69.6086 68.2714 70.625 67.255 70.625 66.0058V60.6847C70.625 59.4355 69.6086 58.4191 68.3594 58.4191H60.797C59.5478 58.4191 58.5314 59.4355 58.5314 60.6847V66.0058C58.5314 67.255 59.5477 68.2714 60.797 68.2714ZM60.8752 60.7628H68.2812V65.9277H60.8752V60.7628ZM60.797 56.0753H68.3594C69.6086 56.0753 70.625 55.0589 70.625 53.8097V48.4886C70.625 47.2394 69.6086 46.223 68.3594 46.223H60.797C59.5478 46.223 58.5314 47.2394 58.5314 48.4886V53.8097C58.5314 55.0589 59.5477 56.0753 60.797 56.0753ZM60.8752 48.5667H68.2812V53.7316H60.8752V48.5667ZM19.203 21.8308H11.6406C10.3914 21.8308 9.375 22.8472 9.375 24.0964V29.4175C9.375 30.6667 10.3914 31.6831 11.6406 31.6831H19.203C20.4522 31.6831 21.4686 30.6667 21.4686 29.4175V24.0964C21.4686 22.8472 20.4523 21.8308 19.203 21.8308ZM19.1248 29.3394H11.7188V24.1745H19.1248V29.3394Z" fill="url(#paint0_linear)"/>
<defs>
<linearGradient id="paint0_linear" x1="80" y1="0" x2="0" y2="0" gradientUnits="userSpaceOnUse">
<stop stop-color="#FFD600"/>
<stop offset="1" stop-color="#AF9E72"/>
</linearGradient>
</defs>
</svg>
