<svg width="80" height="80" viewBox="0 0 80 80" fill="none" xmlns="http://www.w3.org/2000/svg">
<g clip-path="url(#clip0)">
<path d="M40 7.66059C40.6521 7.66059 41.1807 7.13196 41.1807 6.47991V1.18068C41.1807 0.528632 40.6521 0 40 0C39.3478 0 38.8193 0.528632 38.8193 1.18068V6.47991C38.8193 7.13196 39.3478 7.66059 40 7.66059Z" fill="url(#paint0_linear)"/>
<path d="M60.5677 9.21106L56.8205 12.9582C56.3594 13.4193 56.3594 14.1669 56.8205 14.6279C57.0511 14.8583 57.3534 14.9737 57.6555 14.9737C57.9576 14.9737 58.2598 14.8585 58.4904 14.6279L62.2376 10.8807C62.6987 10.4196 62.6987 9.672 62.2376 9.21106C61.7764 8.75012 61.0289 8.75012 60.5677 9.21106Z" fill="url(#paint1_linear)"/>
<path d="M21.5095 48.2692L17.7624 52.0163C17.3013 52.4774 17.3013 53.225 17.7624 53.686C17.9928 53.9164 18.2951 54.0318 18.5972 54.0318C18.8993 54.0318 19.2015 53.9166 19.432 53.686L23.1792 49.9388C23.6403 49.4777 23.6403 48.7301 23.1792 48.2692C22.7182 47.8081 21.9706 47.8081 21.5095 48.2692Z" fill="url(#paint2_linear)"/>
<path d="M21.5095 14.6279C21.74 14.8583 22.0423 14.9737 22.3444 14.9737C22.6465 14.9737 22.9487 14.8585 23.1792 14.6279C23.6403 14.1668 23.6403 13.4192 23.1792 12.9582L19.432 9.21106C18.9709 8.74996 18.2233 8.74996 17.7624 9.21106C17.3013 9.67215 17.3013 10.4198 17.7624 10.8807L21.5095 14.6279Z" fill="url(#paint3_linear)"/>
<path d="M58.4905 48.2692C58.0292 47.8081 57.2817 47.8081 56.8206 48.2692C56.3595 48.7303 56.3595 49.4779 56.8206 49.9388L60.5678 53.686C60.7985 53.9164 61.1007 54.0318 61.4028 54.0318C61.7049 54.0318 62.0072 53.9166 62.2378 53.686C62.6989 53.2249 62.6989 52.4773 62.2378 52.0163L58.4905 48.2692Z" fill="url(#paint4_linear)"/>
<path d="M15.0314 30.2678H9.73198C9.07993 30.2678 8.5513 30.7965 8.5513 31.4485C8.5513 32.1006 9.07993 32.6292 9.73198 32.6292H15.0312C15.6833 32.6292 16.2119 32.1006 16.2119 31.4485C16.2121 30.7965 15.6834 30.2678 15.0314 30.2678Z" fill="url(#paint5_linear)"/>
<path d="M70.2679 30.2678H64.9686C64.3164 30.2678 63.7879 30.7965 63.7879 31.4485C63.7879 32.1006 64.3164 32.6292 64.9686 32.6292H70.2679C70.9201 32.6292 71.4485 32.1006 71.4485 31.4485C71.4485 30.7965 70.9201 30.2678 70.2679 30.2678Z" fill="url(#paint6_linear)"/>
<path d="M49.4917 63.7884C50.144 63.7884 50.6724 63.2598 50.6724 62.6078C50.6724 61.9557 50.144 61.4271 49.4917 61.4271H49.0651V57.4364L49.0876 57.3021C49.3287 55.8607 49.7614 54.45 50.374 53.1094C50.6449 52.5162 50.3836 51.8158 49.7905 51.5449C49.1974 51.2738 48.4968 51.5351 48.2261 52.1283C47.6349 53.4225 47.1922 54.7749 46.9027 56.1578H33.0606C32.2324 52.1329 30.1542 48.4698 27.1556 45.7808C23.6132 42.6043 21.3801 38.2627 20.8679 33.556C20.7973 32.9077 20.215 32.4397 19.5663 32.5099C18.918 32.5804 18.4497 33.1632 18.5204 33.8115C19.0957 39.0978 21.6026 43.9729 25.5791 47.5388C28.3567 50.0295 30.2343 53.482 30.8662 57.2599L30.8958 57.4365V61.4271H30.5086C29.8565 61.4271 29.3279 61.9557 29.3279 62.6078C29.3279 63.2598 29.8565 63.7884 30.5086 63.7884H30.8958V66.6965H30.5086C29.8565 66.6965 29.3279 67.2252 29.3279 67.8772C29.3279 68.5293 29.8565 69.0579 30.5086 69.0579H30.8958V71.0824C30.8958 72.4797 31.7853 73.67 33.0262 74.126C33.198 76.5904 34.6424 78.7638 36.8822 79.8766C37.051 79.9605 37.2301 80.0002 37.4066 80.0002C37.8408 80.0002 38.2586 79.7598 38.4649 79.3445C38.7551 78.7605 38.5169 78.0519 37.9329 77.7618C36.5642 77.0817 35.6458 75.8029 35.4237 74.3274H44.5376C44.3156 75.8029 43.3972 77.0817 42.0286 77.7616C41.4445 78.0517 41.2063 78.7605 41.4965 79.3444C41.7027 79.7595 42.1207 79.9999 42.5548 79.9999C42.7313 79.9999 42.9106 79.9602 43.0792 79.8763C45.3191 78.7635 46.7633 76.59 46.935 74.1259C48.1762 73.6698 49.0654 72.4795 49.0654 71.0822V69.0578H49.4921C50.1443 69.0578 50.6727 68.5291 50.6727 67.8771C50.6727 67.225 50.1443 66.6964 49.4921 66.6964H49.0654V63.7884H49.4917ZM33.2567 58.519H46.7036V61.4271H33.2567V58.519ZM46.7038 71.0822C46.7038 71.5695 46.3074 71.9659 45.8201 71.9659H34.1405C33.6533 71.9659 33.2569 71.5695 33.2569 71.0822V69.0578H46.7038V71.0822ZM46.7038 66.6964H33.2569V63.7884H46.7038V66.6964Z" fill="url(#paint7_linear)"/>
<path d="M40 37.5045C43.3393 37.5045 46.056 34.7878 46.056 31.4485C46.056 28.1093 43.3393 25.3926 40 25.3926C36.6607 25.3926 33.944 28.1093 33.944 31.4485C33.944 34.7878 36.6607 37.5045 40 37.5045ZM40 27.7539C42.0371 27.7539 43.6946 29.4113 43.6946 31.4485C43.6946 33.4858 42.0372 35.1431 40 35.1431C37.9628 35.1431 36.3054 33.4858 36.3054 31.4485C36.3054 29.4113 37.9628 27.7539 40 27.7539Z" fill="url(#paint8_linear)"/>
<path d="M26.989 27.7663C25.9039 27.7663 25.0212 28.649 25.0212 29.7341V33.1628C25.0212 34.248 25.9039 35.1306 26.989 35.1306H29.3457C29.4929 35.5561 29.6656 35.9727 29.8631 36.3781L28.1962 38.045C27.4289 38.8123 27.4289 40.0607 28.1962 40.8278L30.6205 43.2522C31.3878 44.0194 32.6362 44.0194 33.4035 43.2522L35.0704 41.5854C35.4758 41.7829 35.8923 41.9556 36.3179 42.1028V44.4594C36.3179 45.5446 37.2005 46.4273 38.2857 46.4273H41.7142C42.7993 46.4273 43.682 45.5446 43.682 44.4594V42.1028C44.1075 41.9556 44.5241 41.7829 44.9295 41.5854L46.5964 43.2522C46.9679 43.6238 47.4622 43.8286 47.9879 43.8286C48.5135 43.8286 49.0077 43.624 49.3795 43.2523L51.8039 40.8278C52.5708 40.0605 52.5708 38.8123 51.8039 38.045L50.1369 36.3781C50.3345 35.9727 50.5073 35.5561 50.6542 35.1306H53.011C54.0961 35.1306 54.9788 34.248 54.9788 33.1628V29.7341C54.9788 28.649 54.0961 27.7663 53.011 27.7663H50.6542C50.5072 27.3408 50.3345 26.9244 50.1369 26.5189L51.8039 24.8519C52.5708 24.0846 52.5708 22.8364 51.8039 22.0691L49.3794 19.6446C49.0077 19.2731 48.5135 19.0685 47.9879 19.0685C47.4622 19.0685 46.9681 19.2731 46.5964 19.6448L44.9295 21.3118C44.5241 21.1142 44.1075 20.9413 43.682 20.7943V18.4377C43.682 17.3525 42.7993 16.4698 41.7142 16.4698H38.2857C37.2005 16.4698 36.3179 17.3525 36.3179 18.4377V20.7943C35.8923 20.9413 35.4758 21.1142 35.0704 21.3118L33.4035 19.6448C32.6362 18.8775 31.3878 18.8775 30.6205 19.6448L28.1962 22.0691C27.4289 22.8364 27.4289 24.0848 28.1962 24.8521L29.8631 26.519C29.6656 26.9244 29.4927 27.341 29.3455 27.7665H26.989V27.7663ZM32.1538 25.4701L30.1441 23.4606L32.012 21.5928L34.0215 23.6024C34.4034 23.984 34.9949 24.0583 35.4593 23.7827C36.1888 23.3496 36.9731 23.0242 37.7904 22.8158C38.3134 22.6824 38.6792 22.2114 38.6792 21.6716V18.8311H41.3206V21.6716C41.3206 22.2113 41.6865 22.6823 42.2096 22.8158C43.0268 23.0242 43.8113 23.3495 44.5408 23.7827C45.005 24.0585 45.5968 23.9839 45.9785 23.6024L47.988 21.5928L49.8559 23.4606L47.8462 25.4703C47.4646 25.8519 47.3903 26.4439 47.666 26.908C48.099 27.6374 48.4243 28.4217 48.6327 29.2389C48.766 29.7618 49.2371 30.1278 49.7769 30.1278H52.6176V32.7694H49.7769C49.2371 32.7694 48.7662 33.1354 48.6327 33.6584C48.4243 34.4757 48.099 35.2599 47.666 35.9892C47.3903 36.4533 47.4646 37.0452 47.8462 37.427L49.8559 39.4367L47.988 41.3045L45.9785 39.295C45.5966 38.9132 45.0049 38.8388 44.5408 39.1146C43.8114 39.5476 43.0271 39.8729 42.2096 40.0815C41.6867 40.2148 41.3206 40.6858 41.3206 41.2255V44.066H38.6792V41.2255C38.6792 40.6858 38.3134 40.2148 37.7904 40.0815C36.9731 39.8729 36.1886 39.5475 35.4593 39.1146C34.995 38.8389 34.4034 38.9134 34.0215 39.295L32.012 41.3045L30.1441 39.4367L32.1537 37.427C32.5354 37.0454 32.6096 36.4533 32.3341 35.9892C31.901 35.26 31.5758 34.4757 31.367 33.6582C31.2337 33.1353 30.7627 32.7694 30.223 32.7694H27.3824V30.1278H30.223C30.7627 30.1278 31.2337 29.762 31.367 29.239C31.5756 28.4217 31.901 27.6372 32.3341 26.9079C32.6097 26.4436 32.5354 25.8517 32.1538 25.4701Z" fill="url(#paint9_linear)"/>
<path d="M55.3689 16.26C51.3491 12.193 45.9884 9.91376 40.2744 9.8426C34.9789 9.779 29.8441 11.6916 25.8079 15.2344C21.8082 18.7453 19.2366 23.5362 18.567 28.7246C18.4835 29.3713 18.9402 29.9632 19.5869 30.0466C20.2331 30.1301 20.8255 29.6734 20.909 29.0267C21.505 24.4085 23.798 20.1405 27.3656 17.009C30.9626 13.8516 35.5417 12.1426 40.2448 12.2037C45.334 12.2671 50.1087 14.2971 53.6892 17.9197C57.2728 21.5455 59.2462 26.3501 59.2462 31.4483C59.2462 36.8571 56.9494 42.0479 52.945 45.6894C52.3284 46.2503 51.7418 46.8537 51.2017 47.4833C50.7771 47.9782 50.834 48.7235 51.3289 49.1482C51.5515 49.3393 51.8249 49.433 52.0971 49.433C52.4296 49.433 52.7602 49.2933 52.9937 49.0212C53.4707 48.4653 53.9889 47.9321 54.5337 47.4365C59.0295 43.3482 61.6078 37.5208 61.6078 31.4483C61.6076 25.7247 59.392 20.3307 55.3689 16.26Z" fill="url(#paint10_linear)"/>
</g>
<defs>
<linearGradient id="paint0_linear" x1="41.1807" y1="0" x2="38.8193" y2="0" gradientUnits="userSpaceOnUse">
<stop stop-color="#FFD600"/>
<stop offset="1" stop-color="#AF9E72"/>
</linearGradient>
<linearGradient id="paint1_linear" x1="62.5834" y1="8.86536" x2="56.4747" y2="8.86536" gradientUnits="userSpaceOnUse">
<stop stop-color="#FFD600"/>
<stop offset="1" stop-color="#AF9E72"/>
</linearGradient>
<linearGradient id="paint2_linear" x1="23.525" y1="47.9233" x2="17.4165" y2="47.9233" gradientUnits="userSpaceOnUse">
<stop stop-color="#FFD600"/>
<stop offset="1" stop-color="#AF9E72"/>
</linearGradient>
<linearGradient id="paint3_linear" x1="23.525" y1="8.86523" x2="17.4165" y2="8.86523" gradientUnits="userSpaceOnUse">
<stop stop-color="#FFD600"/>
<stop offset="1" stop-color="#AF9E72"/>
</linearGradient>
<linearGradient id="paint4_linear" x1="62.5836" y1="47.9233" x2="56.4748" y2="47.9233" gradientUnits="userSpaceOnUse">
<stop stop-color="#FFD600"/>
<stop offset="1" stop-color="#AF9E72"/>
</linearGradient>
<linearGradient id="paint5_linear" x1="16.2119" y1="30.2678" x2="8.5513" y2="30.2678" gradientUnits="userSpaceOnUse">
<stop stop-color="#FFD600"/>
<stop offset="1" stop-color="#AF9E72"/>
</linearGradient>
<linearGradient id="paint6_linear" x1="71.4485" y1="30.2678" x2="63.7879" y2="30.2678" gradientUnits="userSpaceOnUse">
<stop stop-color="#FFD600"/>
<stop offset="1" stop-color="#AF9E72"/>
</linearGradient>
<linearGradient id="paint7_linear" x1="50.6727" y1="32.5029" x2="18.5133" y2="32.5029" gradientUnits="userSpaceOnUse">
<stop stop-color="#FFD600"/>
<stop offset="1" stop-color="#AF9E72"/>
</linearGradient>
<linearGradient id="paint8_linear" x1="46.056" y1="25.3926" x2="33.944" y2="25.3926" gradientUnits="userSpaceOnUse">
<stop stop-color="#FFD600"/>
<stop offset="1" stop-color="#AF9E72"/>
</linearGradient>
<linearGradient id="paint9_linear" x1="54.9788" y1="16.4698" x2="25.0212" y2="16.4698" gradientUnits="userSpaceOnUse">
<stop stop-color="#FFD600"/>
<stop offset="1" stop-color="#AF9E72"/>
</linearGradient>
<linearGradient id="paint10_linear" x1="61.6078" y1="9.84106" x2="18.5571" y2="9.84106" gradientUnits="userSpaceOnUse">
<stop stop-color="#FFD600"/>
<stop offset="1" stop-color="#AF9E72"/>
</linearGradient>
<clipPath id="clip0">
<rect width="80" height="80" fill="white"/>
</clipPath>
</defs>
</svg>
