<svg width="33" height="32" viewBox="0 0 33 32" fill="none" xmlns="http://www.w3.org/2000/svg">
<g clip-path="url(#clip0)">
<path d="M32.302 9.40809C32.2271 7.7078 31.9521 6.53888 31.5582 5.52598C31.1519 4.45082 30.5268 3.48823 29.7078 2.68802C28.9076 1.87537 27.9386 1.2439 26.8759 0.843915C25.8572 0.450039 24.6944 0.175083 22.9941 0.100117C21.2811 0.0188025 20.7373 0 16.3927 0C12.0481 0 11.5043 0.0188025 9.79766 0.0937683C8.09738 0.168734 6.92845 0.443934 5.91581 0.837566C4.8404 1.2439 3.87781 1.86902 3.07761 2.68802C2.26495 3.48823 1.63373 4.45717 1.2335 5.51988C0.839626 6.53888 0.56467 7.70146 0.489704 9.40174C0.40839 11.1147 0.389587 11.6585 0.389587 16.0031C0.389587 20.3477 0.40839 20.8915 0.483356 22.5982C0.558321 24.2984 0.833521 25.4674 1.2274 26.4803C1.63373 27.5554 2.26495 28.518 3.07761 29.3182C3.87781 30.1309 4.84675 30.7624 5.90946 31.1623C6.92845 31.5562 8.09103 31.8312 9.79156 31.9061C11.4979 31.9813 12.042 31.9999 16.3866 31.9999C20.7312 31.9999 21.275 31.9813 22.9816 31.9061C24.6819 31.8312 25.8508 31.5562 26.8635 31.1623C29.014 30.3309 30.7143 28.6306 31.5458 26.4803C31.9394 25.4613 32.2146 24.2984 32.2896 22.5982C32.3645 20.8915 32.3833 20.3477 32.3833 16.0031C32.3833 11.6585 32.377 11.1147 32.302 9.40809ZM29.4204 22.4731C29.3515 24.0359 29.089 24.8799 28.8702 25.4425C28.3325 26.8365 27.2261 27.943 25.832 28.4807C25.2694 28.6995 24.4194 28.962 22.8627 29.0306C21.1749 29.1058 20.6687 29.1243 16.399 29.1243C12.1294 29.1243 11.6169 29.1058 9.93514 29.0306C8.37234 28.962 7.52842 28.6995 6.96582 28.4807C6.27208 28.2243 5.64061 27.8179 5.12806 27.2866C4.5967 26.7677 4.19037 26.1426 3.93398 25.4488C3.71518 24.8862 3.45268 24.0359 3.38407 22.4795C3.30886 20.7917 3.2903 20.2852 3.2903 16.0156C3.2903 11.7459 3.30886 11.2334 3.38407 9.55192C3.45268 7.98911 3.71518 7.14519 3.93398 6.58258C4.19037 5.8886 4.5967 5.25737 5.13441 4.74458C5.65306 4.21323 6.27818 3.8069 6.97216 3.55074C7.53477 3.33195 8.38504 3.06945 9.94149 3.00059C11.6293 2.92562 12.1358 2.90682 16.4051 2.90682C20.6811 2.90682 21.1873 2.92562 22.869 3.00059C24.4319 3.06945 25.2758 3.33195 25.8384 3.55074C26.5321 3.8069 27.1636 4.21323 27.6761 4.74458C28.2075 5.26348 28.6138 5.8886 28.8702 6.58258C29.089 7.14519 29.3515 7.99521 29.4204 9.55192C29.4953 11.2397 29.5141 11.7459 29.5141 16.0156C29.5141 20.2852 29.4953 20.7853 29.4204 22.4731Z" fill="white"/>
<path d="M16.3927 7.7832C11.8545 7.7832 8.17236 11.4651 8.17236 16.0036C8.17236 20.5421 11.8545 24.2239 16.3927 24.2239C20.9312 24.2239 24.6131 20.5421 24.6131 16.0036C24.6131 11.4651 20.9312 7.7832 16.3927 7.7832ZM16.3927 21.3359C13.4485 21.3359 11.0604 18.948 11.0604 16.0036C11.0604 13.0591 13.4485 10.6712 16.3927 10.6712C19.3371 10.6712 21.7251 13.0591 21.7251 16.0036C21.7251 18.948 19.3371 21.3359 16.3927 21.3359Z" fill="white"/>
<path d="M26.8573 7.45814C26.8573 8.51792 25.998 9.37722 24.9379 9.37722C23.8782 9.37722 23.0189 8.51792 23.0189 7.45814C23.0189 6.39812 23.8782 5.53906 24.9379 5.53906C25.998 5.53906 26.8573 6.39812 26.8573 7.45814Z" fill="white"/>
</g>
<defs>
<clipPath id="clip0">
<rect width="32" height="32" fill="white" transform="translate(0.333313)"/>
</clipPath>
</defs>
</svg>
