<svg width="340" height="464" viewBox="0 0 340 464" fill="none" xmlns="http://www.w3.org/2000/svg">
<g clip-path="url(#clip0)">
<rect width="340" height="464" rx="4" fill="#EDEDED"/>
<path d="M63 340L221 -6.9064e-06L340 -1.21081e-05L340 451L63 340Z" fill="url(#paint0_linear)"/>
<path d="M0 187L340 325V464H0V187Z" fill="#2F2F2F"/>
<g clip-path="url(#clip1)">
<path d="M20 185.956H320V115H20V185.956Z" fill="#0D3A63"/>
<path d="M220.307 123.401C220.307 122.612 220.307 122.563 221.211 122.563C222.691 122.563 223.562 123.746 223.562 125.095C223.562 126.706 222.789 127.528 221.129 127.528C220.307 127.528 220.307 127.528 220.307 126.952V123.401ZM218.334 130.733C218.334 132.525 218.17 132.575 217.381 132.69H217.002C216.838 132.854 216.838 133.117 217.002 133.183H219.304H221.573C221.737 133.183 221.737 132.805 221.573 132.69H221.195C220.389 132.525 220.241 132.525 220.241 130.733V128.547C220.241 128.185 220.241 128.169 220.767 128.169C221.326 128.169 221.523 128.169 221.819 128.744C222.23 129.418 222.707 130.355 223.167 131.062C224.203 132.657 225.091 133.315 226.735 133.315C227.327 133.315 227.656 133.315 227.853 133.15V132.805C227.639 132.805 227.146 132.641 226.669 132.279C225.88 131.621 225.025 130.158 223.661 127.873C223.661 127.709 223.496 127.626 223.661 127.577C224.499 127.232 225.716 126.459 225.716 124.881C225.716 123.664 225.075 122.859 224.203 122.398C223.463 121.987 222.296 121.823 220.981 121.823C219.584 121.823 218.137 121.823 217.052 121.987C216.887 122.152 216.887 122.349 217.052 122.464H217.496C218.301 122.629 218.318 122.76 218.318 124.388V130.635L218.334 130.733ZM208.897 130.733C208.897 132.525 208.733 132.575 207.944 132.673H207.319C207.155 132.838 207.155 133.101 207.319 133.167H209.867H211.807H216.016C216.263 132.706 216.641 131.408 216.739 130.701C216.575 130.52 216.345 130.47 216.18 130.536C215.589 131.917 215.227 132.41 213.057 132.378C211.627 132.378 211.331 132.213 211.133 131.999C210.87 131.72 210.837 131.112 210.837 130.24V128.07C210.837 127.643 210.837 127.61 211.248 127.61H212.07C213.55 127.61 213.829 127.61 213.961 128.366L214.125 129.04C214.29 129.205 214.586 129.205 214.668 129.04V127.248V125.555C214.504 125.39 214.273 125.39 214.125 125.555L213.961 126.147C213.797 126.87 213.55 126.887 212.07 126.887H211.248C210.854 126.887 210.837 126.887 210.837 126.426V123.549C210.837 122.579 210.837 122.546 211.577 122.546H212.712C213.172 122.546 213.682 122.546 214.076 122.711C214.619 122.875 214.882 123.286 215.145 124.273C215.309 124.437 215.621 124.273 215.687 124.273C215.523 123.533 215.49 122.185 215.424 121.889H213.123H209.867H207.681C207.516 121.889 207.516 122.267 207.681 122.382H207.944C208.749 122.546 208.897 122.546 208.897 124.355V130.701V130.733ZM206.053 132.657C205.511 132.493 205.33 132.46 205.281 131.325C205.116 128.81 205.116 126.278 205.116 123.763C205.116 122.859 205.297 122.579 206.037 122.464L206.596 122.3C206.777 122.135 206.76 121.872 206.596 121.807H204.804H203.406C203.127 122.924 202.584 123.927 202.042 125.062L200.447 128.333C200.036 129.122 199.822 129.599 199.543 130.109C199.329 129.714 198.885 128.859 198.754 128.563L196.88 124.634C196.436 123.714 196.008 122.826 195.943 121.807H194.118H192.523C192.359 121.807 192.359 122.185 192.523 122.3L193.098 122.464C193.772 122.629 194.019 122.924 194.019 123.73C194.019 124.766 193.855 126.18 193.855 127.33C193.69 129.106 193.69 130.207 193.608 131.292C193.444 132.328 193.361 132.591 192.539 132.69H192.26C192.096 132.854 192.096 133.101 192.26 133.183H194.068H195.86C196.025 133.183 196.025 132.789 195.86 132.69L195.301 132.525C194.562 132.361 194.545 132.131 194.545 130.997V127.051C194.545 126.344 194.545 125.012 194.71 124.174C194.907 124.684 195.367 125.752 195.696 126.476L197.208 129.747C197.603 130.602 198.326 132.262 198.622 133.183H199.066C199.379 132.377 200.233 130.487 200.809 129.303L202.272 126.295C202.584 125.621 202.831 125.111 203.291 124.174V131.145C203.291 132.295 203.291 132.41 202.552 132.542L202.091 132.706C201.927 132.871 201.927 133.134 202.091 133.2H204.376H206.448C206.629 133.2 206.645 132.772 206.448 132.706L205.955 132.542L206.053 132.657ZM190.057 124.388C190.057 122.579 190.221 122.53 191.011 122.431H191.372C191.537 122.267 191.537 122.004 191.372 121.938H189.103H186.802C186.637 121.938 186.637 122.316 186.802 122.431H187.18C187.969 122.596 188.134 122.596 188.134 124.388V130.733C188.134 132.525 187.969 132.575 187.18 132.69H186.802C186.637 132.854 186.637 133.117 186.802 133.183H189.103H191.372C191.537 133.183 191.537 132.805 191.372 132.69H191.011C190.205 132.525 190.057 132.525 190.057 130.733V124.388ZM178.648 130.733C178.648 132.525 178.483 132.575 177.694 132.673H177.069C176.905 132.838 176.905 133.101 177.069 133.167H179.618H181.557H185.766C186.013 132.706 186.374 131.408 186.49 130.701C186.325 130.52 186.095 130.47 185.947 130.536C185.339 131.917 184.977 132.41 182.807 132.378C181.377 132.378 181.081 132.213 180.883 131.999C180.637 131.72 180.587 131.112 180.587 130.24V128.07C180.587 127.643 180.587 127.61 180.999 127.61H181.821C183.3 127.61 183.596 127.61 183.711 128.366L183.876 129.04C184.04 129.205 184.352 129.205 184.434 129.04V127.248V125.555C184.434 125.39 184.023 125.39 183.876 125.555L183.711 126.147C183.547 126.87 183.3 126.887 181.821 126.887H180.999C180.62 126.887 180.587 126.887 180.587 126.426V123.549C180.587 122.579 180.587 122.546 181.327 122.546H182.462C182.922 122.546 183.432 122.546 183.826 122.711C184.369 122.875 184.632 123.286 184.895 124.273C185.059 124.437 185.388 124.273 185.454 124.273C185.289 123.533 185.24 122.185 185.174 121.889H182.873H179.618H177.431C177.267 122.053 177.267 122.267 177.431 122.382H177.71C178.516 122.546 178.664 122.546 178.664 124.355V130.684L178.648 130.733ZM172.137 127.725C173.009 127.725 173.058 127.725 173.058 128.218V130.733C173.058 132.525 172.893 132.575 172.104 132.69H171.726C171.562 132.854 171.562 133.117 171.726 133.183H174.028H176.297C176.461 133.183 176.461 132.805 176.297 132.69H175.919C175.129 132.525 174.965 132.525 174.965 130.733V124.388C174.965 122.579 175.129 122.563 175.919 122.431H176.231C176.395 122.267 176.395 122.004 176.231 121.938H174.044H171.743C171.578 121.938 171.578 122.349 171.743 122.431H172.121C172.926 122.596 173.074 122.596 173.074 124.388V126.459C173.074 126.919 173.074 126.969 172.154 126.969H168.175C167.304 126.969 167.255 126.969 167.255 126.459V124.388C167.255 122.579 167.419 122.563 168.208 122.431H168.504C168.668 122.267 168.668 122.004 168.504 121.938H166.334H164.032C163.868 121.938 163.868 122.349 164.032 122.431H164.41C165.216 122.596 165.364 122.596 165.364 124.388V130.733C165.364 132.525 165.2 132.575 164.41 132.706H164.18C164.016 132.871 164.016 133.134 164.18 133.2H166.35H168.751C168.915 133.2 168.915 132.821 168.751 132.706H168.241C167.435 132.542 167.271 132.542 167.271 130.766V128.251C167.271 127.791 167.271 127.758 168.192 127.758H172.187L172.137 127.725ZM161.796 126.212C161.796 124.864 161.796 123.385 162.027 122.859C162.191 122.579 162.438 122.53 162.766 122.464L163.161 122.3C163.325 122.135 163.325 121.889 163.161 121.807H161.369H159.413C159.248 121.807 159.232 122.185 159.413 122.3H159.791C160.218 122.3 160.498 122.464 160.646 122.727C160.958 123.237 160.974 124.799 160.974 126.081V129.402V129.813C160.81 129.648 159.215 127.906 158.508 127.117L156.799 125.275C156.207 124.634 154.349 122.481 154.07 121.757H152.886H150.88C150.716 121.757 150.699 122.152 150.88 122.25H151.143C151.373 122.25 151.85 122.431 152.047 122.596C152.623 123.089 152.606 123.352 152.606 124.684V128.728C152.606 130.076 152.606 131.556 152.376 132.082C152.212 132.345 151.949 132.394 151.636 132.476L151.258 132.641C151.094 132.805 151.094 133.052 151.258 133.134H153.034H154.974C155.138 133.134 155.171 132.756 154.974 132.641H154.596C154.168 132.641 153.889 132.476 153.724 132.213C153.445 131.703 153.428 130.142 153.428 128.859V125.538V124.437C153.724 124.7 154.283 125.325 155.368 126.591L159.347 131.145C160.58 132.525 161.073 133.117 161.352 133.463C161.55 133.463 161.796 133.463 161.928 133.232V130.24V126.163L161.796 126.212ZM148.957 126.212C148.957 124.864 148.957 123.385 149.187 122.859C149.351 122.579 149.598 122.53 149.927 122.464L150.321 122.3C150.486 122.135 150.486 121.889 150.321 121.807H148.529H146.573C146.408 121.807 146.392 122.185 146.573 122.3H146.951C147.378 122.3 147.658 122.464 147.806 122.727C148.118 123.237 148.135 124.799 148.135 126.081V129.402V129.813C147.97 129.648 146.392 127.906 145.669 127.117L143.975 125.275C143.367 124.634 141.526 122.481 141.23 121.757H140.046H138.04C137.876 121.757 137.86 122.152 138.04 122.25H138.32C138.55 122.25 139.043 122.431 139.224 122.596C139.799 123.089 139.783 123.352 139.783 124.684V128.728C139.783 130.076 139.783 131.556 139.569 132.082C139.405 132.345 139.142 132.394 138.813 132.476L138.435 132.641C138.271 132.805 138.271 133.052 138.435 133.134H140.194H142.15C142.315 133.134 142.331 132.756 142.15 132.641H141.772C141.345 132.641 141.065 132.476 140.901 132.213C140.621 131.703 140.605 130.142 140.605 128.859V125.538V124.437C140.901 124.7 141.46 125.325 142.545 126.591L146.54 131.145C147.756 132.525 148.25 133.117 148.529 133.463C148.726 133.463 148.973 133.463 149.105 133.232V130.24V126.163L148.957 126.212ZM131.152 128.235C130.741 128.235 130.708 128.235 130.872 127.741L131.579 125.752C131.875 124.947 132.023 124.519 132.089 124.404C132.089 124.568 132.253 124.848 132.566 125.752L133.273 127.807C133.437 128.202 133.437 128.235 132.878 128.235H131.103H131.152ZM133.141 129.007C133.601 129.007 133.684 129.007 133.832 129.468L134.637 131.786C134.884 132.493 134.802 132.608 134.193 132.69H133.815C133.651 132.854 133.651 133.101 133.815 133.183H135.887H138.106C138.271 133.019 138.271 132.805 138.106 132.69H137.843C136.972 132.525 136.89 132.41 136.495 131.276L134.045 124.141C133.766 123.368 133.552 122.563 133.289 121.807C133.289 121.642 133.125 121.642 132.993 121.642C132.993 121.642 132.401 122.349 131.81 122.464C131.81 122.76 131.645 123.171 131.481 123.714L129.146 129.78C128.785 130.701 128.521 131.408 128.308 131.851C128.045 132.41 127.864 132.542 127.371 132.641L126.861 132.805C126.697 132.969 126.697 133.216 126.861 133.298H128.554H130.346C130.511 133.298 130.511 132.92 130.346 132.805L129.853 132.641C129.212 132.476 129.163 132.476 129.491 131.49L130.198 129.451C130.363 128.991 130.363 128.991 130.774 128.991H133.043L133.141 129.007ZM126.516 132.657C125.973 132.493 125.776 132.46 125.727 131.325C125.562 128.81 125.562 126.278 125.562 123.763C125.562 122.859 125.727 122.579 126.483 122.464L127.042 122.3C127.223 122.135 127.206 121.872 127.042 121.807H125.25H123.852C123.557 122.924 123.014 123.927 122.472 125.062L120.877 128.333C120.482 129.122 120.269 129.599 119.989 130.109C119.759 129.714 119.331 128.859 119.183 128.563L117.309 124.634C116.865 123.714 116.454 122.826 116.372 121.807H114.564H112.953C112.788 121.807 112.772 122.185 112.953 122.3L113.528 122.464C114.186 122.629 114.449 122.924 114.449 123.73C114.449 124.766 114.284 126.18 114.284 127.33C114.12 129.106 114.12 130.207 114.021 131.292C113.857 132.328 113.791 132.591 112.969 132.69H112.673C112.509 132.854 112.509 133.101 112.673 133.183H114.498H116.274C116.438 133.183 116.438 132.789 116.274 132.69L115.715 132.525C114.991 132.361 114.975 132.131 114.975 130.997V127.051C114.975 126.344 114.975 125.012 115.139 124.174C115.353 124.684 115.813 125.752 116.126 126.476L117.638 129.747C118.049 130.602 118.772 132.262 119.052 133.183H119.496C119.808 132.377 120.663 130.487 121.239 129.303L122.702 126.295C123.03 125.621 123.261 125.111 123.721 124.174V131.145C123.721 132.295 123.721 132.41 122.981 132.542L122.521 132.706C122.356 132.871 122.356 133.134 122.521 133.2H124.806H126.877C127.058 133.2 127.091 132.772 126.877 132.706L126.401 132.542L126.516 132.657ZM292.512 154.276C292.512 149.525 292.512 144.297 293.351 142.422C293.778 141.469 295.422 141.288 296.556 141.041L297.937 140.746C298.431 140.318 298.299 139.299 297.773 139.003C295.603 139.167 293.416 139.184 290.835 139.184C288.501 139.184 286.265 139.184 283.93 139.003C283.322 139.184 283.273 140.318 283.766 140.746L285.147 140.926C286.659 141.107 287.613 141.518 288.155 142.422C289.24 144.231 289.306 149.755 289.306 154.276V165.998C289.306 166.951 289.306 167.247 289.109 167.444C288.517 167.066 282.927 160.704 280.396 157.942L274.395 151.448C272.291 149.163 265.747 141.584 264.712 139.003C263.281 139.167 261.835 139.184 260.569 139.184C259.073 139.184 255.768 139.184 253.483 139.003C252.875 139.184 252.826 140.384 253.237 140.746L254.141 140.926C254.979 141.107 256.673 141.584 257.33 142.127C259.369 143.869 259.303 144.839 259.303 149.525V163.762C259.303 168.513 259.303 173.741 258.53 175.615C258.103 176.569 257.018 176.75 255.883 176.996L254.568 177.292C254.075 177.719 254.206 178.739 254.733 179.035C256.837 178.87 258.465 178.854 260.98 178.854C263.265 178.854 265.616 178.854 267.835 179.035C268.427 178.854 268.493 177.719 268 177.292L266.685 177.111C265.189 176.93 264.153 176.503 263.627 175.615C262.591 173.807 262.542 168.266 262.542 163.762V152.04C262.542 148.851 262.542 148.193 262.723 148.193C263.742 149.097 265.731 151.317 269.578 155.772L283.634 171.817C287.958 176.749 289.701 178.788 290.671 180.054C291.378 180.054 292.233 179.873 292.709 179.216C292.529 177.835 292.529 170.436 292.529 168.644V154.276H292.512ZM224.039 170.206C224.039 176.569 223.496 176.749 220.669 177.062L218.449 177.292C218.038 177.719 218.088 178.805 218.614 179.035C221.31 178.87 224.976 178.854 227.623 178.854H234.478C241.515 178.854 246.677 178.854 249.324 179.035C250.162 177.424 251.477 172.853 251.839 170.321C251.477 169.713 250.458 169.532 249.916 169.96C247.811 174.826 246.496 176.519 238.868 176.454C233.821 176.454 232.801 175.977 232.078 175.138C231.174 174.103 231.059 171.949 231.059 168.875V161.246C231.059 159.734 231.059 159.619 232.489 159.619H235.383C240.61 159.619 241.63 159.783 242.041 162.266L242.468 164.666C242.945 165.028 244.096 165.028 244.392 164.666C244.392 162.743 244.211 160.638 244.211 158.369C244.211 156.134 244.375 153.98 244.392 152.352C244.096 151.876 242.961 151.876 242.468 152.352L242.041 154.407C241.498 156.988 240.594 157.038 235.366 157.038H232.489C231.108 157.038 231.042 157.038 231.042 155.427V145.267C231.042 141.831 231.042 141.716 233.623 141.716H237.651C239.279 141.716 241.071 141.896 242.468 142.258C244.392 142.801 245.28 144.231 246.249 147.733C246.726 148.078 247.926 147.963 248.173 147.486C247.811 144.905 247.45 140.154 247.219 139.134C246.43 139.299 242.945 139.315 239.098 139.315H227.623C224.976 139.315 222.148 139.315 219.863 139.134C219.386 139.365 219.337 140.45 219.699 140.877L220.652 141.041C223.48 141.403 224.022 141.65 224.022 148.012V170.387L224.039 170.206ZM211.774 169.121C211.774 165.455 212.136 164.978 214.356 164.617L215.441 164.419C215.983 164.008 215.917 162.973 215.276 162.677C212.695 162.841 210.657 162.858 207.944 162.858C203.801 162.858 200.924 162.858 198.573 162.677C198.096 162.973 198.096 164.008 198.573 164.419L200.743 164.781C204.771 165.439 204.82 165.8 204.82 170.075V172.245C204.82 174.399 204.639 175.484 204.294 176.026C203.571 176.93 201.828 177.407 198.935 177.407C195.4 177.407 192.145 176.141 188.89 172.294C185.651 168.447 184.566 163.285 184.566 158.468C184.566 148.259 188.117 140.614 198.705 140.614C204.656 140.614 208.914 143.507 210.245 149.327C210.541 149.87 211.857 149.821 212.169 149.163C211.857 144.477 211.446 141.403 211.38 139.595C210.657 139.595 208.914 139.365 207.533 139.052C205.429 138.641 202.371 138.164 199.543 138.164C191.191 138.164 186.506 140.746 182.232 145.25C178.45 149.163 176.708 154.342 176.708 159.389C176.708 164.436 178.45 169.483 181.985 173.149C186.506 177.835 191.422 179.758 198.639 179.758C202.058 179.758 206.563 179.051 210.295 178.147C211.446 177.9 212.514 177.654 213.188 177.654C213.418 177.473 213.418 176.996 213.188 176.749C212.054 176.223 211.742 174.662 211.742 172.557V169.056L211.774 169.121ZM150.453 144.346C150.453 141.584 150.453 141.403 153.642 141.403C158.854 141.403 161.928 145.546 161.928 150.297C161.928 156.018 159.232 158.895 153.33 158.895C150.453 158.895 150.453 158.731 150.453 156.857V144.346ZM143.482 170.206C143.482 176.569 142.94 176.749 140.112 177.111L138.797 177.308C138.254 177.719 138.435 178.805 138.961 179.051C141.723 178.887 144.436 178.854 147.082 178.854C149.729 178.854 152.425 178.854 155.072 179.051C155.549 178.805 155.615 177.719 155.237 177.308L153.922 177.111C151.094 176.749 150.568 176.569 150.568 170.206V162.512C150.568 161.246 150.568 161.181 152.425 161.181C154.398 161.181 155.072 161.427 156.141 163.236C157.588 165.57 159.265 168.875 160.892 171.406C164.558 176.996 167.682 179.331 173.452 179.331C175.557 179.331 176.708 179.15 177.415 178.985C177.612 178.673 177.612 178.015 177.25 177.769C176.527 177.769 174.784 177.358 173.091 175.911C170.28 173.56 167.271 168.464 162.47 160.342C162.224 159.981 162.109 159.504 162.47 159.323C165.413 158.123 169.671 155.344 169.671 149.821C169.671 145.497 167.452 142.669 164.394 141.041C161.747 139.595 157.653 139.003 152.968 139.003C148.036 139.003 142.939 139.184 139.142 139.545C138.665 139.841 138.665 140.795 139.142 141.222L140.704 141.403C143.531 141.699 143.581 142.422 143.581 148.193V170.206H143.482ZM116.027 140.614C125.595 140.614 128.439 151.136 128.439 160.227C128.439 172.311 124.148 177.424 117.293 177.424C107.018 177.424 104.716 166.113 104.716 157.81C104.716 145.004 110.026 140.614 116.027 140.614ZM116.816 138.214C104.19 138.214 97.1701 147.305 97.1701 159.553C97.1701 170.256 103.121 179.824 116.701 179.824C128.834 179.824 135.985 170.979 135.985 159.142C135.985 148.193 130.692 138.214 116.816 138.214ZM92.6491 176.996C90.7256 176.7 90.068 176.339 89.8871 172.311C89.4597 163.417 89.3446 154.506 89.3446 145.612C89.3446 142.422 89.9365 141.469 92.5833 141.041L94.5726 140.746C95.1809 140.384 95.0493 139.233 94.3917 139.003C92.7148 139.167 90.6105 139.184 88.0787 139.184C86.7635 139.184 84.7742 139.184 83.1466 139.003C82.1274 142.965 80.2203 146.516 78.2804 150.478L72.625 162.019C71.2604 164.847 70.4713 166.54 69.5013 168.283C68.7286 166.885 67.1668 163.893 66.6901 162.858L60.0811 148.982C58.5193 145.727 57.0068 142.603 56.7931 139.003C54.5408 139.184 52.4529 139.184 50.3486 139.184C48.1127 139.184 46.4851 139.184 44.7095 139.003C44.1506 139.184 44.0848 140.318 44.463 140.746L46.4851 141.107C48.8361 141.518 49.7403 142.718 49.7403 145.546C49.7403 149.212 49.395 154.21 49.132 158.304C48.836 164.551 48.6717 168.464 48.2442 172.245C47.8332 175.911 47.3893 176.815 44.5123 177.177L43.493 177.341C43.1478 177.654 43.1477 178.788 43.6903 179.084C46.0412 178.92 48.1949 178.903 50.1348 178.903C52.3378 178.903 54.212 178.903 56.4314 179.084C56.9082 178.854 56.9082 177.703 56.4314 177.341L54.4421 176.98C51.8775 176.503 51.8117 175.599 51.8117 171.637C51.8117 166.705 52.009 161.362 52.0419 157.679C52.2392 155.164 52.2885 150.478 52.4036 147.535H52.6173C53.3242 149.327 54.9518 153.125 56.0862 155.64L61.4457 167.181C62.8266 170.19 65.4077 176.092 66.427 179.331C66.8545 179.577 67.7587 179.577 67.9888 179.331C69.0739 176.503 72.066 169.828 74.121 165.62L79.2832 155.049C80.4341 152.632 81.2725 150.84 82.9001 147.535V172.113C82.9001 176.207 82.7028 176.634 80.3354 177.045L78.7078 177.341C78.0995 177.703 78.3462 178.854 78.9216 179.084C81.552 178.92 84.1331 178.903 86.9772 178.903C89.3611 178.903 91.712 178.903 94.2931 179.084C94.9507 178.854 95.0164 177.588 94.4575 177.341L92.7148 177.045L92.6491 176.996ZM21.4139 116.184H21.1344V184.887H318.751V115.921H21.1344V116.184H21.4139V116.447H318.471V116.184H318.208V184.624H318.471V184.361H21.4139V184.624H21.6605V116.184H21.4139V116.447V116.184Z" fill="white"/>
</g>
</g>
<defs>
<linearGradient id="paint0_linear" x1="63" y1="0" x2="63" y2="451" gradientUnits="userSpaceOnUse">
<stop stop-color="#FFD600"/>
<stop offset="1" stop-color="#AF9E72"/>
</linearGradient>
<clipPath id="clip0">
<rect width="340" height="464" rx="4" fill="white"/>
</clipPath>
<clipPath id="clip1">
<rect width="300" height="70.9557" fill="white" transform="translate(20 115)"/>
</clipPath>
</defs>
</svg>
