<svg width="581" height="73" viewBox="0 0 581 73" fill="none" xmlns="http://www.w3.org/2000/svg">
<path d="M0.682556 52.9252H3.96981L9.28376 39.2377H33.9381L38.9608 52.9252H42.248L23.1089 0.365234H19.8217L0.682556 52.9252ZM10.1969 36.5002L21.4288 4.78174L33.0072 36.5002H10.1969Z" fill="white"/>
<path d="M48.6216 70.4452H51.7906V45.1872C53.1299 47.8882 54.8552 50.0417 57.1685 51.6477C59.5061 53.2294 62.282 54.0202 65.4962 54.0202C69.2217 54.0202 72.3507 53.1077 74.8831 51.2827C77.4399 49.4334 79.3757 46.9392 80.6906 43.8002C82.0055 40.6369 82.6629 37.0842 82.6629 33.1422C82.6629 29.2732 82.0177 25.7692 80.7271 22.6302C79.4366 19.4912 77.5494 17.0092 75.0657 15.1842C72.6064 13.3349 69.6113 12.4102 66.0806 12.4102C62.5742 12.4102 59.5913 13.2376 57.132 14.8922C54.697 16.5226 52.9107 18.7491 51.5714 21.5717V13.5052H48.6216V70.4452ZM65.4962 50.9542C62.4037 50.9542 59.8105 50.1756 57.7164 48.6182C55.6466 47.0609 54.0882 44.9439 53.0412 42.2672C51.9941 39.5662 51.4706 36.5246 51.4706 33.1422C51.4706 29.7112 51.9941 26.6696 53.0412 24.0172C54.1126 21.3406 55.6831 19.2479 57.7529 17.7392C59.847 16.2306 62.4281 15.4762 65.4962 15.4762C68.6373 15.4762 71.2306 16.2549 73.276 17.8122C75.3214 19.3452 76.8433 21.4501 77.8416 24.1267C78.8643 26.7791 79.3757 29.7842 79.3757 33.1422C79.3757 36.5246 78.8522 39.5662 77.8051 42.2672C76.7581 44.9439 75.1997 47.0609 73.1299 48.6182C71.0845 50.1756 68.5399 50.9542 65.4962 50.9542Z" fill="white"/>
<path d="M102.207 52.9252H105.275V16.5712H119.812V13.5052H87.6699V16.5712H102.207V52.9252Z" fill="white"/>
<path d="M142.621 54.0202C146.468 54.0202 149.865 53.1077 152.811 51.2827C155.757 49.4577 158.034 46.8662 159.641 43.5082L157.084 42.0482C155.623 44.9196 153.663 47.1217 151.204 48.6547C148.745 50.1877 145.883 50.9542 142.621 50.9542C138.067 50.9542 134.5 49.4821 131.919 46.5377C129.362 43.5934 128.011 39.4446 127.864 34.0912H160.591C160.591 27.2292 159.008 21.9002 155.843 18.1042C152.701 14.3082 148.294 12.4102 142.621 12.4102C136.996 12.4102 132.576 14.2596 129.362 17.9582C126.172 21.6569 124.577 26.7426 124.577 33.2152C124.577 37.4979 125.308 41.1966 126.769 44.3112C128.23 47.4259 130.299 49.8227 132.978 51.5017C135.681 53.1807 138.895 54.0202 142.621 54.0202ZM142.621 15.4762C146.931 15.4762 150.327 16.8146 152.811 19.4912C155.319 22.1679 156.78 26.0126 157.194 31.0252H127.938C128.278 26.0856 129.715 22.2652 132.247 19.5642C134.804 16.8389 138.262 15.4762 142.621 15.4762Z" fill="white"/>
<path d="M167.574 52.9252H170.642V20.8052L185.252 52.9252H188.612L203.222 20.8052V52.9252H206.291V13.5052H203.149L186.932 49.1292L170.715 13.5052H167.574V52.9252Z" fill="white"/>
<path d="M246.038 52.9252H249.106V3.43123H268.392V0.365234H226.753V3.43123H246.038V52.9252Z" fill="white"/>
<path d="M284.226 54.0202C288.098 54.0202 291.373 53.1442 294.052 51.3922C296.754 49.6402 298.8 47.2069 300.188 44.0922C301.576 40.9532 302.27 37.3032 302.27 33.1422C302.27 29.0786 301.576 25.4894 300.188 22.3747C298.824 19.2601 296.803 16.8267 294.125 15.0747C291.446 13.2984 288.147 12.4102 284.226 12.4102C280.403 12.4102 277.14 13.2741 274.438 15.0017C271.759 16.7294 269.714 19.1506 268.301 22.2652C266.889 25.3799 266.183 29.0056 266.183 33.1422C266.183 37.2302 266.877 40.8437 268.265 43.9827C269.653 47.1217 271.686 49.5794 274.365 51.3557C277.043 53.1321 280.33 54.0202 284.226 54.0202ZM284.226 50.9542C279.381 50.9542 275.704 49.3239 273.196 46.0632C270.712 42.8026 269.47 38.4956 269.47 33.1422C269.47 29.6869 270.006 26.6331 271.077 23.9807C272.149 21.3284 273.768 19.2479 275.935 17.7392C278.127 16.2306 280.89 15.4762 284.226 15.4762C289.169 15.4762 292.858 17.0822 295.293 20.2942C297.753 23.4819 298.982 27.7646 298.982 33.1422C298.982 38.4226 297.765 42.7174 295.33 46.0267C292.895 49.3117 289.194 50.9542 284.226 50.9542Z" fill="white"/>
<path d="M306.669 52.9252C308.811 53.2902 310.443 53.2902 311.563 52.9252C312.683 52.5602 313.499 51.8546 314.01 50.8082C314.522 49.7376 314.948 48.3506 315.289 46.6472C315.922 43.5812 316.506 39.4202 317.042 34.1642C317.577 28.8839 318.064 23.0196 318.503 16.5712H337.642V52.9252H340.71V13.5052H315.362C315.069 18.2259 314.777 22.4112 314.485 26.0612C314.217 29.7112 313.925 32.9962 313.608 35.9162C313.292 38.8119 312.927 41.5129 312.513 44.0192C312.293 45.3819 312.013 46.5621 311.673 47.5597C311.332 48.5574 310.784 49.2874 310.029 49.7497C309.274 50.1877 308.154 50.2729 306.669 50.0052V52.9252Z" fill="white"/>
<path d="M366.764 54.0202C370.636 54.0202 373.911 53.1442 376.59 51.3922C379.292 49.6402 381.338 47.2069 382.726 44.0922C384.114 40.9532 384.808 37.3032 384.808 33.1422C384.808 29.0786 384.114 25.4894 382.726 22.3747C381.362 19.2601 379.341 16.8267 376.663 15.0747C373.984 13.2984 370.685 12.4102 366.764 12.4102C362.941 12.4102 359.678 13.2741 356.976 15.0017C354.297 16.7294 352.252 19.1506 350.839 22.2652C349.427 25.3799 348.721 29.0056 348.721 33.1422C348.721 37.2302 349.415 40.8437 350.803 43.9827C352.191 47.1217 354.224 49.5794 356.903 51.3557C359.581 53.1321 362.868 54.0202 366.764 54.0202ZM366.764 50.9542C361.919 50.9542 358.242 49.3239 355.734 46.0632C353.25 42.8026 352.008 38.4956 352.008 33.1422C352.008 29.6869 352.544 26.6331 353.615 23.9807C354.687 21.3284 356.306 19.2479 358.473 17.7392C360.665 16.2306 363.428 15.4762 366.764 15.4762C371.707 15.4762 375.396 17.0822 377.831 20.2942C380.291 23.4819 381.52 27.7646 381.52 33.1422C381.52 38.4226 380.303 42.7174 377.868 46.0267C375.433 49.3117 371.732 50.9542 366.764 50.9542Z" fill="white"/>
<path d="M392.859 52.9252H395.927V33.9452L418.134 52.9252H423.394L399.653 33.2152L420.253 13.5052H415.651L395.927 32.4852V13.5052H392.859V52.9252Z" fill="white"/>
<path d="M442.168 54.0202C446.04 54.0202 449.315 53.1442 451.994 51.3922C454.697 49.6402 456.742 47.2069 458.13 44.0922C459.518 40.9532 460.212 37.3032 460.212 33.1422C460.212 29.0786 459.518 25.4894 458.13 22.3747C456.766 19.2601 454.745 16.8267 452.067 15.0747C449.388 13.2984 446.089 12.4102 442.168 12.4102C438.345 12.4102 435.083 13.2741 432.38 15.0017C429.701 16.7294 427.656 19.1506 426.244 22.2652C424.831 25.3799 424.125 29.0056 424.125 33.1422C424.125 37.2302 424.819 40.8437 426.207 43.9827C427.595 47.1217 429.628 49.5794 432.307 51.3557C434.985 53.1321 438.272 54.0202 442.168 54.0202ZM442.168 50.9542C437.323 50.9542 433.646 49.3239 431.138 46.0632C428.654 42.8026 427.412 38.4956 427.412 33.1422C427.412 29.6869 427.948 26.6331 429.019 23.9807C430.091 21.3284 431.71 19.2479 433.877 17.7392C436.069 16.2306 438.832 15.4762 442.168 15.4762C447.111 15.4762 450.801 17.0822 453.236 20.2942C455.695 23.4819 456.925 27.7646 456.925 33.1422C456.925 38.4226 455.707 42.7174 453.272 46.0267C450.837 49.3117 447.136 50.9542 442.168 50.9542Z" fill="white"/>
<path d="M468.586 52.9252H471.331V39.2377H496.893V52.9252H499.675V13.5052H496.893V36.5002H471.331V13.5052H468.586V52.9252Z" fill="white"/>
<path d="M539.364 13.5052H536.515L512.993 47.5232V13.5052H509.925V52.9252H512.774L536.296 18.9072V52.9252H539.364V13.5052Z" fill="white"/>
<path d="M549.854 52.9252H552.657V39.2377H578.161V52.9252H581V13.5052H578.161V36.5002H552.657V13.5052H549.854V52.9252Z" fill="white"/>
<path d="M0 36.5385H33.9167L34 39.5385H0V36.5385Z" fill="url(#paint0_linear)"/>
<path d="M552.21 36.5H577.778V39.2375H552.21V36.5Z" fill="url(#paint1_linear)"/>
<path d="M226.224 0H268.228V3.65H226.224V0Z" fill="url(#paint2_linear)"/>
<path d="M51.8176 12.775L51.8176 73L48.1651 73L48.1651 12.775L51.8176 12.775Z" fill="url(#paint3_linear)"/>
<mask id="path-6-inside-1" fill="white">
<rect x="134.912" y="2.7375" width="5.47875" height="5.475" rx="1"/>
</mask>
<rect x="134.912" y="2.7375" width="5.47875" height="5.475" rx="1" stroke="white" stroke-width="3" mask="url(#path-6-inside-1)"/>
<mask id="path-7-inside-2" fill="white">
<rect x="144.043" y="2.7375" width="5.47875" height="5.475" rx="1"/>
</mask>
<rect x="144.043" y="2.7375" width="5.47875" height="5.475" rx="1" stroke="white" stroke-width="3" mask="url(#path-7-inside-2)"/>
<defs>
<linearGradient id="paint0_linear" x1="34" y1="36.5385" x2="0" y2="36.5385" gradientUnits="userSpaceOnUse">
<stop stop-color="#FFD600"/>
<stop offset="1" stop-color="#AF9E72"/>
</linearGradient>
<linearGradient id="paint1_linear" x1="577.778" y1="36.5" x2="552.21" y2="36.5" gradientUnits="userSpaceOnUse">
<stop stop-color="#FFD600"/>
<stop offset="1" stop-color="#AF9E72"/>
</linearGradient>
<linearGradient id="paint2_linear" x1="268.228" y1="0" x2="226.224" y2="0" gradientUnits="userSpaceOnUse">
<stop stop-color="#FFD600"/>
<stop offset="1" stop-color="#AF9E72"/>
</linearGradient>
<linearGradient id="paint3_linear" x1="51.8176" y1="12.775" x2="51.8176" y2="73" gradientUnits="userSpaceOnUse">
<stop stop-color="#FFD600"/>
<stop offset="1" stop-color="#AF9E72"/>
</linearGradient>
</defs>
</svg>
