<svg width="20" height="20" viewBox="0 0 20 20" fill="none" xmlns="http://www.w3.org/2000/svg">
<path d="M19.6094 0H3.82812C3.61242 0 3.4375 0.174883 3.4375 0.390625V2.10938H2.10938C1.89367 2.10938 1.71875 2.2843 1.71875 2.5V4.60938H0.390625C0.174883 4.60938 0 4.7843 0 5V17.8906C0 19.0537 0.946289 20 2.10938 20H17.8906C19.0537 20 20 19.0537 20 17.8906V0.390625C20 0.174883 19.8251 0 19.6094 0ZM19.2188 17.8906C19.2188 18.623 18.623 19.2188 17.8906 19.2188H3.74656C4.04148 18.8559 4.21875 18.3936 4.21875 17.8906V12.6173C4.21875 12.4016 4.04383 12.2267 3.82812 12.2267C3.61242 12.2267 3.4375 12.4016 3.4375 12.6173V17.8906C3.4375 18.623 2.84172 19.2188 2.10938 19.2188C1.37703 19.2188 0.78125 18.623 0.78125 17.8906V5.39062H1.71875V17.5C1.71875 17.7157 1.89367 17.8906 2.10938 17.8906C2.32508 17.8906 2.5 17.7157 2.5 17.5V2.89062H3.4375V9.10168C3.4375 9.31742 3.61242 9.4923 3.82812 9.4923C4.04383 9.4923 4.21875 9.31742 4.21875 9.10168V0.78125H19.2188V17.8906Z" fill="#2F2F2F"/>
<path d="M5.70312 6.17188H17.7344C17.9501 6.17188 18.125 5.99699 18.125 5.78125V2.96875C18.125 2.75305 17.9501 2.57812 17.7344 2.57812H5.70312C5.48738 2.57812 5.3125 2.75305 5.3125 2.96875V5.78125C5.3125 5.99699 5.48738 6.17188 5.70312 6.17188ZM6.09375 3.35938H17.3438V5.39062H6.09375V3.35938Z" fill="#2F2F2F"/>
<path d="M5.70312 15.5469H11.7188C11.9345 15.5469 12.1094 15.372 12.1094 15.1562V7.65625C12.1094 7.44051 11.9345 7.26562 11.7188 7.26562H5.70312C5.48738 7.26562 5.3125 7.44051 5.3125 7.65625V15.1562C5.3125 15.372 5.48738 15.5469 5.70312 15.5469ZM6.09375 8.04688H11.3281V14.7656H6.09375V8.04688Z" fill="#2F2F2F"/>
<path d="M17.7344 7.26562H13.5938C13.378 7.26562 13.2031 7.44051 13.2031 7.65625C13.2031 7.87199 13.378 8.04688 13.5938 8.04688H17.7344C17.9501 8.04688 18.125 7.87199 18.125 7.65625C18.125 7.44051 17.9501 7.26562 17.7344 7.26562Z" fill="#2F2F2F"/>
<path d="M17.7344 9.14062H13.5938C13.378 9.14062 13.2031 9.31551 13.2031 9.53125C13.2031 9.74699 13.378 9.92188 13.5938 9.92188H17.7344C17.9501 9.92188 18.125 9.74699 18.125 9.53125C18.125 9.31551 17.9501 9.14062 17.7344 9.14062Z" fill="#2F2F2F"/>
<path d="M17.7344 11.0156H13.5938C13.378 11.0156 13.2031 11.1905 13.2031 11.4062C13.2031 11.622 13.378 11.7969 13.5938 11.7969H17.7344C17.9501 11.7969 18.125 11.622 18.125 11.4062C18.125 11.1905 17.9501 11.0156 17.7344 11.0156Z" fill="#2F2F2F"/>
<path d="M17.7344 12.8906H13.5938C13.378 12.8906 13.2031 13.0655 13.2031 13.2812C13.2031 13.497 13.378 13.6719 13.5938 13.6719H17.7344C17.9501 13.6719 18.125 13.497 18.125 13.2812C18.125 13.0655 17.9501 12.8906 17.7344 12.8906Z" fill="#2F2F2F"/>
<path d="M17.7344 14.7656H13.5938C13.378 14.7656 13.2031 14.9405 13.2031 15.1562C13.2031 15.372 13.378 15.5469 13.5938 15.5469H17.7344C17.9501 15.5469 18.125 15.372 18.125 15.1562C18.125 14.9405 17.9501 14.7656 17.7344 14.7656Z" fill="#2F2F2F"/>
<path d="M5.70312 17.4219H17.7344C17.9501 17.4219 18.125 17.247 18.125 17.0312C18.125 16.8155 17.9501 16.6406 17.7344 16.6406H5.70312C5.48738 16.6406 5.3125 16.8155 5.3125 17.0312C5.3125 17.247 5.48738 17.4219 5.70312 17.4219Z" fill="#2F2F2F"/>
<path d="M3.84766 10.4688C3.74492 10.4688 3.64414 10.5105 3.57148 10.5832C3.49883 10.6559 3.45703 10.7566 3.45703 10.8594C3.45703 10.9625 3.49879 11.0629 3.57148 11.1355C3.64414 11.2086 3.74492 11.25 3.84766 11.25C3.95039 11.25 4.05117 11.2086 4.12379 11.1355C4.19645 11.0629 4.23828 10.9621 4.23828 10.8594C4.23828 10.7566 4.19648 10.6559 4.12379 10.5832C4.05117 10.5105 3.95039 10.4688 3.84766 10.4688Z" fill="#2F2F2F"/>
</svg>
