<svg width="40" height="40" viewBox="0 0 40 40" fill="none" xmlns="http://www.w3.org/2000/svg">
<path d="M39.2188 0H7.65625C7.22484 0 6.875 0.349766 6.875 0.78125V4.21875H4.21875C3.78734 4.21875 3.4375 4.56859 3.4375 5V9.21875H0.78125C0.349766 9.21875 0 9.56859 0 10V35.7812C0 38.1074 1.89258 40 4.21875 40H35.7812C38.1074 40 40 38.1074 40 35.7812V0.78125C40 0.349766 39.6502 0 39.2188 0ZM38.4375 35.7812C38.4375 37.2459 37.2459 38.4375 35.7812 38.4375H7.49312C8.08297 37.7117 8.4375 36.7873 8.4375 35.7812V25.2346C8.4375 24.8032 8.08766 24.4534 7.65625 24.4534C7.22484 24.4534 6.875 24.8032 6.875 25.2346V35.7812C6.875 37.2459 5.68344 38.4375 4.21875 38.4375C2.75406 38.4375 1.5625 37.2459 1.5625 35.7812V10.7812H3.4375V35C3.4375 35.4314 3.78734 35.7812 4.21875 35.7812C4.65016 35.7812 5 35.4314 5 35V5.78125H6.875V18.2034C6.875 18.6348 7.22484 18.9846 7.65625 18.9846C8.08766 18.9846 8.4375 18.6348 8.4375 18.2034V1.5625H38.4375V35.7812Z" fill="#2F2F2F"/>
<path d="M11.4062 12.3438H35.4688C35.9002 12.3438 36.25 11.994 36.25 11.5625V5.9375C36.25 5.50609 35.9002 5.15625 35.4688 5.15625H11.4062C10.9748 5.15625 10.625 5.50609 10.625 5.9375V11.5625C10.625 11.994 10.9748 12.3438 11.4062 12.3438ZM12.1875 6.71875H34.6875V10.7812H12.1875V6.71875Z" fill="#2F2F2F"/>
<path d="M11.4062 31.0938H23.4375C23.8689 31.0938 24.2188 30.7439 24.2188 30.3125V15.3125C24.2188 14.881 23.8689 14.5312 23.4375 14.5312H11.4062C10.9748 14.5312 10.625 14.881 10.625 15.3125V30.3125C10.625 30.7439 10.9748 31.0938 11.4062 31.0938ZM12.1875 16.0938H22.6562V29.5312H12.1875V16.0938Z" fill="#2F2F2F"/>
<path d="M35.4688 14.5312H27.1875C26.7561 14.5312 26.4062 14.881 26.4062 15.3125C26.4062 15.744 26.7561 16.0938 27.1875 16.0938H35.4688C35.9002 16.0938 36.25 15.744 36.25 15.3125C36.25 14.881 35.9002 14.5312 35.4688 14.5312Z" fill="#2F2F2F"/>
<path d="M35.4688 18.2812H27.1875C26.7561 18.2812 26.4062 18.631 26.4062 19.0625C26.4062 19.494 26.7561 19.8438 27.1875 19.8438H35.4688C35.9002 19.8438 36.25 19.494 36.25 19.0625C36.25 18.631 35.9002 18.2812 35.4688 18.2812Z" fill="#2F2F2F"/>
<path d="M35.4688 22.0312H27.1875C26.7561 22.0312 26.4062 22.3811 26.4062 22.8125C26.4062 23.2439 26.7561 23.5938 27.1875 23.5938H35.4688C35.9002 23.5938 36.25 23.2439 36.25 22.8125C36.25 22.3811 35.9002 22.0312 35.4688 22.0312Z" fill="#2F2F2F"/>
<path d="M35.4688 25.7812H27.1875C26.7561 25.7812 26.4062 26.1311 26.4062 26.5625C26.4062 26.9939 26.7561 27.3438 27.1875 27.3438H35.4688C35.9002 27.3438 36.25 26.9939 36.25 26.5625C36.25 26.1311 35.9002 25.7812 35.4688 25.7812Z" fill="#2F2F2F"/>
<path d="M35.4688 29.5312H27.1875C26.7561 29.5312 26.4062 29.8811 26.4062 30.3125C26.4062 30.7439 26.7561 31.0938 27.1875 31.0938H35.4688C35.9002 31.0938 36.25 30.7439 36.25 30.3125C36.25 29.8811 35.9002 29.5312 35.4688 29.5312Z" fill="#2F2F2F"/>
<path d="M11.4062 34.8438H35.4688C35.9002 34.8438 36.25 34.4939 36.25 34.0625C36.25 33.6311 35.9002 33.2812 35.4688 33.2812H11.4062C10.9748 33.2812 10.625 33.6311 10.625 34.0625C10.625 34.4939 10.9748 34.8438 11.4062 34.8438Z" fill="#2F2F2F"/>
<path d="M7.69531 20.9375C7.48984 20.9375 7.28828 21.021 7.14297 21.1664C6.99766 21.3117 6.91406 21.5133 6.91406 21.7188C6.91406 21.925 6.99758 22.1258 7.14297 22.271C7.28828 22.4171 7.48984 22.5 7.69531 22.5C7.90078 22.5 8.10234 22.4172 8.24758 22.271C8.39289 22.1258 8.47656 21.9242 8.47656 21.7188C8.47656 21.5133 8.39297 21.3117 8.24758 21.1664C8.10234 21.021 7.90078 20.9375 7.69531 20.9375Z" fill="#2F2F2F"/>
</svg>
