<svg width="80" height="80" viewBox="0 0 80 80" fill="none" xmlns="http://www.w3.org/2000/svg">
<g clip-path="url(#clip0)">
<path d="M78.8258 74.5205H76.2427V41.8004H78.8258C79.2543 41.8004 79.6488 41.567 79.8552 41.1912C80.0614 40.8155 80.0465 40.3572 79.8165 39.9958L71.0494 26.2189C70.8338 25.8801 70.4603 25.675 70.0587 25.675H46.7485L41.1742 20.1008V15.499H52.5245C52.9575 15.499 53.3555 15.2607 53.5598 14.8789C53.7641 14.4972 53.7417 14.0338 53.5014 13.6736L51.4308 10.5675L53.5015 7.46144C53.7418 7.1012 53.7641 6.6378 53.5599 6.25611C53.3555 5.87427 52.9575 5.636 52.5245 5.636H41.1742V4.30527C41.1742 3.65682 40.6485 3.1311 40 3.1311C39.3515 3.1311 38.8258 3.65682 38.8258 4.30527V20.1008L33.2515 25.6751H9.94129C9.53988 25.6751 9.16618 25.8802 8.95061 26.219L0.183482 39.9959C-0.0464986 40.3574 -0.0613715 40.8156 0.144813 41.1914C0.351153 41.5669 0.745674 41.8004 1.17417 41.8004H3.75734V74.5205H1.17417C0.525713 74.5205 -1.59174e-06 75.0462 -1.59174e-06 75.6947C-1.59174e-06 76.3431 0.525713 76.8689 1.17417 76.8689H78.8258C79.4743 76.8689 80 76.3431 80 75.6947C80 75.0462 79.4743 74.5205 78.8258 74.5205ZM69.4142 28.0235L76.687 39.452H60.5254L49.0968 28.0235H69.4142ZM50.3305 7.98433L49.0425 9.91623C48.7795 10.3106 48.7795 10.8244 49.0425 11.2188L50.3305 13.1507H41.1742V7.98433H50.3305ZM10.5858 28.0235H30.903L19.4744 39.452H3.31319L10.5858 28.0235ZM6.10567 41.8004H19.9605C19.9994 41.8004 20.0382 41.7983 20.077 41.7944C20.0936 41.7929 20.1099 41.7897 20.1263 41.7874C20.1478 41.7842 20.1692 41.7817 20.1907 41.7775C20.2098 41.7738 20.2283 41.7684 20.247 41.7637C20.2654 41.7592 20.2838 41.755 20.302 41.7496C20.3205 41.744 20.3385 41.737 20.3566 41.7305C20.3746 41.7241 20.3926 41.7182 20.4105 41.7108C20.4276 41.7038 20.4438 41.6955 20.4604 41.6877C20.4784 41.679 20.4967 41.6711 20.5144 41.6615C20.5306 41.6529 20.5458 41.643 20.5614 41.6338C20.5786 41.6236 20.5962 41.6138 20.6129 41.6025C20.6304 41.5907 20.6469 41.5778 20.6636 41.5651C20.6774 41.5547 20.6917 41.5452 20.705 41.5341C20.735 41.5095 20.7638 41.4835 20.7912 41.456L40 22.2475L59.2088 41.4561C59.2362 41.4835 59.2651 41.5095 59.295 41.5342C59.3083 41.5452 59.3224 41.5547 59.3362 41.5651C59.3531 41.5778 59.3697 41.5909 59.3872 41.6026C59.4038 41.6138 59.4212 41.6235 59.4383 41.6336C59.4541 41.6432 59.4694 41.6531 59.4857 41.6617C59.5033 41.6711 59.5213 41.679 59.5393 41.6875C59.556 41.6955 59.5726 41.7038 59.5898 41.711C59.6074 41.7182 59.6252 41.724 59.6429 41.7304C59.6612 41.737 59.6794 41.744 59.6982 41.7498C59.716 41.7553 59.7342 41.7592 59.7522 41.7637C59.7713 41.7686 59.7901 41.7739 59.8095 41.7777C59.8301 41.7817 59.851 41.7842 59.8718 41.7872C59.8888 41.7897 59.9058 41.7929 59.9231 41.7946C59.9616 41.7983 60.0003 41.8004 60.039 41.8004H73.8943V74.5205H48.6888V58.1605C48.6888 56.1318 47.0384 54.4814 45.0098 54.4814H34.9902C32.9616 54.4814 31.3112 56.1318 31.3112 58.1605V74.5205H6.10567V41.8004ZM46.3405 59.4912H33.6595V58.1605C33.6595 57.4267 34.2564 56.8297 34.9902 56.8297H45.0098C45.7436 56.8297 46.3405 57.4267 46.3405 58.1605V59.4912ZM33.6595 61.8395H38.8258V74.5205H33.6595V61.8395ZM41.1742 61.8395H46.3405V74.5205H41.1742V61.8395Z" fill="url(#paint0_linear)"/>
<path d="M40 50.5675C44.7911 50.5675 48.6889 46.6697 48.6889 41.8787C48.6889 37.0876 44.7911 33.1898 40 33.1898C35.2089 33.1898 31.3112 37.0876 31.3112 41.8787C31.3112 46.6697 35.2089 50.5675 40 50.5675ZM40 35.5382C43.4962 35.5382 46.3405 38.3825 46.3405 41.8787C46.3405 45.3749 43.4962 48.2192 40 48.2192C36.5038 48.2192 33.6595 45.3749 33.6595 41.8787C33.6595 38.3825 36.5038 35.5382 40 35.5382Z" fill="url(#paint1_linear)"/>
<path d="M40 43.0528C40.6485 43.0528 41.1742 42.5271 41.1742 41.8786V38.1213C41.1742 37.4729 40.6485 36.9471 40 36.9471C39.3515 36.9471 38.8258 37.4729 38.8258 38.1213V40.7045H36.2427C35.5942 40.7045 35.0685 41.2302 35.0685 41.8786C35.0685 42.5271 35.5942 43.0528 36.2427 43.0528H40Z" fill="url(#paint2_linear)"/>
<path d="M27.4755 60.7437H21.2133C20.5649 60.7437 20.0391 61.2694 20.0391 61.9178V69.4325C20.0391 70.0809 20.5649 70.6067 21.2133 70.6067H27.4755C28.124 70.6067 28.6497 70.0809 28.6497 69.4325V61.9178C28.6497 61.2694 28.124 60.7437 27.4755 60.7437ZM26.3014 63.092V64.501H22.3875V63.092H26.3014ZM22.3875 68.2583V66.8493H26.3014V68.2583H22.3875Z" fill="url(#paint3_linear)"/>
<path d="M16.2035 60.7437H9.94129C9.29283 60.7437 8.76712 61.2694 8.76712 61.9178V69.4325C8.76712 70.0809 9.29283 70.6067 9.94129 70.6067H16.2035C16.852 70.6067 17.3777 70.0809 17.3777 69.4325V61.9178C17.3777 61.2694 16.852 60.7437 16.2035 60.7437ZM15.0294 63.092V64.501H11.1155V63.092H15.0294ZM11.1155 68.2583V66.8493H15.0294V68.2583H11.1155Z" fill="url(#paint4_linear)"/>
<path d="M27.0841 45.7142H21.6047C20.7414 45.7142 20.0391 46.4165 20.0391 47.2798V55.6555C20.0391 56.304 20.5649 56.8297 21.2133 56.8297H27.4755C28.124 56.8297 28.6497 56.304 28.6497 55.6555V47.2798C28.6497 46.4165 27.9474 45.7142 27.0841 45.7142ZM26.3014 48.0626V50.724H22.3875V48.0626H26.3014ZM22.3875 54.4814V53.0724H26.3014V54.4814H22.3875Z" fill="url(#paint5_linear)"/>
<path d="M15.8121 45.7142H10.3327C9.46943 45.7142 8.76712 46.4165 8.76712 47.2798V55.6555C8.76712 56.304 9.29283 56.8297 9.94129 56.8297H16.2035C16.852 56.8297 17.3777 56.304 17.3777 55.6555V47.2798C17.3777 46.4165 16.6754 45.7142 15.8121 45.7142ZM15.0294 48.0626V50.724H11.1155V48.0626H15.0294ZM11.1155 54.4814V53.0724H15.0294V54.4814H11.1155Z" fill="url(#paint6_linear)"/>
<path d="M63.7965 70.6067H70.0587C70.7072 70.6067 71.2329 70.0809 71.2329 69.4325V61.9178C71.2329 61.2694 70.7072 60.7437 70.0587 60.7437H63.7965C63.148 60.7437 62.6223 61.2694 62.6223 61.9178V69.4325C62.6223 70.0809 63.148 70.6067 63.7965 70.6067ZM64.9707 68.2583V66.8493H68.8845V68.2583H64.9707ZM68.8845 63.092V64.501H64.9707V63.092H68.8845Z" fill="url(#paint7_linear)"/>
<path d="M52.5245 70.6067H58.7867C59.4352 70.6067 59.9609 70.0809 59.9609 69.4325V61.9178C59.9609 61.2694 59.4352 60.7437 58.7867 60.7437H52.5245C51.876 60.7437 51.3503 61.2694 51.3503 61.9178V69.4325C51.3503 70.0809 51.876 70.6067 52.5245 70.6067ZM53.6986 68.2583V66.8493H57.6125V68.2583H53.6986ZM57.6125 63.092V64.501H53.6986V63.092H57.6125Z" fill="url(#paint8_linear)"/>
<path d="M63.7965 56.8297H70.0587C70.7072 56.8297 71.2329 56.304 71.2329 55.6555V47.2798C71.2329 46.4165 70.5306 45.7142 69.6673 45.7142H64.1879C63.3246 45.7142 62.6223 46.4165 62.6223 47.2798V55.6555C62.6223 56.304 63.148 56.8297 63.7965 56.8297ZM64.9707 54.4814V53.0724H68.8845V54.4814H64.9707ZM68.8845 48.0626V50.724H64.9707V48.0626H68.8845Z" fill="url(#paint9_linear)"/>
<path d="M52.5245 56.8297H58.7867C59.4352 56.8297 59.9609 56.304 59.9609 55.6555V47.2798C59.9609 46.4165 59.2586 45.7142 58.3953 45.7142H52.9159C52.0526 45.7142 51.3503 46.4165 51.3503 47.2798V55.6555C51.3503 56.304 51.876 56.8297 52.5245 56.8297ZM53.6986 54.4814V53.0724H57.6125V54.4814H53.6986ZM57.6125 48.0626V50.724H53.6986V48.0626H57.6125Z" fill="url(#paint10_linear)"/>
</g>
<defs>
<linearGradient id="paint0_linear" x1="80" y1="3.1311" x2="-3.05176e-05" y2="3.1311" gradientUnits="userSpaceOnUse">
<stop stop-color="#FFD600"/>
<stop offset="1" stop-color="#AF9E72"/>
</linearGradient>
<linearGradient id="paint1_linear" x1="48.6889" y1="33.1898" x2="31.3112" y2="33.1898" gradientUnits="userSpaceOnUse">
<stop stop-color="#FFD600"/>
<stop offset="1" stop-color="#AF9E72"/>
</linearGradient>
<linearGradient id="paint2_linear" x1="41.1742" y1="36.9471" x2="35.0685" y2="36.9471" gradientUnits="userSpaceOnUse">
<stop stop-color="#FFD600"/>
<stop offset="1" stop-color="#AF9E72"/>
</linearGradient>
<linearGradient id="paint3_linear" x1="28.6497" y1="60.7437" x2="20.0391" y2="60.7437" gradientUnits="userSpaceOnUse">
<stop stop-color="#FFD600"/>
<stop offset="1" stop-color="#AF9E72"/>
</linearGradient>
<linearGradient id="paint4_linear" x1="17.3777" y1="60.7437" x2="8.76712" y2="60.7437" gradientUnits="userSpaceOnUse">
<stop stop-color="#FFD600"/>
<stop offset="1" stop-color="#AF9E72"/>
</linearGradient>
<linearGradient id="paint5_linear" x1="28.6497" y1="45.7142" x2="20.0391" y2="45.7142" gradientUnits="userSpaceOnUse">
<stop stop-color="#FFD600"/>
<stop offset="1" stop-color="#AF9E72"/>
</linearGradient>
<linearGradient id="paint6_linear" x1="17.3777" y1="45.7142" x2="8.76712" y2="45.7142" gradientUnits="userSpaceOnUse">
<stop stop-color="#FFD600"/>
<stop offset="1" stop-color="#AF9E72"/>
</linearGradient>
<linearGradient id="paint7_linear" x1="71.2329" y1="60.7437" x2="62.6223" y2="60.7437" gradientUnits="userSpaceOnUse">
<stop stop-color="#FFD600"/>
<stop offset="1" stop-color="#AF9E72"/>
</linearGradient>
<linearGradient id="paint8_linear" x1="59.9609" y1="60.7437" x2="51.3503" y2="60.7437" gradientUnits="userSpaceOnUse">
<stop stop-color="#FFD600"/>
<stop offset="1" stop-color="#AF9E72"/>
</linearGradient>
<linearGradient id="paint9_linear" x1="71.2329" y1="45.7142" x2="62.6223" y2="45.7142" gradientUnits="userSpaceOnUse">
<stop stop-color="#FFD600"/>
<stop offset="1" stop-color="#AF9E72"/>
</linearGradient>
<linearGradient id="paint10_linear" x1="59.9609" y1="45.7142" x2="51.3503" y2="45.7142" gradientUnits="userSpaceOnUse">
<stop stop-color="#FFD600"/>
<stop offset="1" stop-color="#AF9E72"/>
</linearGradient>
<clipPath id="clip0">
<rect width="80" height="80" fill="white"/>
</clipPath>
</defs>
</svg>
