<svg width="20" height="20" viewBox="0 0 20 20" fill="none" xmlns="http://www.w3.org/2000/svg">
<path d="M5.58681 13.581H6.22302H17.0704C17.3325 13.581 17.5634 13.4088 17.6383 13.1576L19.9754 5.31035C20.0288 5.13105 19.9943 4.93707 19.8825 4.78707C19.7707 4.63707 19.5946 4.54871 19.4075 4.54871H4.3277L3.53036 1.87136C3.45555 1.62019 3.22458 1.448 2.96247 1.448H0.59254C0.265313 1.44796 0 1.71323 0 2.0405C0 2.36773 0.265313 2.63304 0.59254 2.63304H2.52071L3.31426 5.29754C3.31669 5.30633 3.31923 5.31504 3.32204 5.32363L5.43009 12.4018C4.22681 12.4828 3.27239 13.4869 3.27239 14.7104C3.27239 15.9865 4.31063 17.0248 5.58677 17.0248H6.17501C6.43208 17.9062 7.24677 18.5522 8.21006 18.5522C9.1733 18.5522 9.98803 17.9062 10.2451 17.0248H13.3889C13.646 17.9062 14.4607 18.5522 15.424 18.5522C16.3872 18.5522 17.2019 17.9062 17.459 17.0248H18.2224C18.5496 17.0248 18.815 16.7595 18.815 16.4322C18.815 16.105 18.5496 15.8397 18.2224 15.8397H17.459C17.2019 14.9583 16.3873 14.3123 15.424 14.3123C14.4607 14.3123 13.646 14.9583 13.3889 15.8397H10.2451C9.98803 14.9583 9.17334 14.3123 8.21006 14.3123C7.24677 14.3123 6.43204 14.9583 6.17501 15.8397H5.58677C4.96403 15.8397 4.45743 15.3331 4.45743 14.7103C4.45743 14.0876 4.96407 13.581 5.58681 13.581ZM14.2792 5.73371H18.6128L17.7972 8.47227H14.2792V5.73371ZM14.2791 9.65735H17.4442L16.6286 12.3959H14.2791V9.65735ZM9.89471 5.73371H13.0941V8.47227H9.89471V5.73371ZM9.89467 9.65735H13.0941V12.3959H9.89467V9.65735ZM8.70971 12.3959H6.66482L5.84923 9.65735H8.70971V12.3959ZM4.68071 5.73371H8.70967V8.47227H5.4963L4.68071 5.73371ZM15.424 15.4973C15.9395 15.4973 16.3589 15.9167 16.3589 16.4322C16.3589 16.9477 15.9395 17.3671 15.424 17.3671C14.9085 17.3671 14.4891 16.9477 14.4891 16.4322C14.4891 15.9167 14.9085 15.4973 15.424 15.4973ZM8.21009 15.4973C8.7256 15.4973 9.14498 15.9167 9.14498 16.4322C9.14498 16.9477 8.7256 17.3671 8.21009 17.3671C7.69459 17.3671 7.27521 16.9477 7.27521 16.4322C7.27521 15.9167 7.69459 15.4973 8.21009 15.4973Z" fill="#2F2F2F"/>
</svg>
