<svg width="20" height="21" viewBox="0 0 20 21" fill="none" xmlns="http://www.w3.org/2000/svg">
<g clip-path="url(#clip0)">
<path d="M1.8095 13.8099C0.940085 11.666 0.938327 9.33838 1.8095 7.18993C1.93118 6.88993 1.78657 6.54798 1.48645 6.42626C1.1863 6.30454 0.844421 6.44919 0.722741 6.74927C-0.239839 9.12287 -0.241987 11.8718 0.722741 14.2507C0.844499 14.551 1.18661 14.6954 1.48645 14.5737C1.78661 14.452 1.93118 14.1101 1.8095 13.8099Z" fill="white"/>
<path d="M19.2773 6.7493C19.1556 6.44922 18.8136 6.30457 18.5136 6.42629C18.2134 6.54797 18.0688 6.88992 18.1905 7.19004C19.0599 9.33403 19.0617 11.6616 18.1905 13.8101C18.0344 14.195 18.3183 14.6169 18.7337 14.6169C18.9654 14.6169 19.1848 14.4786 19.2773 14.2508C20.2356 11.8875 20.2462 9.1386 19.2773 6.7493Z" fill="white"/>
<path d="M17.1013 7.63098C16.9798 7.33082 16.6378 7.18598 16.3378 7.3075C16.0376 7.42902 15.8928 7.7709 16.0143 8.07106C16.6539 9.65079 16.6553 11.3457 16.0143 12.9289C15.8581 13.3145 16.1431 13.7354 16.5576 13.7354C16.7894 13.7354 17.009 13.597 17.1013 13.369C17.8442 11.5338 17.8457 9.46993 17.1013 7.63098Z" fill="white"/>
<path d="M3.98572 8.07108C4.10724 7.77088 3.96244 7.42904 3.66224 7.30752C3.36216 7.18603 3.02021 7.3308 2.89868 7.631C2.15579 9.4662 2.15427 11.5301 2.89868 13.369C3.02025 13.6693 3.3622 13.814 3.66224 13.6925C3.96244 13.571 4.10724 13.2291 3.98572 12.9289C3.34611 11.3492 3.3447 9.65424 3.98572 8.07108Z" fill="white"/>
<path d="M13.5573 0.5H6.44275C5.47279 0.5 4.68369 1.53525 4.68369 2.80767V18.1923C4.68369 19.4647 5.47279 20.4999 6.44275 20.4999H13.5573C14.5272 20.4999 15.3163 19.4647 15.3163 18.1923V2.80772C15.3163 1.53525 14.5272 0.5 13.5573 0.5ZM5.85638 2.80772C5.85638 2.38357 6.11939 2.03848 6.44275 2.03848H13.5573C13.8806 2.03848 14.1436 2.38357 14.1436 2.80772V3.57696H5.85638V2.80772ZM5.85638 5.11539H14.1436V15.8846H5.85638V5.11539ZM14.1436 18.1923C14.1436 18.6165 13.8806 18.9616 13.5573 18.9616H6.44275C6.11943 18.9616 5.85638 18.6165 5.85638 18.1923V17.4231H14.1436V18.1923Z" fill="white"/>
</g>
<defs>
<clipPath id="clip0">
<rect width="20" height="20" fill="white" transform="translate(0 0.5)"/>
</clipPath>
</defs>
</svg>
