<svg width="32" height="32" viewBox="0 0 32 32" fill="none" xmlns="http://www.w3.org/2000/svg">
<path d="M6.76369 30.5168C10.4978 29.2161 13.7397 29.0527 16.0087 25.678C17.318 23.7348 15.5191 19.5572 17.7167 18.3018C18.774 20.1906 21.3418 23.8016 19.0563 25.9054C18.1526 26.7372 17.7229 28.0308 16.6505 28.9277C14.5258 30.7059 18.9532 30.4994 19.3589 31.9404C18.0919 32.343 16.3507 30.5615 14.8231 30.9258C14.3655 31.0354 15.3864 31.5882 15.3511 31.7527C15.3298 31.8518 12.6673 30.9716 12.2612 31.0917C11.9064 31.1963 10.9092 33.0796 11.1582 30.8044C10.6284 30.4627 9.09664 32.1239 8.15774 31.8722C8.30522 31.5448 9.24115 31.3456 9.25064 30.8728C8.18233 30.1784 6.36178 31.7013 5.22744 31.1844C5.12171 30.7304 6.77939 30.5188 6.83684 30.5166" fill="white"/>
<path d="M19.4568 27.2364C19.4032 28.7985 27.7993 31.5525 27.8164 31.534C27.1302 32.314 24.2044 29.8232 23.415 30.8402C23.1263 31.2111 24.1934 31.3712 23.9053 31.5809C23.424 31.9298 20.0817 30.158 20.5552 31.3422C20.7531 31.8337 18.0686 30.5811 18.0547 30.5827C15.7775 30.2513 18.0064 27.5753 19.4568 27.168" fill="white"/>
<path d="M13.8808 17.5951C13.8411 16.9109 12.8039 16.2389 12.4893 16.0924C9.66953 14.7875 10.3131 12.6803 9.53002 10.2785C8.88614 8.30022 7.56907 7.0453 7.71392 4.88215C7.82794 3.18624 9.1047 1.55682 9.62894 0C9.70355 1.70834 7.91322 4.7552 8.61661 6.22755C9.14855 7.34116 10.0981 8.49946 10.7189 9.59129C12.2805 12.3332 12.3102 8.0157 11.3701 6.9269C10.4301 5.83759 9.07657 3.92283 10.2687 2.6373C10.6576 3.35845 10.6934 4.39449 11.2271 5.29972C11.6651 6.03936 12.4923 6.54054 12.6905 7.42285C13.3394 10.2818 15.3779 4.1773 15.8523 4.13093C16.091 5.28509 15.2073 7.56084 14.1008 8.27922C12.4357 9.36168 13.111 9.93016 12.3948 11.4213C12.0551 12.1295 13.0077 14.7044 13.6832 14.2065C14.1935 13.8304 14.2459 11.5977 14.5252 10.932C14.894 10.0555 15.6205 9.5612 16.4492 9.05228C18.081 8.05017 18.7101 6.65894 19.407 5.01435C19.5394 5.04775 18.2848 8.98547 18.3568 8.89498C17.3942 10.1126 15.9098 10.6381 15.4273 12.183C15.0749 13.314 15.7232 14.5132 15.3317 15.5288C14.9402 16.5438 14.1183 16.8339 13.8808 17.5951Z" fill="white"/>
<path d="M14.4681 26.3462C14.4652 26.3446 14.4628 26.3424 14.4605 26.3413C14.4382 26.3418 14.4178 26.3457 14.3944 26.3462H14.4681ZM24.8859 7.45595C24.7124 8.15282 23.8499 9.54215 23.1379 9.87304C23.0112 7.12399 25.0835 5.52629 25.3338 3.04464C25.1211 3.79394 23.8911 5.81001 23.0675 6.0385C22.5649 4.58464 21.2928 3.52872 21.2928 1.88965C21.2928 3.72715 22.4088 4.88877 22.4618 6.51126C22.5027 7.72256 21.9456 8.6463 22.1712 9.95085C22.3182 10.7998 22.8705 11.7205 22.0809 12.4499C21.8884 12.6284 20.5219 13.3971 20.7088 12.6262C20.9593 11.5902 20.0433 10.5892 20.2559 9.53608C20.4334 8.65371 20.6946 7.80093 20.7837 6.88084C20.4715 7.44629 18.3071 10.778 19.6449 11.2665C19.9082 11.6153 19.5842 13.2453 18.8796 12.5374C18.2121 11.8684 18.3157 10.7068 18.3607 9.88904C18.2277 10.2346 16.8496 11.9645 17.0084 12.8622C17.1657 13.7602 15.9846 15.1504 15.7115 15.4733C15.0324 16.2786 14.653 17.5821 13.9762 18.28C12.5309 19.7737 12.2824 25.1631 14.4605 26.3418C16.8843 26.2298 16.1418 21.5891 16.0802 20.5348C15.963 18.492 17.9325 17.2468 18.0527 15.3767C18.5224 14.6812 20.1271 14.5402 20.7239 14.5198C23.8985 14.4105 23.424 11.7781 24.3273 10.0651C25.5911 7.66737 28.0425 6.47292 28.0425 3.66726C28.0165 5.43328 25.2665 5.92453 24.8859 7.45595Z" fill="white"/>
<path d="M9.99189 13.5612C9.00151 12.377 6.64786 12.0665 6.01198 10.8439C5.41164 9.68864 4.58028 8.67328 3.53569 7.83178C1.69322 6.34893 1.7963 4.38946 2.36672 3.87695C1.58394 5.49091 4.53557 8.88471 5.43208 8.76877C5.89588 7.13659 5.03698 5.99013 6.05225 4.4866C6.26135 4.66074 5.78926 7.03671 6.03035 7.60907C6.53739 8.81268 6.37093 10.4216 7.64183 11.1685C9.93384 10.346 9.86428 13.2712 9.9179 13.288" fill="white"/>
<path d="M8.89165 15.7499C9.62115 15.7499 10.2125 15.1988 10.2125 14.519C10.2125 13.8392 9.62115 13.2881 8.89165 13.2881C8.1621 13.2881 7.57074 13.8392 7.57074 14.519C7.57074 15.1988 8.1621 15.7499 8.89165 15.7499Z" fill="white"/>
<path d="M7.86471 10.6209C8.43213 10.6209 8.89209 10.1922 8.89209 9.66343C8.89209 9.13469 8.43213 8.70605 7.86471 8.70605C7.29727 8.70605 6.83728 9.13469 6.83728 9.66343C6.83728 10.1922 7.29727 10.6209 7.86471 10.6209Z" fill="white"/>
<path d="M3.49837 10.4841C4.04551 10.4841 4.48906 10.0707 4.48906 9.56088C4.48906 9.05106 4.04551 8.6377 3.49837 8.6377C2.95123 8.6377 2.50769 9.05106 2.50769 9.56088C2.50769 10.0707 2.95123 10.4841 3.49837 10.4841Z" fill="white"/>
<path d="M14.3214 5.79981C14.3214 6.30986 13.878 6.72328 13.3298 6.72328C12.7837 6.72328 12.34 6.30986 12.34 5.79981C12.34 5.29092 12.7837 4.87695 13.3298 4.87695C13.878 4.87723 14.3214 5.2912 14.3214 5.79981Z" fill="white"/>
<path d="M4.15832 5.62927C4.90796 5.62927 5.51567 5.06298 5.51567 4.36443C5.51567 3.66589 4.90796 3.09961 4.15832 3.09961C3.40867 3.09961 2.80096 3.66589 2.80096 4.36443C2.80096 5.06298 3.40867 5.62927 4.15832 5.62927Z" fill="white"/>
<path d="M24.8534 9.84021C23.5022 12.273 28.9956 9.08455 28.9956 9.08455C28.9956 9.08455 26.2048 7.40599 24.8534 9.84021Z" fill="white"/>
<path d="M19.0597 15.0856C15.9562 16.2552 23.2431 17.294 23.2431 17.294C23.2431 17.294 22.1642 13.9143 19.0597 15.0856Z" fill="white"/>
<path d="M19.3518 6.942C19.5168 8.83833 21.4925 5.07913 21.4925 5.07913C21.4925 5.07913 19.1869 5.0474 19.3518 6.942Z" fill="white"/>
<path d="M28.0387 5.52358C27.2806 7.29042 30.8449 4.74199 30.8449 4.74199C30.8449 4.74199 28.794 3.75839 28.0387 5.52358Z" fill="white"/>
<path d="M23.8782 4.68762C23.3709 6.63993 21.9744 2.41406 21.9744 2.41406C21.9744 2.41406 24.3856 2.73531 23.8782 4.68762Z" fill="white"/>
</svg>
