<svg width="20" height="20" viewBox="0 0 20 20" fill="none" xmlns="http://www.w3.org/2000/svg">
<path d="M13.2402 9.50313L8.55274 6.57344C8.37207 6.46055 8.14442 6.45457 7.95813 6.55781C7.7718 6.66106 7.65621 6.85731 7.65621 7.07031V12.9297C7.65621 13.1427 7.7718 13.3389 7.95813 13.4422C8.04664 13.4913 8.14445 13.5156 8.24215 13.5156C8.35008 13.5156 8.45785 13.4858 8.5527 13.4266L13.2402 10.4969C13.4115 10.3898 13.5156 10.202 13.5156 10C13.5156 9.79797 13.4116 9.6102 13.2402 9.50313ZM8.82813 11.8725V8.12746L11.8241 10L8.82813 11.8725Z" fill="black"/>
<path d="M17.0703 2.38281H2.92969C1.31426 2.38281 0 3.69707 0 5.3125V14.6875C0 16.3029 1.31426 17.6172 2.92969 17.6172H17.0703C18.6857 17.6172 20 16.3029 20 14.6875V5.3125C20 3.69707 18.6857 2.38281 17.0703 2.38281ZM18.8281 14.6875C18.8281 15.6568 18.0396 16.4453 17.0703 16.4453H2.92969C1.96043 16.4453 1.17188 15.6568 1.17188 14.6875V5.3125C1.17188 4.34324 1.96043 3.55469 2.92969 3.55469H17.0703C18.0396 3.55469 18.8281 4.34324 18.8281 5.3125V14.6875Z" fill="black"/>
</svg>
