<svg width="33" height="32" viewBox="0 0 33 32" fill="none" xmlns="http://www.w3.org/2000/svg">
<g clip-path="url(#clip0)">
<path d="M21.851 15.205L14.351 10.5175C14.0619 10.3369 13.6977 10.3273 13.3996 10.4925C13.1015 10.6577 12.9166 10.9717 12.9166 11.3125V20.6875C12.9166 21.0283 13.1015 21.3423 13.3996 21.5075C13.5413 21.586 13.6978 21.625 13.8541 21.625C14.0268 21.625 14.1992 21.5773 14.3509 21.4825L21.8509 16.795C22.1251 16.6237 22.2916 16.3233 22.2916 16C22.2916 15.6768 22.1251 15.3763 21.851 15.205ZM14.7916 18.996V13.0039L19.5853 16L14.7916 18.996Z" fill="white"/>
<path d="M27.9791 3.8125H5.35413C2.76944 3.8125 0.666626 5.91531 0.666626 8.5V23.5C0.666626 26.0847 2.76944 28.1875 5.35413 28.1875H27.9791C30.5638 28.1875 32.6666 26.0847 32.6666 23.5V8.5C32.6666 5.91531 30.5638 3.8125 27.9791 3.8125ZM30.7916 23.5C30.7916 25.0508 29.5299 26.3125 27.9791 26.3125H5.35413C3.80331 26.3125 2.54163 25.0508 2.54163 23.5V8.5C2.54163 6.94919 3.80331 5.6875 5.35413 5.6875H27.9791C29.5299 5.6875 30.7916 6.94919 30.7916 8.5V23.5Z" fill="white"/>
</g>
<defs>
<clipPath id="clip0">
<rect width="32" height="32" fill="white" transform="translate(0.666626)"/>
</clipPath>
</defs>
</svg>
