<svg width="80" height="80" viewBox="0 0 80 80" fill="none" xmlns="http://www.w3.org/2000/svg"><g clip-path="url(#clip0)"><path d="M72.503 27.359a8.745 8.745 0 01.162-3.058 8.332 8.332 0 00-.228-5.021 8.611 8.611 0 00-3.884-3.333 8.883 8.883 0 01-2.497-1.748 8.687 8.687 0 01-1.185-2.792 8.479 8.479 0 00-2.431-4.454 8.576 8.576 0 00-4.916-1.333 9.129 9.129 0 01-3.067-.533 8.813 8.813 0 01-2.266-1.988A8.667 8.667 0 0048.007.112a8.519 8.519 0 00-4.951.896A9.216 9.216 0 0140 1.856a9.21 9.21 0 01-3.055-.848A8.533 8.533 0 0032 .112a8.677 8.677 0 00-4.185 2.993 8.774 8.774 0 01-2.267 1.99 9.122 9.122 0 01-3.067.533 8.581 8.581 0 00-4.917 1.333 8.458 8.458 0 00-2.43 4.452 8.693 8.693 0 01-1.186 2.791 8.855 8.855 0 01-2.5 1.743 8.618 8.618 0 00-3.885 3.333 8.352 8.352 0 00-.23 5.02 8.712 8.712 0 01.163 3.057c-.33.938-.82 1.81-1.448 2.58A8.515 8.515 0 004 34.667a8.515 8.515 0 002.05 4.728 8.603 8.603 0 011.447 2.58 8.745 8.745 0 01-.164 3.057 8.332 8.332 0 00.228 5.021 8.612 8.612 0 003.884 3.334 8.878 8.878 0 012.498 1.748 8.686 8.686 0 011.185 2.792 8.479 8.479 0 002.43 4.453c.73.548 1.58.913 2.48 1.067a57.912 57.912 0 00-5.32 12.197 1.333 1.333 0 001.702 1.63l7.313-2.446 6.1 4.88a1.333 1.333 0 002.148-.823A31.637 31.637 0 0135.8 68.761c.385-.133.766-.286 1.145-.436A9.218 9.218 0 0140 67.477a9.21 9.21 0 013.055.848c.377.15.76.295 1.145.432a31.638 31.638 0 013.819 10.134 1.333 1.333 0 002.148.822l6.1-4.88 7.312 2.438a1.333 1.333 0 001.702-1.631 57.94 57.94 0 00-5.32-12.197 5.713 5.713 0 002.478-1.067 8.46 8.46 0 002.429-4.452 8.69 8.69 0 011.187-2.79 8.836 8.836 0 012.497-1.749 8.618 8.618 0 003.885-3.333c.59-1.61.67-3.364.228-5.021a8.714 8.714 0 01-.162-3.058c.33-.937.82-1.81 1.448-2.58A8.514 8.514 0 0076 34.667a8.515 8.515 0 00-2.05-4.728 8.602 8.602 0 01-1.447-2.58zM29.809 76.275l-4.976-3.983a1.344 1.344 0 00-1.254-.224l-5.467 1.824a53.896 53.896 0 014.873-10.144 7.617 7.617 0 012.562.49 8.81 8.81 0 012.266 1.989A8.668 8.668 0 0032 69.22c.163.034.327.059.492.075a34.726 34.726 0 00-2.683 6.979zm26.612-4.207c-.429-.14-.9-.057-1.254.224l-4.976 3.983a34.68 34.68 0 00-2.687-7c.168-.008.335-.026.501-.054a8.677 8.677 0 004.186-2.993 8.77 8.77 0 012.266-1.99 7.601 7.601 0 012.563-.489 53.89 53.89 0 014.873 10.143l-5.472-1.824zm15.351-34.201a10.409 10.409 0 00-1.867 3.514 10.666 10.666 0 00.126 4.079 6.39 6.39 0 01.012 3.427 6.632 6.632 0 01-2.79 2.176 10.821 10.821 0 00-3.269 2.4 10.633 10.633 0 00-1.665 3.692 6.482 6.482 0 01-1.528 3.134 6.741 6.741 0 01-3.451.772 11.07 11.07 0 00-4.025.779 10.698 10.698 0 00-3.08 2.584 6.652 6.652 0 01-2.811 2.204 6.722 6.722 0 01-3.393-.775A11.177 11.177 0 0040 64.811c-1.397.089-2.764.44-4.032 1.033a6.667 6.667 0 01-3.393.775 6.656 6.656 0 01-2.811-2.206 10.725 10.725 0 00-3.08-2.584 11.068 11.068 0 00-4.027-.778 6.76 6.76 0 01-3.45-.771 6.498 6.498 0 01-1.527-3.136 10.642 10.642 0 00-1.665-3.693 10.817 10.817 0 00-3.27-2.4 6.645 6.645 0 01-2.788-2.176 6.4 6.4 0 01.011-3.427c.304-1.338.347-2.723.127-4.077a10.414 10.414 0 00-1.867-3.516 6.533 6.533 0 01-1.561-3.188 6.541 6.541 0 011.561-3.194 10.41 10.41 0 001.867-3.514c.22-1.355.178-2.74-.126-4.079a6.383 6.383 0 01-.012-3.427 6.632 6.632 0 012.79-2.176 10.821 10.821 0 003.269-2.4 10.633 10.633 0 001.665-3.692 6.482 6.482 0 011.528-3.132 6.741 6.741 0 013.458-.772 11.067 11.067 0 004.025-.778 10.7 10.7 0 003.08-2.584 6.652 6.652 0 012.81-2.204 6.684 6.684 0 013.394.774c1.265.593 2.63.944 4.024 1.034 1.397-.09 2.764-.44 4.032-1.034a6.684 6.684 0 013.393-.774 6.656 6.656 0 012.811 2.205 10.723 10.723 0 003.08 2.584c1.282.508 2.648.772 4.027.779a6.759 6.759 0 013.457.77 6.497 6.497 0 011.52 3.136c.313 1.327.879 2.58 1.665 3.694a10.819 10.819 0 003.27 2.4 6.644 6.644 0 012.788 2.176 6.401 6.401 0 01-.011 3.426 10.667 10.667 0 00-.127 4.078 10.416 10.416 0 001.867 3.516 6.533 6.533 0 011.561 3.188 6.541 6.541 0 01-1.561 3.2z" fill="url(#paint0_linear)"/><path d="M40 6.667c-15.464 0-28 12.536-28 28s12.536 28 28 28 28-12.536 28-28c-.017-15.457-12.543-27.983-28-28zM40 60c-13.991 0-25.333-11.342-25.333-25.333C14.667 20.675 26.009 9.333 40 9.333c13.991 0 25.333 11.342 25.333 25.334C65.318 48.65 53.985 59.985 40 60z" fill="url(#paint1_linear)"/><path d="M54.667 21.333v-2.666A2.667 2.667 0 0052 16h-8a5.32 5.32 0 00-4 1.81A5.32 5.32 0 0036 16h-8a2.667 2.667 0 00-2.667 2.667v2.666H24a4 4 0 00-4 4v20a4 4 0 004 4h32a4 4 0 004-4v-20a4 4 0 00-4-4h-1.333zM28 38.667h8a2.667 2.667 0 012.667 2.666H28v-2.666zm16-20h8V36h-8a5.279 5.279 0 00-2.667.741V21.333A2.667 2.667 0 0144 18.667zm8 20v2.666H41.333A2.667 2.667 0 0144 38.667h8zm-24-20h8a2.667 2.667 0 012.667 2.666v15.408A5.279 5.279 0 0036 36h-8V18.667zm29.333 6.666v20c0 .737-.597 1.334-1.333 1.334H24a1.333 1.333 0 01-1.333-1.334v-20c0-.736.597-1.333 1.333-1.333h1.333v17.333A2.667 2.667 0 0028 44h24a2.667 2.667 0 002.667-2.667V24H56c.736 0 1.333.597 1.333 1.333z" fill="url(#paint2_linear)"/></g><defs><linearGradient id="paint0_linear" x1="76" y1=".05" x2="4" y2=".05" gradientUnits="userSpaceOnUse"><stop stop-color="#FFD600"/><stop offset="1" stop-color="#AF9E72"/></linearGradient><linearGradient id="paint1_linear" x1="68" y1="6.667" x2="12" y2="6.667" gradientUnits="userSpaceOnUse"><stop stop-color="#FFD600"/><stop offset="1" stop-color="#AF9E72"/></linearGradient><linearGradient id="paint2_linear" x1="60" y1="16" x2="20" y2="16" gradientUnits="userSpaceOnUse"><stop stop-color="#FFD600"/><stop offset="1" stop-color="#AF9E72"/></linearGradient><clipPath id="clip0"><path fill="#fff" d="M0 0h80v80H0z"/></clipPath></defs></svg>