<svg width="80" height="80" viewBox="0 0 80 80" fill="none" xmlns="http://www.w3.org/2000/svg"><g clip-path="url(#clip0)"><path d="M75.81 32.02c.049-.103.086-.21.111-.32.862-3.718-.89-6.215-2.4-7.398-.342-2.789-2.97-4.573-5.122-5.434-.22-2.627-1.217-4.76-2.974-6.353-2.876-2.605-6.996-2.957-9.011-2.957h-.062c-1.962-3.355-6.454-3.51-9.073-3.023a35.689 35.689 0 00-4.61-1.244 1.57 1.57 0 00-.607 3.078c1.513.299 3.058.725 4.588 1.268.284.101.59.118.883.049.052-.012 5.229-1.19 6.364 2.006a1.573 1.573 0 001.629 1.036c.05-.005 4.99-.44 7.802 2.12.99.902 1.6 2.064 1.85 3.527-2.116.101-5.417.844-7.135 4.247a1.569 1.569 0 102.8 1.414c1.446-2.862 5.04-2.575 5.693-2.497.58.19 4.02 1.417 3.88 3.519-.04.623.292 1.21.847 1.497a3.68 3.68 0 011.044.973c.635.863.843 1.923.622 3.154l-.106.14c-2.434.268-6.096 1.8-6.596 6.329a1.57 1.57 0 003.118.344c.317-2.87 2.782-3.44 3.844-3.553 6.874 5.042 2.022 16.799 1.7 17.553-1.7 3.253-3.836 4.917-6.513 5.07-1.148-.96-4.152-3.091-9.402-4.35a1.569 1.569 0 10-.731 3.051c4.486 1.075 7.047 2.84 7.992 3.6a5.86 5.86 0 01-.174 1.269c-1.116 4.432-7.115 6.757-13.373 5.181a16.146 16.146 0 01-2.982-1.07 1.568 1.568 0 00-2.237 1.28c-.18 2.03-.092 3.986.258 5.836l-4.118.684a60.851 60.851 0 01-.543-2.146c-.92-3.811-2.25-9.31-6.159-13.822 3.254-.792 6.385-1.315 9.335-1.557a1.568 1.568 0 10-.256-3.126c-3.9.32-8.08 1.1-12.429 2.317-3.986.54-6.778.324-7.09.296-6.8-1.022-8.698-5.13-8.257-8.342a1.569 1.569 0 00-1.926-1.738l-1.137.279c-1.983-.099-6.94-.867-9.17-3.464-.97-1.13-1.34-2.493-1.134-4.169a1.568 1.568 0 00-.825-1.579c-.007-.003-.674-.406-.839-1.114-.195-.845.371-1.855.881-2.554a1.57 1.57 0 00.205-1.464c-.012-.033-1.169-3.37.152-6.14.735-1.54 2.144-2.677 4.188-3.376a1.553 1.553 0 001.054-1.351c.002-.02.202-2.01 1.65-3.09 1.002-.745 2.446-.937 4.292-.567a1.571 1.571 0 001.857-1.291c.005-.034.708-3.298 6.828-3.414.928 1.267 2.976 4.598 1.457 7.582a1.57 1.57 0 002.796 1.424 8.086 8.086 0 00.879-3.298c.846-.36 2.165-.747 3.217-.434.684.202 1.21.7 1.609 1.517a1.568 1.568 0 102.82-1.375c-.783-1.606-2.005-2.695-3.536-3.15-1.63-.484-3.29-.175-4.517.239-.41-1.4-1.053-2.617-1.62-3.512a20.494 20.494 0 012.964-1.02 1.568 1.568 0 10-.797-3.034c-2.48.651-4.178 1.499-4.931 1.92-6.353 0-8.81 2.776-9.734 4.572-2.19-.206-4.033.247-5.495 1.354-1.705 1.29-2.403 3.145-2.684 4.292-2.41 1.01-4.133 2.575-5.129 4.662-1.445 3.03-.888 6.291-.507 7.767-.958 1.55-1.28 3.042-.955 4.45.276 1.192.958 2.022 1.532 2.536-.072 2.172.578 4.074 1.941 5.661 3.38 3.934 10.114 4.484 11.444 4.555.342 4.374 3.672 8.69 11.009 9.776l.07.01c.066.006.878.085 2.25.085a41.7 41.7 0 004.99-.312c4.326 4.09 5.669 9.642 6.657 13.736.36 1.491.67 2.779 1.076 3.771a1.568 1.568 0 001.71.954l7.097-1.18a1.57 1.57 0 001.249-1.985 16.46 16.46 0 01-.628-4.247c.46.154.928.29 1.401.41 3.763.946 7.594.74 10.789-.58 3.355-1.389 5.626-3.831 6.393-6.878.106-.421.18-.85.224-1.283 2.677-.372 5.9-1.965 8.372-6.726.014-.028.028-.056.04-.084.068-.152 1.667-3.782 2.134-8.207.578-5.47-.824-9.782-4.063-12.582z" fill="url(#paint0_linear)"/><path d="M36.487 27.41c.017.09.424 2.253 1.924 4.374.358.506.796 1.035 1.326 1.541-.282 1.612-2.747 2.493-2.805 2.514a1.57 1.57 0 001.008 2.97c1.45-.488 3.557-1.706 4.49-3.662 1.219.55 2.689.907 4.455.907.112 0 .226-.002.34-.005a1.568 1.568 0 00-.039-3.137h-.04c-6.294.159-7.52-5.798-7.574-6.071a1.568 1.568 0 00-3.085.569z" fill="url(#paint1_linear)"/><path d="M55.611 41.183c2.724-4.759 1.648-8.439.267-10.688-1.46-2.375-3.562-3.626-3.65-3.678a1.566 1.566 0 00-2.14.554 1.572 1.572 0 00.545 2.148c.016.01 1.59.966 2.625 2.707 1.307 2.197 1.182 4.686-.37 7.399a1.569 1.569 0 002.723 1.558z" fill="url(#paint2_linear)"/><path d="M72.237 44.85a1.569 1.569 0 00-1.823-2.554c-1.53 1.093-2.921 1.504-4.137 1.22-1.83-.425-2.87-2.305-2.895-2.349a1.568 1.568 0 00-2.777 1.459c.061.118 1.42 2.668 4.135 3.694-.486 1.919-.795 5.305 2.04 7.676a1.567 1.567 0 102.012-2.407c-1.73-1.447-1.244-3.823-.903-4.898 1.417-.174 2.872-.788 4.348-1.842z" fill="url(#paint3_linear)"/><path d="M26.056 34.775a1.569 1.569 0 00-3.112.395c.273 2.147-1.411 3.71-2.409 4.434-2.51-1.243-5.321-.77-5.461-.745-.85.15-1.416.96-1.27 1.81a1.573 1.573 0 001.809 1.281c.027-.005 2.674-.429 4.259.944.904.785 1.342 2.096 1.3 3.899a1.569 1.569 0 003.136.073c.05-2.11-.4-3.845-1.336-5.183 1.537-1.276 3.504-3.596 3.084-6.908z" fill="url(#paint4_linear)"/><path d="M11.306 26.552a3.51 3.51 0 01-.756 1.105 5.05 5.05 0 01-1.96 1.202 1.569 1.569 0 00.828 3.025c.1-.027 2.07-.577 3.591-2.268a5.98 5.98 0 003.626 1.183c.375 0 .76-.031 1.151-.095a9.13 9.13 0 003.255-1.219 1.568 1.568 0 10-1.707-2.632 6.2 6.2 0 01-2.046.755c-1.13.182-2.023-.076-2.759-.806.356-1.351.313-2.858-.133-4.5a1.567 1.567 0 10-3.028.821c.36 1.328.35 2.44-.033 3.36l-.03.07z" fill="url(#paint5_linear)"/><path d="M48.014 13.209c-2.65-1.572-5.694-.76-5.822-.725a1.569 1.569 0 00.833 3.025c.018-.005 1.898-.487 3.389.397.886.527 1.498 1.487 1.82 2.853a1.57 1.57 0 003.054-.718c-.525-2.229-1.626-3.854-3.274-4.832z" fill="url(#paint6_linear)"/><path d="M42.332 42.784c-1.117 1.92-2.733 2.948-4.8 3.056a8.037 8.037 0 01-3.061-.463 1.568 1.568 0 00-1.194 2.901c.184.077 1.776.71 3.883.71.13 0 .261-.003.395-.008 2.24-.085 5.357-.956 7.489-4.618a1.569 1.569 0 00-2.712-1.578z" fill="url(#paint7_linear)"/><path d="M53.69 51.984a1.577 1.577 0 00-1.71-.643 1.582 1.582 0 00-1.156 1.36 1.58 1.58 0 00.89 1.571c.577.27 1.278.165 1.743-.272a1.58 1.58 0 00.233-2.016z" fill="url(#paint8_linear)"/><path d="M34.717 6.853c.249.603.872.998 1.523.967a1.581 1.581 0 001.41-1.063 1.581 1.581 0 00-.49-1.716 1.58 1.58 0 00-1.865-.093 1.585 1.585 0 00-.578 1.905z" fill="url(#paint9_linear)"/></g><defs><linearGradient id="paint0_linear" x1="80" y1="5.261" x2="0" y2="5.261" gradientUnits="userSpaceOnUse"><stop stop-color="#FFD600"/><stop offset="1" stop-color="#AF9E72"/></linearGradient><linearGradient id="paint1_linear" x1="48.754" y1="25.559" x2="35.87" y2="25.559" gradientUnits="userSpaceOnUse"><stop stop-color="#FFD600"/><stop offset="1" stop-color="#AF9E72"/></linearGradient><linearGradient id="paint2_linear" x1="57.299" y1="26.602" x2="49.869" y2="26.602" gradientUnits="userSpaceOnUse"><stop stop-color="#FFD600"/><stop offset="1" stop-color="#AF9E72"/></linearGradient><linearGradient id="paint3_linear" x1="72.894" y1="40.331" x2="60.426" y2="40.331" gradientUnits="userSpaceOnUse"><stop stop-color="#FFD600"/><stop offset="1" stop-color="#AF9E72"/></linearGradient><linearGradient id="paint4_linear" x1="26.114" y1="33.404" x2="13.781" y2="33.404" gradientUnits="userSpaceOnUse"><stop stop-color="#FFD600"/><stop offset="1" stop-color="#AF9E72"/></linearGradient><linearGradient id="paint5_linear" x1="21.756" y1="21.144" x2="7.441" y2="21.144" gradientUnits="userSpaceOnUse"><stop stop-color="#FFD600"/><stop offset="1" stop-color="#AF9E72"/></linearGradient><linearGradient id="paint6_linear" x1="51.33" y1="12.243" x2="41.039" y2="12.243" gradientUnits="userSpaceOnUse"><stop stop-color="#FFD600"/><stop offset="1" stop-color="#AF9E72"/></linearGradient><linearGradient id="paint7_linear" x1="45.257" y1="42.004" x2="32.308" y2="42.004" gradientUnits="userSpaceOnUse"><stop stop-color="#FFD600"/><stop offset="1" stop-color="#AF9E72"/></linearGradient><linearGradient id="paint8_linear" x1="53.951" y1="51.288" x2="50.817" y2="51.288" gradientUnits="userSpaceOnUse"><stop stop-color="#FFD600"/><stop offset="1" stop-color="#AF9E72"/></linearGradient><linearGradient id="paint9_linear" x1="37.731" y1="4.688" x2="34.6" y2="4.688" gradientUnits="userSpaceOnUse"><stop stop-color="#FFD600"/><stop offset="1" stop-color="#AF9E72"/></linearGradient><clipPath id="clip0"><path fill="#fff" d="M0 0h80v80H0z"/></clipPath></defs></svg>