<svg width="127" height="40" viewBox="0 0 127 40" fill="none" xmlns="http://www.w3.org/2000/svg"><g clip-path="url(#clip0)" fill="#fff"><path d="M40.5 30.93c.573 0 .927-.373.927-.966V19.049h.094l7.913 11.268c.333.479.573.614 1.084.614.667 0 1.063-.385 1.063-1.02V16.606c0-.592-.355-.966-.928-.966-.573 0-.928.374-.928.966v10.957h-.093l-7.902-11.3c-.334-.478-.584-.623-1.085-.623-.646 0-1.073.436-1.073 1.091v13.234c0 .593.354.967.927.967zm14.938-.144h7.642c.531 0 .896-.343.896-.842 0-.499-.365-.842-.896-.842h-6.704v-5.156h6.328c.521 0 .886-.343.886-.832 0-.499-.365-.832-.886-.832h-6.328V17.47h6.704c.531 0 .896-.343.896-.842 0-.499-.365-.842-.896-.842h-7.642c-.573 0-.938.374-.938.967V29.82c0 .593.365.967.938.967zm17.212.249c4.263 0 6.932-2.983 6.932-7.745 0-4.76-2.669-7.755-6.933-7.755-4.263 0-6.932 2.994-6.932 7.755 0 4.762 2.669 7.745 6.932 7.745zm0-1.726c-3.076 0-5.005-2.328-5.005-6.019 0-3.7 1.93-6.03 5.004-6.03 3.076 0 5.004 2.33 5.004 6.03 0 3.69-1.928 6.02-5.004 6.02zm18.92 1.621c.594 0 .907-.228 1.147-.852l5.056-13.109c.073-.197.115-.374.115-.52 0-.467-.396-.81-.95-.81-.457 0-.708.187-.885.665L91.6 28.509h-.062l-4.451-12.205c-.167-.457-.449-.665-.897-.665-.563 0-.938.322-.938.81 0 .146.031.312.115.52l5.045 13.099c.24.624.563.863 1.157.863zm9.132 0c.574 0 .939-.373.939-.966V16.606c0-.593-.365-.967-.939-.967-.573 0-.938.374-.938.966v13.359c0 .593.365.967.938.967zm8.601.002c.574 0 .938-.375.938-.967V17.469h4.003c.532 0 .896-.343.896-.842 0-.499-.364-.842-.896-.842h-9.883c-.531 0-.896.343-.896.842 0 .5.365.842.896.842h4.004v12.496c0 .592.364.967.938.967zm5.629-.002c.469 0 .74-.218.918-.717l1.323-3.721h5.953l1.334 3.721c.178.5.449.718.918.718.542 0 .938-.343.938-.822 0-.135-.031-.29-.115-.52l-4.847-13.056c-.23-.614-.605-.894-1.178-.894-.615 0-1.001.29-1.23.904l-4.837 13.047c-.084.228-.115.384-.115.52 0 .478.396.82.938.82zm2.784-6.029l2.408-6.84h.062l2.408 6.84h-4.878zM5.955 38.146c4.667-1.626 8.72-1.83 11.556-6.049 1.636-2.429-.612-7.65 2.135-9.22 1.321 2.361 4.531 6.875 1.674 9.504-1.13 1.04-1.667 2.657-3.007 3.778-2.656 2.223 2.878 1.965 3.386 3.766-1.584.503-3.76-1.723-5.67-1.268-.572.137.704.828.66 1.033-.027.124-3.355-.976-3.863-.826-.443.13-1.69 2.485-1.378-.359-.662-.427-2.577 1.65-3.75 1.335.183-.41 1.353-.658 1.365-1.25-1.335-.867-3.61 1.036-5.029.39-.132-.567 1.94-.832 2.012-.835"/><path d="M21.82 34.044c-.066 1.953 10.429 5.396 10.45 5.373-.858.974-4.515-2.139-5.501-.868-.361.464.973.664.612.926-.601.436-4.78-1.779-4.187-.298.247.614-3.108-.952-3.126-.95-2.846-.414-.06-3.759 1.753-4.268M14.85 21.994c-.049-.856-1.345-1.696-1.738-1.879-3.525-1.63-2.72-4.265-3.7-7.267-.804-2.473-2.45-4.041-2.27-6.745C7.285 3.983 8.881 1.946 9.536 0c.093 2.135-2.144 5.944-1.265 7.784.665 1.392 1.851 2.84 2.627 4.205 1.953 3.427 1.99-1.97.815-3.33-1.175-1.362-2.867-3.756-1.377-5.362.486.901.53 2.196 1.198 3.328.547.924 1.581 1.55 1.829 2.653.811 3.574 3.36-4.056 3.952-4.114.299 1.442-.806 4.287-2.19 5.185-2.08 1.353-1.236 2.064-2.132 3.928-.424.885.766 4.103 1.61 3.481.639-.47.704-3.261 1.053-4.093.461-1.096 1.37-1.714 2.405-2.35 2.04-1.252 2.826-2.991 3.698-5.047.165.042-1.403 4.964-1.313 4.85-1.203 1.523-3.059 2.18-3.662 4.11-.44 1.414.37 2.913-.12 4.183-.489 1.269-1.516 1.631-1.813 2.583z"/><path d="M15.585 32.933l-.01-.007c-.027.001-.053.006-.082.007h.092zM28.607 9.32c-.217.871-1.295 2.608-2.185 3.021-.158-3.436 2.432-5.433 2.745-8.535-.266.937-1.803 3.457-2.833 3.742-.628-1.817-2.218-3.137-2.218-5.186 0 2.297 1.395 3.75 1.46 5.777.052 1.514-.644 2.669-.362 4.3.183 1.06.874 2.212-.113 3.123-.24.224-1.949 1.184-1.715.22.313-1.294-.832-2.545-.566-3.862.221-1.103.548-2.169.66-3.319-.39.707-3.096 4.872-1.424 5.482.329.436-.076 2.474-.957 1.589-.834-.836-.705-2.288-.648-3.31-.167.431-1.89 2.594-1.69 3.716.196 1.122-1.28 2.86-1.622 3.264-.849 1.006-1.323 2.636-2.169 3.508-1.806 1.867-2.117 8.604.605 10.077 3.03-.14 2.102-5.94 2.025-7.258-.147-2.554 2.315-4.11 2.466-6.448.587-.87 2.593-1.046 3.339-1.071 3.968-.137 3.375-3.427 4.504-5.568 1.58-2.998 4.644-4.49 4.644-7.998-.033 2.208-3.47 2.822-3.946 4.736zM9.99 16.95c-1.238-1.48-4.18-1.867-4.975-3.396A11.805 11.805 0 001.92 9.79C-.383 7.936-.255 5.486.458 4.846-.52 6.863 3.17 11.106 4.29 10.96c.58-2.04-.494-3.473.775-5.352.262.217-.328 3.187-.027 3.903.634 1.504.426 3.515 2.014 4.449 2.865-1.028 2.778 2.628 2.845 2.65m-1.282 3.077c.911 0 1.65-.69 1.65-1.539 0-.85-.739-1.539-1.65-1.539-.912 0-1.652.69-1.652 1.539 0 .85.74 1.539 1.652 1.539z"/><path d="M7.33 13.276c.71 0 1.285-.535 1.285-1.197 0-.66-.575-1.196-1.284-1.196-.71 0-1.285.536-1.285 1.197 0 .66.575 1.196 1.285 1.196zm-5.457-.171c.684 0 1.238-.517 1.238-1.154 0-.637-.554-1.154-1.238-1.154-.684 0-1.238.517-1.238 1.154 0 .637.554 1.154 1.238 1.154zM15.402 7.25c0 .637-.555 1.154-1.24 1.154-.683 0-1.237-.517-1.237-1.155 0-.636.554-1.153 1.237-1.153.685 0 1.24.518 1.24 1.153zM2.698 7.036c.937 0 1.697-.708 1.697-1.581s-.76-1.581-1.697-1.581S1 4.582 1 5.455s.76 1.581 1.697 1.581zM28.566 12.3c-1.688 3.04 5.178-.945 5.178-.945s-3.488-2.098-5.178.945zm-7.242 6.556c-3.879 1.462 5.23 2.76 5.23 2.76s-1.35-4.224-5.23-2.76zm.366-10.179c.206 2.37 2.675-2.328 2.675-2.328s-2.882-.04-2.675 2.328zm10.858-1.773c-.948 2.209 3.508-.977 3.508-.977s-2.564-1.229-3.508.977zm-5.2-1.044c-.635 2.44-2.38-2.842-2.38-2.842s3.014.401 2.38 2.841z"/></g><defs><clipPath id="clip0"><path fill="#fff" d="M0 0h126.316v40H0z"/></clipPath></defs></svg>