<svg width="340" height="464" viewBox="0 0 340 464" fill="none" xmlns="http://www.w3.org/2000/svg"><g clip-path="url(#clip0)"><rect width="340" height="464" rx="4" fill="#F5F5F5"/><path d="M63 340L221 0h119v451L63 340z" fill="url(#paint0_linear)"/><path d="M0 187l340 138v139H0V187z" fill="#2F2F2F"/><g clip-path="url(#clip1)"><path d="M190.079 137.486c0-8.726.151-16.851.606-24.374l-23.185 4.364v2.106l2.273.301c1.667.15 2.727.752 3.334 1.655.606 1.053 1.06 2.558 1.363 4.815.303 4.363.607 14.293.455 29.94 0 15.498-.152 25.277-.455 29.039 8.335 1.805 14.851 2.557 19.7 2.557 9.093 0 16.215-2.557 21.367-7.823 5.153-5.116 7.881-12.338 7.881-21.215 0-7.071-1.97-12.939-5.91-17.603-3.941-4.664-8.941-6.921-14.851-6.921-3.94 0-8.032 1.053-12.578 3.159zm.455 46.341c-.304-4.815-.607-19.258-.607-42.88 1.364-.452 3.183-.752 5.456-.752 3.637 0 6.516 1.805 8.638 5.566 2.121 3.762 3.182 8.276 3.182 13.993 0 7.071-1.212 12.789-3.637 17.603-2.425 4.665-5.456 7.072-9.244 7.072-1.212-.301-2.425-.451-3.788-.602zm-110.018-69.21H19.9v3.009l3.183.301c2.424.451 4.091 1.354 5.152 2.708 1.06 1.505 1.667 3.912 1.819 7.222 1.212 16.249 1.212 31.446 0 45.438-.304 3.31-.91 5.717-1.819 7.222-1.06 1.505-2.728 2.407-5.152 2.708l-3.183.452v3.009h39.097v-3.009l-4.091-.301c-2.425-.301-4.092-1.354-5.152-2.709-1.061-1.504-1.667-3.911-1.819-7.222a274.432 274.432 0 01-.758-20.612l8.184.15c4.394.151 7.425 3.461 8.94 10.081h3.031V138.54h-3.03c-1.516 6.469-4.395 9.779-8.942 9.93l-8.183.15c0-13.541.303-23.17.758-29.038h11.972c8.486 0 14.244 5.416 17.578 16.249l3.637-1.053-.606-20.161zm-7.122 46.341c0 7.823 2.273 14.293 6.667 19.409 4.395 5.115 10.911 7.522 19.094 7.522 8.183 0 14.851-2.557 19.7-7.823 4.85-5.116 7.123-11.586 7.123-19.409 0-7.824-2.273-14.294-6.668-19.409-4.395-5.116-10.911-7.523-19.094-7.523-8.183 0-14.85 2.558-19.7 7.824-4.85 5.115-7.122 11.585-7.122 19.409zm33.793-17.153c1.818 4.364 2.576 10.081 2.576 17.002 0 15.949-3.334 23.772-9.85 23.772-3.334 0-5.91-2.257-7.728-6.77-1.819-4.514-2.577-10.231-2.577-17.002 0-15.798 3.334-23.622 9.85-23.622 3.334-.15 5.91 2.107 7.729 6.62zm128.051 36.562c5 4.965 11.365 7.522 18.942 7.522 4.698 0 8.789-.902 12.426-2.858 3.637-1.806 6.516-4.063 8.486-6.771l-1.515-1.805c-3.334 2.557-7.122 3.761-11.517 3.761-6.062 0-10.759-1.956-13.942-6.018-3.333-4.063-4.849-9.178-4.546-15.798h32.43c0-7.222-1.819-13.09-5.607-17.754-3.789-4.514-9.093-6.771-15.912-6.771-8.486 0-15.002 2.709-19.7 7.975-4.698 5.266-6.971 11.735-6.971 19.409 0 7.823 2.425 14.142 7.426 19.108zm11.214-37.765c1.666-3.611 3.788-5.417 6.667-5.417 4.546 0 6.819 5.718 6.819 17.303l-16.063.301c.152-4.514.91-8.576 2.577-12.187zm70.314-6.018c-4.092-1.806-9.244-2.859-15.457-2.859-6.365 0-11.366 1.655-15.154 4.815-3.789 3.159-5.759 7.071-5.759 11.735 0 4.062 1.213 7.222 3.486 9.479 2.273 2.257 5.91 4.213 10.607 5.868 4.244 1.504 7.274 3.009 8.79 4.363 1.515 1.505 2.424 3.16 2.424 5.416 0 2.107-.757 4.063-2.424 5.567-1.516 1.655-3.637 2.408-6.365 2.408-6.668 0-11.668-4.815-15.154-14.444l-2.576.752.606 15.046c5.456 2.106 11.517 3.159 18.185 3.159 6.971 0 12.274-1.504 16.215-4.664 3.94-3.009 5.91-7.372 5.91-12.789 0-3.611-.91-6.62-2.88-8.877-1.97-2.256-5.152-4.212-9.698-6.018-5.001-1.805-8.486-3.46-10.305-4.965-1.818-1.505-2.728-3.31-2.728-5.567s.607-4.062 1.97-5.567c1.364-1.504 3.031-2.106 5.153-2.106 6.061 0 10.456 4.363 13.184 12.939l2.576-.752-.606-12.939zm-145.781-1.355c-2.122-1.053-4.395-1.504-6.971-1.504-2.576 0-5.152 1.053-8.031 3.159-2.88 2.107-5.001 4.966-6.668 8.877l.151-12.036-23.034 4.514v2.106l2.274.15c2.879.301 4.546 2.558 4.849 6.621.909 9.328.909 19.258 0 29.79-.303 4.062-1.97 6.169-4.849 6.62l-2.274.301v2.859h32.127v-2.859l-4.092-.301c-2.879-.301-4.546-2.558-4.849-6.62-.909-8.726-1.061-18.055-.303-27.684.909-1.505 2.879-2.407 5.91-2.708 3.031-.301 6.516.602 10.153 2.708l5.607-13.993z" fill="#000"/></g></g><defs><clipPath id="clip0"><rect width="340" height="464" rx="4" fill="#fff"/></clipPath><clipPath id="clip1"><path fill="#fff" transform="translate(20 113)" d="M0 0h300v75H0z"/></clipPath><linearGradient id="paint0_linear" x1="63" y1="0" x2="63" y2="451" gradientUnits="userSpaceOnUse"><stop stop-color="#FFD600"/><stop offset="1" stop-color="#AF9E72"/></linearGradient></defs></svg>