<svg width="340" height="464" viewBox="0 0 340 464" fill="none" xmlns="http://www.w3.org/2000/svg"><g clip-path="url(#clip0)"><rect width="340" height="464" rx="4" fill="#EDEDED"/><path d="M63 340L221 0h119v451L63 340z" fill="url(#paint0_linear)"/><path d="M0 187l340 138v139H0V187z" fill="#2F2F2F"/><g clip-path="url(#clip1)"><path d="M20 185.956h300V115H20v70.956z" fill="#0D3A63"/><path d="M220.307 123.401c0-.789 0-.838.904-.838 1.48 0 2.351 1.183 2.351 2.532 0 1.611-.773 2.433-2.433 2.433-.822 0-.822 0-.822-.576v-3.551zm-1.973 7.332c0 1.792-.164 1.842-.953 1.957h-.379c-.164.164-.164.427 0 .493h4.571c.164 0 .164-.378 0-.493h-.378c-.806-.165-.954-.165-.954-1.957v-2.186c0-.362 0-.378.526-.378.559 0 .756 0 1.052.575.411.674.888 1.611 1.348 2.318 1.036 1.595 1.924 2.253 3.568 2.253.592 0 .921 0 1.118-.165v-.345c-.214 0-.707-.164-1.184-.526-.789-.658-1.644-2.121-3.008-4.406 0-.164-.165-.247 0-.296.838-.345 2.055-1.118 2.055-2.696 0-1.217-.641-2.022-1.513-2.483-.74-.411-1.907-.575-3.222-.575-1.397 0-2.844 0-3.929.164-.165.165-.165.362 0 .477h.444c.805.165.822.296.822 1.924v6.247l.016.098zm-9.437 0c0 1.792-.164 1.842-.953 1.94h-.625c-.164.165-.164.428 0 .494h8.697c.247-.461.625-1.759.723-2.466-.164-.181-.394-.231-.559-.165-.591 1.381-.953 1.874-3.123 1.842-1.43 0-1.726-.165-1.924-.379-.263-.279-.296-.887-.296-1.759v-2.17c0-.427 0-.46.411-.46h.822c1.48 0 1.759 0 1.891.756l.164.674c.165.165.461.165.543 0v-3.485c-.164-.165-.395-.165-.543 0l-.164.592c-.164.723-.411.74-1.891.74h-.822c-.394 0-.411 0-.411-.461v-2.877c0-.97 0-1.003.74-1.003h1.135c.46 0 .97 0 1.364.165.543.164.806.575 1.069 1.562.164.164.476 0 .542 0-.164-.74-.197-2.088-.263-2.384h-7.743c-.165 0-.165.378 0 .493h.263c.805.164.953.164.953 1.973v6.378zm-2.844 1.924c-.542-.164-.723-.197-.772-1.332-.165-2.515-.165-5.047-.165-7.562 0-.904.181-1.184.921-1.299l.559-.164c.181-.165.164-.428 0-.493h-3.19c-.279 1.117-.822 2.12-1.364 3.255l-1.595 3.271c-.411.789-.625 1.266-.904 1.776a34.62 34.62 0 01-.789-1.546l-1.874-3.929c-.444-.92-.872-1.808-.937-2.827h-3.42c-.164 0-.164.378 0 .493l.575.164c.674.165.921.46.921 1.266 0 1.036-.164 2.45-.164 3.6-.165 1.776-.165 2.877-.247 3.962-.164 1.036-.247 1.299-1.069 1.398h-.279c-.164.164-.164.411 0 .493h3.6c.165 0 .165-.394 0-.493l-.559-.165c-.739-.164-.756-.394-.756-1.528v-3.946c0-.707 0-2.039.165-2.877.197.51.657 1.578.986 2.302l1.512 3.271c.395.855 1.118 2.515 1.414 3.436h.444c.313-.806 1.167-2.696 1.743-3.88l1.463-3.008c.312-.674.559-1.184 1.019-2.121v6.971c0 1.15 0 1.265-.739 1.397l-.461.164c-.164.165-.164.428 0 .494h4.357c.181 0 .197-.428 0-.494l-.493-.164.098.115zm-15.996-8.269c0-1.809.164-1.858.954-1.957h.361c.165-.164.165-.427 0-.493h-4.57c-.165 0-.165.378 0 .493h.378c.789.165.954.165.954 1.957v6.345c0 1.792-.165 1.842-.954 1.957h-.378c-.165.164-.165.427 0 .493h4.57c.165 0 .165-.378 0-.493h-.361c-.806-.165-.954-.165-.954-1.957v-6.345zm-11.409 6.345c0 1.792-.165 1.842-.954 1.94h-.625c-.164.165-.164.428 0 .494h8.697c.247-.461.608-1.759.724-2.466-.165-.181-.395-.231-.543-.165-.608 1.381-.97 1.874-3.14 1.842-1.43 0-1.726-.165-1.924-.379-.246-.279-.296-.887-.296-1.759v-2.17c0-.427 0-.46.412-.46h.822c1.479 0 1.775 0 1.89.756l.165.674c.164.165.476.165.558 0v-3.485c0-.165-.411-.165-.558 0l-.165.592c-.164.723-.411.74-1.89.74h-.822c-.379 0-.412 0-.412-.461v-2.877c0-.97 0-1.003.74-1.003h1.135c.46 0 .97 0 1.364.165.543.164.806.575 1.069 1.562.164.164.493 0 .559 0-.165-.74-.214-2.088-.28-2.384h-7.743c-.164.164-.164.378 0 .493h.279c.806.164.954.164.954 1.973v6.329l-.016.049zm-6.511-3.008c.872 0 .921 0 .921.493v2.515c0 1.792-.165 1.842-.954 1.957h-.378c-.164.164-.164.427 0 .493h4.571c.164 0 .164-.378 0-.493h-.378c-.79-.165-.954-.165-.954-1.957v-6.345c0-1.809.164-1.825.954-1.957h.312c.164-.164.164-.427 0-.493h-4.488c-.165 0-.165.411 0 .493h.378c.805.165.953.165.953 1.957v2.071c0 .46 0 .51-.92.51h-3.979c-.871 0-.92 0-.92-.51v-2.071c0-1.809.164-1.825.953-1.957h.296c.164-.164.164-.427 0-.493h-4.472c-.164 0-.164.411 0 .493h.378c.806.165.954.165.954 1.957v6.345c0 1.792-.164 1.842-.954 1.973h-.23c-.164.165-.164.428 0 .494h4.571c.164 0 .164-.379 0-.494h-.51c-.806-.164-.97-.164-.97-1.94v-2.515c0-.46 0-.493.921-.493h3.995l-.05-.033zm-10.341-1.513c0-1.348 0-2.827.231-3.353.164-.28.411-.329.739-.395l.395-.164c.164-.165.164-.411 0-.493h-3.748c-.165 0-.181.378 0 .493h.378c.427 0 .707.164.855.427.312.51.328 2.072.328 3.354v3.732a210.943 210.943 0 01-2.466-2.696l-1.709-1.842c-.592-.641-2.45-2.794-2.729-3.518h-3.19c-.164 0-.181.395 0 .493h.263c.23 0 .707.181.904.346.576.493.559.756.559 2.088v4.044c0 1.348 0 2.828-.23 3.354-.164.263-.427.312-.74.394l-.378.165c-.164.164-.164.411 0 .493h3.716c.164 0 .197-.378 0-.493h-.378c-.428 0-.707-.165-.872-.428-.279-.51-.296-2.071-.296-3.354v-4.422c.296.263.855.888 1.94 2.154l3.979 4.554c1.233 1.38 1.726 1.972 2.005 2.318.198 0 .444 0 .576-.231v-7.069l-.132.049zm-12.839 0c0-1.348 0-2.827.23-3.353.164-.28.411-.329.74-.395l.394-.164c.165-.165.165-.411 0-.493h-3.748c-.165 0-.181.378 0 .493h.378c.427 0 .707.164.855.427.312.51.329 2.072.329 3.354v3.732c-.165-.165-1.743-1.907-2.466-2.696l-1.694-1.842c-.608-.641-2.449-2.794-2.745-3.518h-3.19c-.164 0-.18.395 0 .493h.28c.23 0 .723.181.904.346.575.493.559.756.559 2.088v4.044c0 1.348 0 2.828-.214 3.354-.164.263-.427.312-.756.394l-.378.165c-.164.164-.164.411 0 .493h3.715c.165 0 .181-.378 0-.493h-.378c-.427 0-.707-.165-.871-.428-.28-.51-.296-2.071-.296-3.354v-4.422c.296.263.855.888 1.94 2.154l3.995 4.554c1.216 1.38 1.71 1.972 1.989 2.318.197 0 .444 0 .576-.231v-7.069l-.148.049zm-17.805 2.023c-.411 0-.444 0-.28-.494l.707-1.989c.296-.805.444-1.233.51-1.348 0 .164.164.444.477 1.348l.707 2.055c.164.395.164.428-.395.428h-1.775.049zm1.989.772c.46 0 .543 0 .691.461l.805 2.318c.247.707.165.822-.444.904h-.378c-.164.164-.164.411 0 .493h4.291c.165-.164.165-.378 0-.493h-.263c-.871-.165-.953-.28-1.348-1.414l-2.45-7.135c-.279-.773-.493-1.578-.756-2.334 0-.165-.164-.165-.296-.165 0 0-.592.707-1.183.822 0 .296-.165.707-.329 1.25l-2.335 6.066c-.361.921-.625 1.628-.838 2.071-.263.559-.444.691-.937.79l-.51.164c-.164.164-.164.411 0 .493h3.485c.165 0 .165-.378 0-.493l-.493-.164c-.641-.165-.69-.165-.362-1.151l.707-2.039c.165-.46.165-.46.576-.46h2.269l.098.016zm-6.625 3.65c-.543-.164-.74-.197-.789-1.332-.165-2.515-.165-5.047-.165-7.562 0-.904.165-1.184.921-1.299l.559-.164c.181-.165.164-.428 0-.493h-3.19c-.295 1.117-.838 2.12-1.38 3.255l-1.595 3.271c-.395.789-.608 1.266-.888 1.776a37.5 37.5 0 01-.806-1.546l-1.874-3.929c-.444-.92-.855-1.808-.937-2.827h-3.419c-.165 0-.181.378 0 .493l.575.164c.658.165.921.46.921 1.266 0 1.036-.165 2.45-.165 3.6-.164 1.776-.164 2.877-.263 3.962-.164 1.036-.23 1.299-1.052 1.398h-.296c-.164.164-.164.411 0 .493h3.601c.164 0 .164-.394 0-.493l-.559-.165c-.724-.164-.74-.394-.74-1.528v-3.946c0-.707 0-2.039.164-2.877.214.51.674 1.578.987 2.302l1.512 3.271c.411.855 1.134 2.515 1.414 3.436h.444c.312-.806 1.167-2.696 1.743-3.88l1.463-3.008c.328-.674.559-1.184 1.019-2.121v6.971c0 1.15 0 1.265-.74 1.397l-.46.164c-.165.165-.165.428 0 .494h4.356c.181 0 .214-.428 0-.494l-.476-.164.115.115zm165.996 21.619c0-4.751 0-9.979.839-11.854.427-.953 2.071-1.134 3.205-1.381l1.381-.295c.494-.428.362-1.447-.164-1.743-2.17.164-4.357.181-6.938.181-2.334 0-4.57 0-6.905-.181-.608.181-.657 1.315-.164 1.743l1.381.18c1.512.181 2.466.592 3.008 1.496 1.085 1.809 1.151 7.333 1.151 11.854v11.722c0 .953 0 1.249-.197 1.446-.592-.378-6.182-6.74-8.713-9.502l-6.001-6.494c-2.104-2.285-8.648-9.864-9.683-12.445-1.431.164-2.877.181-4.143.181-1.496 0-4.801 0-7.086-.181-.608.181-.657 1.381-.246 1.743l.904.18c.838.181 2.532.658 3.189 1.201 2.039 1.742 1.973 2.712 1.973 7.398v14.237c0 4.751 0 9.979-.773 11.853-.427.954-1.512 1.135-2.647 1.381l-1.315.296c-.493.427-.362 1.447.165 1.743 2.104-.165 3.732-.181 6.247-.181 2.285 0 4.636 0 6.855.181.592-.181.658-1.316.165-1.743l-1.315-.181c-1.496-.181-2.532-.608-3.058-1.496-1.036-1.808-1.085-7.349-1.085-11.853V152.04c0-3.189 0-3.847.181-3.847 1.019.904 3.008 3.124 6.855 7.579l14.056 16.045c4.324 4.932 6.067 6.971 7.037 8.237.707 0 1.562-.181 2.038-.838-.18-1.381-.18-8.78-.18-10.572v-14.368h-.017zm-68.473 15.93c0 6.363-.543 6.543-3.37 6.856l-2.22.23c-.411.427-.361 1.513.165 1.743 2.696-.165 6.362-.181 9.009-.181h6.855c7.037 0 12.199 0 14.846.181.838-1.611 2.153-6.182 2.515-8.714-.362-.608-1.381-.789-1.923-.361-2.105 4.866-3.42 6.559-11.048 6.494-5.047 0-6.067-.477-6.79-1.316-.904-1.035-1.019-3.189-1.019-6.263v-7.629c0-1.512 0-1.627 1.43-1.627h2.894c5.227 0 6.247.164 6.658 2.647l.427 2.4c.477.362 1.628.362 1.924 0 0-1.923-.181-4.028-.181-6.297 0-2.235.164-4.389.181-6.017-.296-.476-1.431-.476-1.924 0l-.427 2.055c-.543 2.581-1.447 2.631-6.675 2.631h-2.877c-1.381 0-1.447 0-1.447-1.611v-10.16c0-3.436 0-3.551 2.581-3.551h4.028c1.628 0 3.42.18 4.817.542 1.924.543 2.812 1.973 3.781 5.475.477.345 1.677.23 1.924-.247-.362-2.581-.723-7.332-.954-8.352-.789.165-4.274.181-8.121.181h-11.475c-2.647 0-5.475 0-7.76-.181-.477.231-.526 1.316-.164 1.743l.953.164c2.828.362 3.37.609 3.37 6.971v22.375l.017-.181zm-12.265-1.085c0-3.666.362-4.143 2.582-4.504l1.085-.198c.542-.411.476-1.446-.165-1.742-2.581.164-4.619.181-7.332.181-4.143 0-7.02 0-9.371-.181-.477.296-.477 1.331 0 1.742l2.17.362c4.028.658 4.077 1.019 4.077 5.294v2.17c0 2.154-.181 3.239-.526 3.781-.723.904-2.466 1.381-5.359 1.381-3.535 0-6.79-1.266-10.045-5.113-3.239-3.847-4.324-9.009-4.324-13.826 0-10.209 3.551-17.854 14.139-17.854 5.951 0 10.209 2.893 11.54 8.713.296.543 1.612.494 1.924-.164-.312-4.686-.723-7.76-.789-9.568-.723 0-2.466-.23-3.847-.543-2.104-.411-5.162-.888-7.99-.888-8.352 0-13.037 2.582-17.311 7.086-3.782 3.913-5.524 9.092-5.524 14.139 0 5.047 1.742 10.094 5.277 13.76 4.521 4.686 9.437 6.609 16.654 6.609 3.419 0 7.924-.707 11.656-1.611 1.151-.247 2.219-.493 2.893-.493.23-.181.23-.658 0-.905-1.134-.526-1.446-2.087-1.446-4.192v-3.501l.032.065zm-61.321-24.775c0-2.762 0-2.943 3.189-2.943 5.212 0 8.286 4.143 8.286 8.894 0 5.721-2.696 8.598-8.598 8.598-2.877 0-2.877-.164-2.877-2.038v-12.511zm-6.971 25.86c0 6.363-.542 6.543-3.37 6.905l-1.315.197c-.543.411-.362 1.497.164 1.743 2.762-.164 5.475-.197 8.121-.197 2.647 0 5.343 0 7.99.197.477-.246.543-1.332.165-1.743l-1.315-.197c-2.828-.362-3.354-.542-3.354-6.905v-7.694c0-1.266 0-1.331 1.857-1.331 1.973 0 2.647.246 3.716 2.055 1.447 2.334 3.124 5.639 4.751 8.17 3.666 5.59 6.79 7.925 12.56 7.925 2.105 0 3.256-.181 3.963-.346.197-.312.197-.97-.165-1.216-.723 0-2.466-.411-4.159-1.858-2.811-2.351-5.82-7.447-10.621-15.569-.246-.361-.361-.838 0-1.019 2.943-1.2 7.201-3.979 7.201-9.502 0-4.324-2.219-7.152-5.277-8.78-2.647-1.446-6.741-2.038-11.426-2.038-4.932 0-10.029.181-13.826.542-.477.296-.477 1.25 0 1.677l1.562.181c2.827.296 2.877 1.019 2.877 6.79v22.013h-.099zm-27.455-29.592c9.568 0 12.412 10.522 12.412 19.613 0 12.084-4.291 17.197-11.146 17.197-10.275 0-12.577-11.311-12.577-19.614 0-12.806 5.31-17.196 11.311-17.196zm.789-2.4c-12.626 0-19.646 9.091-19.646 21.339 0 10.703 5.951 20.271 19.531 20.271 12.133 0 19.284-8.845 19.284-20.682 0-10.949-5.293-20.928-19.169-20.928zm-24.167 38.782c-1.923-.296-2.581-.657-2.762-4.685-.427-8.894-.542-17.805-.542-26.699 0-3.19.591-4.143 3.238-4.571l1.99-.295c.608-.362.476-1.513-.181-1.743-1.677.164-3.781.181-6.313.181-1.316 0-3.305 0-4.932-.181-1.02 3.962-2.927 7.513-4.867 11.475l-5.655 11.541c-1.365 2.828-2.154 4.521-3.124 6.264-.772-1.398-2.334-4.39-2.81-5.425l-6.61-13.876c-1.562-3.255-3.074-6.379-3.288-9.979-2.252.181-4.34.181-6.444.181-2.236 0-3.864 0-5.64-.181-.558.181-.624 1.315-.246 1.743l2.022.361c2.351.411 3.255 1.611 3.255 4.439 0 3.666-.345 8.664-.608 12.758-.296 6.247-.46 10.16-.888 13.941-.41 3.666-.855 4.57-3.732 4.932l-1.019.164c-.345.313-.345 1.447.197 1.743 2.351-.164 4.505-.181 6.445-.181 2.203 0 4.077 0 6.296.181.477-.23.477-1.381 0-1.743l-1.989-.361c-2.565-.477-2.63-1.381-2.63-5.343 0-4.932.197-10.275.23-13.958.197-2.515.246-7.201.362-10.144h.213c.707 1.792 2.335 5.59 3.47 8.105l5.359 11.541c1.38 3.009 3.962 8.911 4.981 12.15.427.246 1.332.246 1.562 0 1.085-2.828 4.077-9.503 6.132-13.711l5.162-10.571c1.151-2.417 1.99-4.209 3.617-7.514v24.578c0 4.094-.197 4.521-2.565 4.932l-1.627.296c-.608.362-.362 1.513.214 1.743 2.63-.164 5.211-.181 8.055-.181 2.384 0 4.735 0 7.316.181.658-.23.723-1.496.164-1.743l-1.742-.296-.066-.049zm-71.235-60.812h-.28v68.703h297.617v-68.966H21.134v.263h.28v.263H318.47v-.263h-.263v68.44h.263v-.263H21.414v.263h.246v-68.44h-.246v.263-.263z" fill="#fff"/></g></g><defs><clipPath id="clip0"><rect width="340" height="464" rx="4" fill="#fff"/></clipPath><clipPath id="clip1"><path fill="#fff" transform="translate(20 115)" d="M0 0h300v70.956H0z"/></clipPath><linearGradient id="paint0_linear" x1="63" y1="0" x2="63" y2="451" gradientUnits="userSpaceOnUse"><stop stop-color="#FFD600"/><stop offset="1" stop-color="#AF9E72"/></linearGradient></defs></svg>