<svg width="581" height="73" viewBox="0 0 581 73" fill="none" xmlns="http://www.w3.org/2000/svg"><path d="M.683 52.925H3.97l5.314-13.687h24.654l5.023 13.687h3.287L23.108.365h-3.286L.682 52.925zM10.197 36.5L21.429 4.782 33.007 36.5h-22.81zm38.425 33.945h3.169V45.187c1.339 2.701 3.064 4.855 5.378 6.46 2.337 1.582 5.113 2.373 8.327 2.373 3.726 0 6.855-.912 9.387-2.737 2.557-1.85 4.493-4.344 5.808-7.483 1.314-3.163 1.972-6.716 1.972-10.658 0-3.869-.645-7.373-1.936-10.512-1.29-3.139-3.178-5.62-5.661-7.446-2.46-1.85-5.455-2.774-8.985-2.774-3.507 0-6.49.828-8.949 2.482-2.435 1.63-4.221 3.857-5.56 6.68v-8.067h-2.95v56.94zm16.874-19.49c-3.092 0-5.685-.78-7.78-2.337-2.07-1.557-3.628-3.674-4.675-6.35-1.047-2.702-1.57-5.743-1.57-9.126 0-3.43.523-6.472 1.57-9.125 1.072-2.676 2.642-4.77 4.712-6.278 2.094-1.508 4.675-2.263 7.743-2.263 3.141 0 5.735.779 7.78 2.336 2.045 1.533 3.567 3.638 4.566 6.315 1.022 2.652 1.534 5.657 1.534 9.015 0 3.383-.524 6.424-1.57 9.125-1.048 2.677-2.606 4.794-4.676 6.351-2.045 1.558-4.59 2.336-7.634 2.336zm36.711 1.97h3.068V16.571h14.537v-3.066H87.67v3.066h14.537v36.354zm40.414 1.095c3.847 0 7.244-.912 10.19-2.737 2.946-1.825 5.223-4.417 6.83-7.775l-2.557-1.46c-1.461 2.872-3.421 5.074-5.88 6.607-2.459 1.533-5.321 2.3-8.583 2.3-4.554 0-8.121-1.473-10.702-4.417-2.557-2.945-3.908-7.093-4.055-12.447h32.727c0-6.862-1.583-12.19-4.748-15.987-3.142-3.796-7.549-5.694-13.222-5.694-5.625 0-10.045 1.85-13.259 5.548-3.19 3.699-4.785 8.785-4.785 15.257 0 4.283.731 7.982 2.192 11.096 1.461 3.115 3.53 5.512 6.209 7.19 2.703 1.68 5.917 2.52 9.643 2.52zm0-38.544c4.31 0 7.706 1.339 10.19 4.015 2.508 2.677 3.969 6.522 4.383 11.534h-29.256c.34-4.94 1.777-8.76 4.309-11.46 2.557-2.726 6.015-4.089 10.374-4.089zm24.953 37.449h3.068v-32.12l14.61 32.12h3.36l14.61-32.12v32.12h3.069v-39.42h-3.142L186.932 49.13l-16.217-35.624h-3.141v39.42zm78.464 0h3.068V3.431h19.286V.365h-41.639v3.066h19.285v49.494zm38.188 1.095c3.872 0 7.147-.876 9.826-2.628 2.702-1.752 4.748-4.185 6.136-7.3 1.388-3.139 2.082-6.789 2.082-10.95 0-4.063-.694-7.653-2.082-10.767-1.364-3.115-3.385-5.548-6.063-7.3-2.679-1.777-5.978-2.665-9.899-2.665-3.823 0-7.086.864-9.788 2.592-2.679 1.727-4.724 4.149-6.137 7.263-1.412 3.115-2.118 6.74-2.118 10.877 0 4.088.694 7.702 2.082 10.84 1.388 3.14 3.421 5.597 6.1 7.374 2.678 1.776 5.965 2.664 9.861 2.664zm0-3.066c-4.845 0-8.522-1.63-11.03-4.89-2.484-3.261-3.726-7.568-3.726-12.922 0-3.455.536-6.509 1.607-9.161 1.072-2.653 2.691-4.733 4.858-6.242 2.192-1.508 4.955-2.263 8.291-2.263 4.943 0 8.632 1.606 11.067 4.818 2.46 3.188 3.689 7.47 3.689 12.848 0 5.28-1.217 9.575-3.652 12.885-2.435 3.285-6.136 4.927-11.104 4.927zm22.443 1.971c2.142.365 3.774.365 4.894 0s1.936-1.07 2.447-2.117c.512-1.07.938-2.457 1.279-4.16.633-3.067 1.217-7.228 1.753-12.484.535-5.28 1.022-11.144 1.461-17.593h19.139v36.354h3.068v-39.42h-25.348a715.02 715.02 0 01-.877 12.556c-.268 3.65-.56 6.935-.877 9.855a149.158 149.158 0 01-1.095 8.103c-.22 1.363-.5 2.543-.84 3.54-.341.998-.889 1.728-1.644 2.19-.755.439-1.875.524-3.36.256v2.92zm60.095 1.095c3.872 0 7.147-.876 9.826-2.628 2.702-1.752 4.748-4.185 6.136-7.3 1.388-3.139 2.082-6.789 2.082-10.95 0-4.063-.694-7.653-2.082-10.767-1.364-3.115-3.385-5.548-6.063-7.3-2.679-1.777-5.978-2.665-9.899-2.665-3.823 0-7.086.864-9.788 2.592-2.679 1.727-4.724 4.149-6.137 7.263-1.412 3.115-2.118 6.74-2.118 10.877 0 4.088.694 7.702 2.082 10.84 1.388 3.14 3.421 5.597 6.1 7.374 2.678 1.776 5.965 2.664 9.861 2.664zm0-3.066c-4.845 0-8.522-1.63-11.03-4.89-2.484-3.261-3.726-7.568-3.726-12.922 0-3.455.536-6.509 1.607-9.161 1.072-2.653 2.691-4.733 4.858-6.242 2.192-1.508 4.955-2.263 8.291-2.263 4.943 0 8.632 1.606 11.067 4.818 2.46 3.188 3.689 7.47 3.689 12.848 0 5.28-1.217 9.575-3.652 12.885-2.435 3.285-6.136 4.927-11.104 4.927zm26.095 1.971h3.068v-18.98l22.207 18.98h5.26l-23.741-19.71 20.6-19.71h-4.602l-19.724 18.98v-18.98h-3.068v39.42zm49.309 1.095c3.872 0 7.147-.876 9.826-2.628 2.703-1.752 4.748-4.185 6.136-7.3 1.388-3.139 2.082-6.789 2.082-10.95 0-4.063-.694-7.653-2.082-10.767-1.364-3.115-3.385-5.548-6.063-7.3-2.679-1.777-5.978-2.665-9.899-2.665-3.823 0-7.085.864-9.788 2.592-2.679 1.727-4.724 4.149-6.136 7.263-1.413 3.115-2.119 6.74-2.119 10.877 0 4.088.694 7.702 2.082 10.84 1.388 3.14 3.421 5.597 6.1 7.374 2.678 1.776 5.965 2.664 9.861 2.664zm0-3.066c-4.845 0-8.522-1.63-11.03-4.89-2.484-3.261-3.726-7.568-3.726-12.922 0-3.455.536-6.509 1.607-9.161 1.072-2.653 2.691-4.733 4.858-6.242 2.192-1.508 4.955-2.263 8.291-2.263 4.943 0 8.633 1.606 11.068 4.818 2.459 3.188 3.689 7.47 3.689 12.848 0 5.28-1.218 9.575-3.653 12.885-2.435 3.285-6.136 4.927-11.104 4.927zm26.418 1.971h2.745V39.238h25.562v13.687h2.782v-39.42h-2.782V36.5h-25.562V13.505h-2.745v39.42zm70.778-39.42h-2.849l-23.522 34.018V13.505h-3.068v39.42h2.849l23.522-34.018v34.018h3.068v-39.42zm10.49 39.42h2.803V39.238h25.504v13.687H581v-39.42h-2.839V36.5h-25.504V13.505h-2.803v39.42z" fill="#fff"/><path d="M0 36.538h33.917l.083 3H0v-3z" fill="url(#paint0_linear)"/><path d="M552.21 36.5h25.568v2.737H552.21V36.5z" fill="url(#paint1_linear)"/><path d="M226.224 0h42.004v3.65h-42.004V0z" fill="url(#paint2_linear)"/><path d="M51.818 12.775V73h-3.653V12.775h3.653z" fill="url(#paint3_linear)"/><mask id="a" fill="#fff"><rect x="134.912" y="2.737" width="5.479" height="5.475" rx="1"/></mask><rect x="134.912" y="2.737" width="5.479" height="5.475" rx="1" stroke="#fff" stroke-width="3" mask="url(#a)"/><mask id="b" fill="#fff"><rect x="144.043" y="2.737" width="5.479" height="5.475" rx="1"/></mask><rect x="144.043" y="2.737" width="5.479" height="5.475" rx="1" stroke="#fff" stroke-width="3" mask="url(#b)"/><defs><linearGradient id="paint0_linear" x1="34" y1="36.538" x2="0" y2="36.538" gradientUnits="userSpaceOnUse"><stop stop-color="#FFD600"/><stop offset="1" stop-color="#AF9E72"/></linearGradient><linearGradient id="paint1_linear" x1="577.778" y1="36.5" x2="552.21" y2="36.5" gradientUnits="userSpaceOnUse"><stop stop-color="#FFD600"/><stop offset="1" stop-color="#AF9E72"/></linearGradient><linearGradient id="paint2_linear" x1="268.228" y1="0" x2="226.224" y2="0" gradientUnits="userSpaceOnUse"><stop stop-color="#FFD600"/><stop offset="1" stop-color="#AF9E72"/></linearGradient><linearGradient id="paint3_linear" x1="51.818" y1="12.775" x2="51.818" y2="73" gradientUnits="userSpaceOnUse"><stop stop-color="#FFD600"/><stop offset="1" stop-color="#AF9E72"/></linearGradient></defs></svg>