<svg width="20" height="20" viewBox="0 0 20 20" fill="none" xmlns="http://www.w3.org/2000/svg"><path d="M19.61 0H3.827a.39.39 0 00-.39.39v1.72H2.109a.39.39 0 00-.39.39v2.11H.39A.39.39 0 000 5v12.89C0 19.055.946 20 2.11 20h15.78c1.164 0 2.11-.946 2.11-2.11V.39a.39.39 0 00-.39-.39zm-.391 17.89a1.33 1.33 0 01-1.328 1.329H3.747a2.1 2.1 0 00.472-1.328v-5.274a.39.39 0 00-.782 0v5.274a1.33 1.33 0 01-1.328 1.328A1.33 1.33 0 01.781 17.89V5.39h.938V17.5a.39.39 0 00.781 0V2.89h.938v6.212a.39.39 0 00.78 0V.782h15V17.89z" fill="#2F2F2F"/><path d="M5.703 6.172h12.031a.39.39 0 00.391-.39V2.968a.39.39 0 00-.39-.39H5.702a.39.39 0 00-.39.39V5.78c0 .216.174.39.39.39zm.39-2.813h11.25v2.032H6.094V3.359zm-.39 12.188h6.016a.39.39 0 00.39-.39v-7.5a.39.39 0 00-.39-.391H5.703a.39.39 0 00-.39.39v7.5c0 .216.174.39.39.39zm.39-7.5h5.235v6.719H6.094v-6.72zm11.641-.781h-4.14a.39.39 0 100 .78h4.14a.39.39 0 000-.78zm0 1.874h-4.14a.39.39 0 100 .782h4.14a.39.39 0 000-.781zm0 1.876h-4.14a.39.39 0 100 .78h4.14a.39.39 0 000-.78zm0 1.874h-4.14a.39.39 0 100 .782h4.14a.39.39 0 000-.781zm0 1.876h-4.14a.39.39 0 100 .78h4.14a.39.39 0 000-.78zM5.703 17.422h12.031a.39.39 0 000-.781H5.704a.39.39 0 000 .78zm-1.855-6.953a.393.393 0 00-.391.39.393.393 0 00.39.391.392.392 0 00.277-.667.393.393 0 00-.276-.114z" fill="#2F2F2F"/></svg>