<svg width="80" height="80" viewBox="0 0 80 80" fill="none" xmlns="http://www.w3.org/2000/svg"><g clip-path="url(#clip0)"><path d="M78.826 74.52h-2.583V41.8h2.583a1.174 1.174 0 00.99-1.804L71.05 26.219a1.174 1.174 0 00-.99-.544H46.75l-5.575-5.574v-4.602h11.35a1.174 1.174 0 00.977-1.825l-2.07-3.106L53.5 7.46a1.174 1.174 0 00-.976-1.825h-11.35v-1.33a1.174 1.174 0 00-2.35 0V20.1l-5.574 5.574H9.942c-.401 0-.775.205-.99.544L.183 39.996a1.175 1.175 0 00.991 1.804h2.583v32.72H1.174a1.174 1.174 0 000 2.349h77.652a1.174 1.174 0 000-2.349zm-9.412-46.496l7.273 11.428H60.525L49.097 28.024h20.317zM50.33 7.983l-1.288 1.932a1.174 1.174 0 000 1.303l1.288 1.932h-9.156V7.984h9.157zm-39.744 20.04h20.317L19.474 39.451H3.314l7.272-11.428zM6.106 41.8H19.96c.04 0 .078-.002.117-.006.017-.001.033-.004.05-.007.02-.003.042-.005.064-.01.019-.003.037-.009.056-.013l.055-.014.055-.02a.481.481 0 00.053-.02.378.378 0 00.05-.022c.018-.009.037-.017.054-.027.017-.008.032-.018.047-.027a.558.558 0 00.102-.069l.042-.03c.03-.025.059-.051.086-.079L40 22.247l19.209 19.21c.027.026.056.053.086.077l.041.031.051.038.051.03c.016.01.031.02.048.029.017.01.035.017.053.026l.05.023.054.02.055.019.054.014.057.014.063.01.051.007a1.5 1.5 0 00.116.005h13.855v32.72H48.69V58.16a3.684 3.684 0 00-3.68-3.679H34.99a3.683 3.683 0 00-3.679 3.68v16.36H6.106V41.8zM46.34 59.491H33.66v-1.33c0-.734.596-1.331 1.33-1.331h10.02c.734 0 1.33.597 1.33 1.33v1.331zM33.66 61.84h5.166v12.68H33.66V61.84zm7.514 0h5.166v12.68h-5.166V61.84z" fill="url(#paint0_linear)"/><path d="M40 50.568c4.791 0 8.689-3.898 8.689-8.69 0-4.79-3.898-8.688-8.689-8.688s-8.689 3.898-8.689 8.689c0 4.79 3.898 8.689 8.689 8.689zm0-15.03a6.348 6.348 0 016.34 6.34A6.348 6.348 0 0140 48.22a6.348 6.348 0 01-6.34-6.34A6.348 6.348 0 0140 35.54z" fill="url(#paint1_linear)"/><path d="M40 43.053c.648 0 1.174-.526 1.174-1.174V38.12a1.174 1.174 0 00-2.348 0v2.584h-2.583a1.174 1.174 0 100 2.348H40z" fill="url(#paint2_linear)"/><path d="M27.476 60.744h-6.263c-.648 0-1.174.525-1.174 1.174v7.515c0 .648.526 1.174 1.174 1.174h6.262c.649 0 1.175-.526 1.175-1.174v-7.515c0-.649-.526-1.174-1.174-1.174zM26.3 63.092v1.409h-3.913v-1.409H26.3zm-3.913 5.166V66.85H26.3v1.41h-3.913z" fill="url(#paint3_linear)"/><path d="M16.203 60.744H9.941c-.648 0-1.174.525-1.174 1.174v7.515c0 .648.526 1.174 1.174 1.174h6.262c.649 0 1.175-.526 1.175-1.174v-7.515c0-.649-.526-1.174-1.175-1.174zm-1.174 2.348v1.409h-3.913v-1.409h3.913zm-3.913 5.166V66.85h3.913v1.41h-3.913z" fill="url(#paint4_linear)"/><path d="M27.084 45.714h-5.48c-.863 0-1.565.703-1.565 1.566v8.376c0 .648.526 1.174 1.174 1.174h6.262c.649 0 1.175-.526 1.175-1.174V47.28c0-.864-.703-1.566-1.566-1.566zm-.783 2.349v2.661h-3.913v-2.661H26.3zm-3.913 6.418v-1.409H26.3v1.41h-3.913z" fill="url(#paint5_linear)"/><path d="M15.812 45.714h-5.48c-.863 0-1.565.703-1.565 1.566v8.376c0 .648.526 1.174 1.174 1.174h6.262c.649 0 1.175-.526 1.175-1.174V47.28c0-.864-.703-1.566-1.566-1.566zm-.783 2.349v2.661h-3.913v-2.661h3.913zm-3.913 6.418v-1.409h3.913v1.41h-3.913z" fill="url(#paint6_linear)"/><path d="M63.797 70.607h6.262c.648 0 1.174-.526 1.174-1.174v-7.515c0-.649-.526-1.174-1.174-1.174h-6.262c-.649 0-1.175.525-1.175 1.174v7.515c0 .648.526 1.174 1.175 1.174zm1.174-2.349V66.85h3.913v1.41h-3.913zm3.913-5.166v1.409h-3.913v-1.409h3.913z" fill="url(#paint7_linear)"/><path d="M52.525 70.607h6.262c.648 0 1.174-.526 1.174-1.174v-7.515c0-.649-.526-1.174-1.174-1.174h-6.262c-.649 0-1.175.525-1.175 1.174v7.515c0 .648.526 1.174 1.175 1.174zm1.174-2.349V66.85h3.913v1.41H53.7zm3.913-5.166v1.409H53.7v-1.409h3.913z" fill="url(#paint8_linear)"/><path d="M63.797 56.83h6.262c.648 0 1.174-.526 1.174-1.174V47.28c0-.864-.702-1.566-1.566-1.566h-5.48c-.862 0-1.565.703-1.565 1.566v8.376c0 .648.526 1.174 1.175 1.174zm1.174-2.349v-1.409h3.913v1.41h-3.913zm3.913-6.418v2.661h-3.913v-2.661h3.913z" fill="url(#paint9_linear)"/><path d="M52.525 56.83h6.262c.648 0 1.174-.526 1.174-1.174V47.28c0-.864-.702-1.566-1.566-1.566h-5.48c-.862 0-1.565.703-1.565 1.566v8.376c0 .648.526 1.174 1.175 1.174zm1.174-2.349v-1.409h3.913v1.41H53.7zm3.913-6.418v2.661H53.7v-2.661h3.913z" fill="url(#paint10_linear)"/></g><defs><linearGradient id="paint0_linear" x1="80" y1="3.131" x2="0" y2="3.131" gradientUnits="userSpaceOnUse"><stop stop-color="#FFD600"/><stop offset="1" stop-color="#AF9E72"/></linearGradient><linearGradient id="paint1_linear" x1="48.689" y1="33.19" x2="31.311" y2="33.19" gradientUnits="userSpaceOnUse"><stop stop-color="#FFD600"/><stop offset="1" stop-color="#AF9E72"/></linearGradient><linearGradient id="paint2_linear" x1="41.174" y1="36.947" x2="35.069" y2="36.947" gradientUnits="userSpaceOnUse"><stop stop-color="#FFD600"/><stop offset="1" stop-color="#AF9E72"/></linearGradient><linearGradient id="paint3_linear" x1="28.65" y1="60.744" x2="20.039" y2="60.744" gradientUnits="userSpaceOnUse"><stop stop-color="#FFD600"/><stop offset="1" stop-color="#AF9E72"/></linearGradient><linearGradient id="paint4_linear" x1="17.378" y1="60.744" x2="8.767" y2="60.744" gradientUnits="userSpaceOnUse"><stop stop-color="#FFD600"/><stop offset="1" stop-color="#AF9E72"/></linearGradient><linearGradient id="paint5_linear" x1="28.65" y1="45.714" x2="20.039" y2="45.714" gradientUnits="userSpaceOnUse"><stop stop-color="#FFD600"/><stop offset="1" stop-color="#AF9E72"/></linearGradient><linearGradient id="paint6_linear" x1="17.378" y1="45.714" x2="8.767" y2="45.714" gradientUnits="userSpaceOnUse"><stop stop-color="#FFD600"/><stop offset="1" stop-color="#AF9E72"/></linearGradient><linearGradient id="paint7_linear" x1="71.233" y1="60.744" x2="62.622" y2="60.744" gradientUnits="userSpaceOnUse"><stop stop-color="#FFD600"/><stop offset="1" stop-color="#AF9E72"/></linearGradient><linearGradient id="paint8_linear" x1="59.961" y1="60.744" x2="51.35" y2="60.744" gradientUnits="userSpaceOnUse"><stop stop-color="#FFD600"/><stop offset="1" stop-color="#AF9E72"/></linearGradient><linearGradient id="paint9_linear" x1="71.233" y1="45.714" x2="62.622" y2="45.714" gradientUnits="userSpaceOnUse"><stop stop-color="#FFD600"/><stop offset="1" stop-color="#AF9E72"/></linearGradient><linearGradient id="paint10_linear" x1="59.961" y1="45.714" x2="51.35" y2="45.714" gradientUnits="userSpaceOnUse"><stop stop-color="#FFD600"/><stop offset="1" stop-color="#AF9E72"/></linearGradient><clipPath id="clip0"><path fill="#fff" d="M0 0h80v80H0z"/></clipPath></defs></svg>