<svg width="20" height="20" viewBox="0 0 20 20" fill="none" xmlns="http://www.w3.org/2000/svg"><path d="M5.587 13.581H17.07a.593.593 0 00.568-.423l2.337-7.848a.593.593 0 00-.568-.761H4.327L3.53 1.87a.593.593 0 00-.568-.423H.592a.592.592 0 100 1.185h1.929l.793 2.665a.587.587 0 00.008.026l2.108 7.078a2.317 2.317 0 00-2.158 2.308 2.317 2.317 0 002.315 2.315h.588a2.123 2.123 0 002.035 1.527c.963 0 1.778-.646 2.035-1.527h3.144a2.123 2.123 0 002.035 1.527c.963 0 1.778-.646 2.035-1.527h.763a.593.593 0 000-1.185h-.763a2.123 2.123 0 00-2.035-1.528c-.963 0-1.778.646-2.035 1.528h-3.144a2.123 2.123 0 00-2.035-1.528c-.963 0-1.778.646-2.035 1.528h-.588a1.13 1.13 0 01-1.13-1.13c0-.622.507-1.129 1.13-1.129zm8.692-7.847h4.334l-.816 2.738H14.28V5.734zm0 3.923h3.165l-.815 2.739h-2.35V9.657zM9.895 5.734h3.2v2.738h-3.2V5.734zm0 3.923h3.2v2.739h-3.2V9.657zM8.71 12.396H6.665l-.816-2.739h2.86v2.739zM4.68 5.734h4.03v2.738H5.496l-.815-2.738zm10.744 9.763a.936.936 0 010 1.87.936.936 0 010-1.87zm-7.214 0a.936.936 0 010 1.87.936.936 0 010-1.87z" fill="#2F2F2F"/></svg>