<svg width="32" height="32" viewBox="0 0 32 32" fill="none" xmlns="http://www.w3.org/2000/svg"><path d="M6.764 30.517c3.734-1.3 6.976-1.464 9.245-4.839 1.309-1.943-.49-6.12 1.708-7.376 1.057 1.889 3.625 5.5 1.34 7.603-.904.832-1.334 2.126-2.406 3.023-2.125 1.778 2.302 1.571 2.708 3.012-1.267.403-3.008-1.379-4.536-1.014-.457.11.563.662.528.827-.021.099-2.684-.781-3.09-.661-.355.104-1.352 1.988-1.103-.288-.53-.341-2.061 1.32-3 1.068.147-.327 1.083-.526 1.093-1-1.069-.694-2.89.83-4.024.312-.105-.454 1.552-.665 1.61-.667" fill="#fff"/><path d="M19.457 27.236c-.054 1.563 8.342 4.316 8.36 4.298-.687.78-3.613-1.71-4.402-.694-.289.371.778.531.49.74-.481.35-3.823-1.422-3.35-.238.198.492-2.486-.76-2.5-.76-2.277-.33-.049-3.007 1.402-3.414m-5.577-9.573c-.039-.684-1.076-1.356-1.39-1.503-2.82-1.304-2.177-3.412-2.96-5.813C8.886 8.3 7.57 7.044 7.714 4.881 7.828 3.186 9.104 1.557 9.629 0c.075 1.708-1.716 4.755-1.012 6.228.532 1.113 1.481 2.271 2.102 3.363 1.562 2.742 1.591-1.575.651-2.664-.94-1.09-2.293-3.004-1.101-4.29.389.721.424 1.757.958 2.663.438.74 1.265 1.24 1.463 2.123.65 2.859 2.688-3.246 3.162-3.292.239 1.154-.645 3.43-1.751 4.148-1.665 1.083-.99 1.651-1.706 3.142-.34.709.613 3.283 1.288 2.786.51-.377.563-2.61.842-3.275.369-.877 1.095-1.37 1.924-1.88 1.632-1.002 2.261-2.393 2.958-4.038.132.034-1.122 3.971-1.05 3.881-.963 1.218-2.447 1.743-2.93 3.288-.352 1.131.296 2.33-.095 3.346-.392 1.015-1.214 1.305-1.451 2.066z" fill="#fff"/><path d="M14.468 26.346l-.008-.005c-.022 0-.042.005-.066.005h.074zm10.418-18.89c-.174.697-1.036 2.086-1.748 2.417-.127-2.749 1.945-4.347 2.196-6.828-.213.749-1.443 2.765-2.267 2.994-.502-1.454-1.774-2.51-1.774-4.15 0 1.838 1.116 3 1.169 4.622.04 1.212-.516 2.135-.29 3.44.146.849.698 1.77-.091 2.499-.193.178-1.56.947-1.372.176.25-1.036-.666-2.037-.453-3.09.177-.882.439-1.735.528-2.655-.313.565-2.477 3.897-1.14 4.386.264.348-.06 1.978-.764 1.27-.668-.669-.564-1.83-.52-2.648-.132.346-1.51 2.075-1.352 2.973.158.898-1.023 2.288-1.296 2.611-.68.806-1.059 2.11-1.736 2.807-1.445 1.494-1.694 6.883.484 8.062 2.424-.112 1.682-4.753 1.62-5.807-.117-2.043 1.853-3.288 1.973-5.158.47-.696 2.074-.837 2.67-.857 3.175-.11 2.701-2.742 3.604-4.455 1.264-2.398 3.715-3.592 3.715-6.398-.026 1.766-2.776 2.258-3.156 3.789zM9.992 13.561c-.99-1.184-3.344-1.495-3.98-2.717a9.445 9.445 0 00-2.476-3.012c-1.843-1.483-1.74-3.443-1.17-3.955-.782 1.614 2.17 5.008 3.066 4.892.464-1.632-.395-2.779.62-4.282.21.174-.263 2.55-.022 3.122.507 1.204.34 2.813 1.612 3.56 2.292-.823 2.222 2.102 2.276 2.119M8.892 15.75c.73 0 1.32-.551 1.32-1.231s-.59-1.23-1.32-1.23c-.73 0-1.321.55-1.321 1.23 0 .68.591 1.23 1.32 1.23z" fill="#fff"/><path d="M7.865 10.62c.567 0 1.027-.428 1.027-.957 0-.528-.46-.957-1.027-.957-.568 0-1.028.429-1.028.957 0 .53.46.958 1.028.958zm-4.367-.136c.548 0 .991-.413.991-.923s-.443-.923-.99-.923c-.548 0-.991.413-.991.923s.443.923.99.923zM14.321 5.8c0 .51-.443.923-.991.923-.546 0-.99-.413-.99-.923s.444-.923.99-.923c.548 0 .991.414.991.923zM4.158 5.63c.75 0 1.358-.567 1.358-1.266 0-.698-.608-1.264-1.358-1.264-.75 0-1.357.566-1.357 1.264 0 .699.608 1.265 1.357 1.265zm20.695 4.21c-1.35 2.433 4.143-.755 4.143-.755s-2.791-1.679-4.143.755zm-5.793 5.246c-3.104 1.17 4.183 2.208 4.183 2.208s-1.079-3.38-4.183-2.208zm.292-8.144c.165 1.896 2.14-1.863 2.14-1.863s-2.305-.032-2.14 1.863zm8.687-1.418c-.758 1.766 2.806-.782 2.806-.782s-2.051-.984-2.806.782zm-4.161-.836c-.507 1.952-1.904-2.274-1.904-2.274s2.412.321 1.904 2.274z" fill="#fff"/></svg>