<svg width="20" height="20" viewBox="0 0 20 20" fill="none" xmlns="http://www.w3.org/2000/svg"><path d="M13.24 9.503l-4.687-2.93a.586.586 0 00-.897.497v5.86a.586.586 0 00.897.497l4.687-2.93a.586.586 0 000-.994zm-4.412 2.37V8.127L11.824 10l-2.996 1.873z" fill="#000"/><path d="M17.07 2.383H2.93A2.933 2.933 0 000 5.313v9.375a2.933 2.933 0 002.93 2.93h14.14a2.933 2.933 0 002.93-2.93V5.312a2.933 2.933 0 00-2.93-2.93zm1.758 12.305a1.76 1.76 0 01-1.758 1.757H2.93a1.76 1.76 0 01-1.758-1.758V5.313c0-.97.788-1.758 1.758-1.758h14.14c.97 0 1.758.788 1.758 1.757v9.375z" fill="#000"/></svg>