<svg width="33" height="32" viewBox="0 0 33 32" fill="none" xmlns="http://www.w3.org/2000/svg"><g clip-path="url(#clip0)" fill="#fff"><path d="M21.851 15.205l-7.5-4.688a.938.938 0 00-1.434.796v9.374a.937.937 0 001.434.796l7.5-4.688a.937.937 0 000-1.59zm-7.06 3.791v-5.992L19.586 16l-4.793 2.996z"/><path d="M27.98 3.813H5.353A4.693 4.693 0 00.667 8.5v15a4.693 4.693 0 004.687 4.688H27.98a4.693 4.693 0 004.688-4.688v-15a4.693 4.693 0 00-4.688-4.688zM30.791 23.5a2.816 2.816 0 01-2.813 2.813H5.354A2.816 2.816 0 012.542 23.5v-15a2.816 2.816 0 012.812-2.813H27.98A2.816 2.816 0 0130.792 8.5v15z"/></g><defs><clipPath id="clip0"><path fill="#fff" transform="translate(.667)" d="M0 0h32v32H0z"/></clipPath></defs></svg>