<svg width="40" height="40" viewBox="0 0 40 40" fill="none" xmlns="http://www.w3.org/2000/svg"><path d="M35.276 27.523c-1.25-.75-3.85-2.313-3.85-6.377 0-3.431 2.295-5.162 3.529-6.092l.025-.02a1.172 1.172 0 00.27-1.584c-2.755-4.137-7.487-4.256-8.407-4.24h-.005a9.185 9.185 0 00-1.804.19c.21-.17.415-.35.612-.54 1.971-1.907 3.054-4.72 2.97-7.721A1.172 1.172 0 0027.447 0c-2.132 0-4.556 1.274-6.326 3.324-1.784 2.067-2.617 4.542-2.285 6.791.027.187.099.357.202.503a31.288 31.288 0 01-.969-.347c-1.24-.456-2.647-.974-3.963-.974-.027 0-2.704.02-5.377 1.68-2.338 1.453-5.126 4.477-5.126 10.638 0 3.204 1.252 7.69 3.19 11.429 1.338 2.583 4.116 6.919 7.683 6.939h.038c2.601 0 4.757-1.536 6.223-1.536 2.503 0 3.394 1.553 6.102 1.553 2.427 0 4.779-1.844 6.991-5.479a31.563 31.563 0 001.83-3.529c.739-1.663.739-1.885.739-2.047 0-.748-.57-1.09-1.122-1.422zM22.893 4.855c.962-1.114 2.173-1.94 3.32-2.305-.22 1.82-.988 3.458-2.196 4.627-.846.819-1.863 1.351-2.894 1.535.11-1.287.725-2.646 1.77-3.857zm8.822 28.632c-1.672 2.69-3.404 4.17-4.877 4.17-2.027 0-2.974-1.553-6.102-1.553-2.111 0-4.125 1.547-6.248 1.536-1.655-.01-3.807-2.183-5.616-5.674-1.778-3.43-2.927-7.494-2.927-10.351 0-4.045 1.33-6.94 3.95-8.605 2.041-1.296 4.129-1.368 4.217-1.37 1.829.004 4.368 1.623 6.217 1.623 1.666 0 3.896-1.71 6.517-1.71h.043c.636-.012 3.637.06 5.745 2.347-1.49 1.255-3.551 3.512-3.551 7.246 0 5.07 3.207 7.297 4.722 8.226-.377.913-1.096 2.517-2.09 4.115z" fill="#2F2F2F"/></svg>