<svg width="80" height="80" viewBox="0 0 80 80" fill="none" xmlns="http://www.w3.org/2000/svg"><g clip-path="url(#clip0)"><path d="M75.568 8.134a1.562 1.562 0 00-1.352-.779h-7.528L62.913.79A1.562 1.562 0 0061.56.006h-8.44c-.559 0-1.075.298-1.354.782l-3.469 6.009-2.727-1.433A4.692 4.692 0 0040.931.006a4.692 4.692 0 00-4.687 4.687 4.692 4.692 0 004.687 4.687 4.669 4.669 0 003.183-1.25l3.662 1.923 3.994 6.833c.28.48.793.774 1.348.774h7.521l3.306 5.87-3.144 4.734a4.692 4.692 0 00-5.81 4.55 4.692 4.692 0 006.708 4.23l3.122 3.122a4.692 4.692 0 004.23 6.708 4.692 4.692 0 004.688-4.687 4.692 4.692 0 00-6.708-4.23l-3.122-3.122c.298-.623.456-1.31.456-2.021a4.662 4.662 0 00-.955-2.831l3.204-4.825h7.602c.562 0 1.08-.3 1.358-.788l4.22-7.4a1.562 1.562 0 00-.005-1.558l-4.221-7.278zM40.93 6.255c-.861 0-1.562-.7-1.562-1.562 0-.861.7-1.562 1.562-1.562.861 0 1.562.7 1.562 1.562 0 .861-.7 1.562-1.562 1.562zm9.774 2.618l3.315-5.742h6.635l3.318 5.77-3.308 5.634h-6.65l-3.31-5.662zm7.41 23.94c0-.86.702-1.562 1.563-1.562a1.563 1.563 0 11-1.562 1.562zm12.499 9.374c0 .862-.7 1.562-1.562 1.562a1.563 1.563 0 111.562-1.562zm2.695-20.153h-6.62l-3.331-5.915 3.312-5.646h6.647l3.319 5.73-3.327 5.831z" fill="url(#paint0_linear)"/><path d="M30.151 32.189c-.513 0-.993.252-1.285.674-1.023 1.48-3.401 5.14-3.401 7.137a4.692 4.692 0 004.686 4.687A4.692 4.692 0 0034.838 40c0-1.998-2.378-5.657-3.401-7.137a1.562 1.562 0 00-1.286-.674zm0 9.373c-.86 0-1.562-.7-1.562-1.56.013-.478.663-1.84 1.563-3.356.899 1.515 1.549 2.876 1.562 3.355 0 .861-.701 1.561-1.563 1.561z" fill="url(#paint1_linear)"/><path d="M30.152 79.994a1.562 1.562 0 100-3.125 1.562 1.562 0 000 3.125z" fill="url(#paint2_linear)"/><path d="M41.556 36.49V22.815h1.562c.863 0 1.563-.7 1.563-1.562v-6.25c0-.862-.7-1.561-1.563-1.561H17.185c-.863 0-1.562.7-1.562 1.562v6.249c0 .863.699 1.562 1.562 1.562h1.562V36.49L.742 70.79A6.263 6.263 0 000 73.745a6.256 6.256 0 006.249 6.249h16.872a1.562 1.562 0 000-3.125H6.25a3.128 3.128 0 01-2.752-4.605l9.556-18.204H47.25l9.556 18.204a3.128 3.128 0 01-2.752 4.605H37.182a1.562 1.562 0 000 3.125h16.872a6.256 6.256 0 006.25-6.25c0-1.029-.257-2.05-.743-2.954l-18.005-34.3zM18.747 16.566h22.809v3.125H18.747v-3.125zm-4.054 34.37l7-13.334c.117-.225.179-.474.179-.726v-14.06h16.56v14.06c0 .252.06.502.178.726l7 13.334H14.693z" fill="url(#paint3_linear)"/></g><defs><linearGradient id="paint0_linear" x1="80" y1=".006" x2="36.244" y2=".006" gradientUnits="userSpaceOnUse"><stop stop-color="#FFD600"/><stop offset="1" stop-color="#AF9E72"/></linearGradient><linearGradient id="paint1_linear" x1="34.838" y1="32.189" x2="25.465" y2="32.189" gradientUnits="userSpaceOnUse"><stop stop-color="#FFD600"/><stop offset="1" stop-color="#AF9E72"/></linearGradient><linearGradient id="paint2_linear" x1="31.714" y1="76.869" x2="28.589" y2="76.869" gradientUnits="userSpaceOnUse"><stop stop-color="#FFD600"/><stop offset="1" stop-color="#AF9E72"/></linearGradient><linearGradient id="paint3_linear" x1="60.303" y1="13.442" x2="0" y2="13.442" gradientUnits="userSpaceOnUse"><stop stop-color="#FFD600"/><stop offset="1" stop-color="#AF9E72"/></linearGradient><clipPath id="clip0"><path fill="#fff" d="M0 0h80v80H0z"/></clipPath></defs></svg>