<svg width="236" height="40" viewBox="0 0 236 40" fill="none" xmlns="http://www.w3.org/2000/svg"><g clip-path="url(#clip0)" fill="#fff"><path d="M5.545 38.135c4.348-1.624 8.12-1.827 10.76-6.044 1.525-2.428-.568-7.649 1.99-9.218 1.231 2.359 4.22 6.873 1.559 9.5-1.052 1.038-1.552 2.656-2.8 3.776-2.472 2.22 2.683 1.966 3.155 3.766-1.476.503-3.503-1.724-5.282-1.27-.531.139.655.828.614 1.035-.025.124-3.124-.975-3.597-.824-.414.131-1.575 2.483-1.282-.358-.618-.428-2.4 1.648-3.493 1.334.172-.41 1.262-.659 1.272-1.248-1.245-.87-3.362 1.034-4.682.39-.124-.566 1.807-.832 1.872-.835"/><path d="M20.323 34.036c-.062 1.951 9.713 5.393 9.733 5.368-.8.976-4.206-2.137-5.123-.865-.338.462.907.662.572.924-.562.435-4.451-1.78-3.9-.3.231.614-2.896-.951-2.91-.948-2.651-.414-.055-3.759 1.631-4.266M13.83 21.987c-.044-.855-1.255-1.693-1.62-1.88-3.283-1.63-2.534-4.262-3.445-7.265-.748-2.473-2.282-4.038-2.113-6.742.13-2.117 1.62-4.155 2.23-6.1.087 2.135-1.996 5.942-1.179 7.78.621 1.393 1.724 2.837 2.448 4.203 1.817 3.428 1.852-1.969.759-3.328-1.093-1.362-2.67-3.751-1.283-5.358.452.9.493 2.196 1.117 3.327.51.924 1.473 1.552 1.704 2.652.755 3.573 3.127-4.055 3.682-4.114.28 1.442-.751 4.286-2.038 5.183-1.937 1.352-1.151 2.062-1.986 3.924-.396.886.714 4.104 1.5 3.48.593-.47.655-3.259.98-4.093.43-1.097 1.275-1.714 2.24-2.349 1.9-1.252 2.631-2.99 3.445-5.045.155.042-1.307 4.962-1.224 4.849-1.12 1.52-2.848 2.179-3.41 4.107-.41 1.413.345 2.91-.11 4.179-.462 1.28-1.417 1.641-1.697 2.59z"/><path d="M14.516 32.922c-.003-.004-.007-.004-.01-.007-.027 0-.048.007-.076.007h.086zM26.643 9.32c-.204.873-1.207 2.607-2.035 3.02-.148-3.434 2.266-5.43 2.555-8.53-.248.934-1.679 3.455-2.637 3.741-.586-1.817-2.065-3.135-2.065-5.183 0 2.297 1.3 3.749 1.361 5.776.049 1.514-.6 2.67-.337 4.297.172 1.062.813 2.21-.104 3.12-.224.225-1.814 1.183-1.596.221.293-1.293-.776-2.545-.528-3.862.207-1.103.51-2.169.614-3.317-.362.707-2.883 4.869-1.324 5.48.307.434-.07 2.472-.89 1.589-.776-.835-.655-2.286-.603-3.31-.155.43-1.758 2.593-1.576 3.713.183 1.121-1.193 2.86-1.51 3.262-.79 1.007-1.23 2.635-2.02 3.508-1.683 1.865-1.973 8.6.561 10.072 2.821-.141 1.959-5.938 1.886-7.255-.137-2.552 2.155-4.107 2.297-6.445.548-.87 2.413-1.045 3.11-1.073 3.696-.137 3.145-3.424 4.196-5.565 1.472-2.997 4.324-4.49 4.324-7.994-.035 2.207-3.234 2.821-3.68 4.735zm-17.34 7.625c-1.151-1.48-3.893-1.869-4.634-3.397a11.61 11.61 0 00-2.882-3.762C-.358 7.934-.237 5.486.428 4.845c-.91 2.017 2.524 6.255 3.569 6.11.541-2.038-.459-3.472.72-5.352.245.218-.306 3.187-.024 3.9.59 1.504.397 3.514 1.876 4.449 2.669-1.028 2.586 2.627 2.651 2.648m.342 1.545a1.54 1.54 0 01-1.538 1.538 1.54 1.54 0 01-1.538-1.538c0-.848.69-1.538 1.538-1.538a1.535 1.535 0 011.538 1.538z"/><path d="M8.024 12.08a1.197 1.197 0 11-2.394-.002 1.197 1.197 0 012.394.001zm-5.127-.132a1.155 1.155 0 11-2.31.002 1.155 1.155 0 012.31-.002zm11.447-4.696a1.154 1.154 0 11-2.304.001 1.154 1.154 0 012.304 0zM4.093 5.455a1.579 1.579 0 11-3.158.001 1.579 1.579 0 013.158 0zm22.512 6.842c-1.572 3.038 4.824-.945 4.824-.945s-3.252-2.097-4.824.945zm-6.745 6.555c-3.613 1.462 4.87 2.758 4.87 2.758s-1.256-4.22-4.87-2.758zm.342-10.176c.193 2.37 2.493-2.327 2.493-2.327s-2.686-.038-2.493 2.327zm10.113-1.769c-.883 2.207 3.265-.976 3.265-.976s-2.386-1.23-3.265.976zM25.47 5.859c-.59 2.438-2.216-2.841-2.216-2.841s2.806.403 2.217 2.841zm15.743 16.223c0 .21-.04.726-.12 1.548-.079.83-.13 1.281-.15 1.353h-.878a18.718 18.718 0 00-.108-1.147c-.065-.563-.115-.891-.151-.985h-6.874v-.639l.942-.13V15.62l-.866-.14v-.671h3.42v.67l-.984.141v6.527h2.965V15.62l-.812-.14v-.671h3.226v.67l-.844.141v6.463h1.234zm1.884-6.462l-.866-.14v-.671H48l.14 1.818h-.757l-.357-1.071-2.338-.098v2.912l1.504-.033.174-.887h.692v2.62h-.692l-.174-.932-1.504-.032v3.052l2.62-.13.627-1.385.812.227-.281 1.981h-6.224v-.65l.855-.108V15.62zm7.479 0l-.8-.14v-.671h3.29v.67l-.91.141v2.717h3.291V15.62l-.833-.14v-.671h3.247v.67l-.823.141v6.473l.823.108v.65h-3.258v-.65l.844-.108V19.16h-3.29v2.933l.909.108v.65h-3.313v-.65l.823-.108V15.62zm11.178-.097l-1.548.054-.422 2.36h-.909l.184-3.128h6.981l.13 3.128h-.855l-.422-2.36-1.526-.054v6.57l1.515.108v.65h-4.514v-.65l1.386-.108v-6.57zm6.318.097l-.812-.14v-.67h1.634c.152 0 .386-.008.704-.023.418-.028.797-.043 1.136-.043.75 0 1.343.094 1.776.282.44.18.75.443.93.79.188.339.282.772.282 1.299 0 .909-.285 1.616-.855 2.121-.563.505-1.346.758-2.35.758-.396 0-.681-.011-.854-.033v2.133l1.45.108v.65h-3.897v-.65l.856-.108V15.62zm1.58 3.649c.166.036.447.054.844.054.484 0 .87-.166 1.158-.498.296-.34.444-.899.444-1.678 0-.606-.133-1.046-.4-1.32-.26-.282-.66-.423-1.202-.423a4.76 4.76 0 00-.628.044 1.751 1.751 0 01-.216.021v3.8zm11.71 3.701c-1.227 0-2.165-.365-2.814-1.093-.65-.737-.974-1.74-.974-3.01 0-.837.17-1.566.509-2.186a3.657 3.657 0 011.418-1.45c.598-.34 1.277-.51 2.034-.51.318 0 .625.022.92.066.296.036.646.086 1.05.151.303.05.47.076.499.076l-.12 2.23h-.996l-.335-1.548c-.08-.08-.217-.144-.411-.195a3.05 3.05 0 00-.747-.076c-.614 0-1.108.285-1.483.855-.368.563-.552 1.382-.552 2.457 0 1.04.177 1.888.53 2.544.354.657.87.985 1.548.985.325 0 .574-.029.747-.086a1.29 1.29 0 00.455-.271l.476-1.115.91.087-.218 1.677a2.531 2.531 0 00-.454.087 8.363 8.363 0 01-.27.065c-.29.08-.56.14-.813.184-.245.05-.548.076-.909.076zm4.676-7.35l-.866-.14v-.671h5.769l.14 1.818h-.757l-.357-1.071-2.338-.098v2.912l1.504-.033.173-.887H90v2.62h-.693l-.173-.932-1.504-.032v3.052l2.62-.13.627-1.385.812.227-.282 1.981h-6.224v-.65l.856-.108V15.62zm7.922 0l-1.168-.14v-.671h3.377l1.288 4.654.303 1.266.26-1.266 1.277-4.654h3.345v.67l-1.18.141.866 6.463.877.118v.65h-3.453v-.65l.952-.108-.476-4.74-.206-1.982-.4 1.667-1.57 5.477h-1.147l-1.602-5.195-.552-1.949-.162 1.981-.412 4.741 1.094.108v.65h-3.01v-.65l.91-.108.79-6.473zm10.926 0l-.866-.14v-.671h5.769l.141 1.818h-.758l-.357-1.071-2.338-.098v2.912l1.505-.033.173-.887h.692v2.62h-.692l-.173-.932-1.505-.032v3.052l2.619-.13.628-1.385.812.227-.281 1.981h-6.224v-.65l.855-.108V15.62zm10.045-.811v.67l-.996.142v5.044l.725-1.213 2.76-3.572v-.26l-.909-.14v-.671h3.312v.67l-.833.142v6.472l.866.109v.65h-3.345v-.65l.909-.109v-5.109l-.649 1.17-2.836 3.604v.335l.963.109v.65h-3.377v-.65l.855-.109v-6.472l-.833-.141v-.671h3.388zm-.303-2.598c.115 0 .173.17.173.509 0 .274.075.487.227.638.152.145.401.217.747.217.339 0 .581-.072.725-.217.152-.151.227-.364.227-.638 0-.13.011-.246.033-.347.029-.108.076-.162.141-.162h1.061l.01.292c0 .534-.195.945-.584 1.234-.39.289-.931.433-1.624.433-.678 0-1.216-.144-1.613-.433-.389-.296-.584-.707-.584-1.234l.011-.292h1.05zm7.32 3.409l-.801-.14v-.671h3.291v.67l-.91.141v2.717h3.291V15.62l-.833-.14v-.671h3.247v.67l-.823.141v6.473l.823.108v.65h-3.258v-.65l.844-.108V19.16h-3.291v2.933l.91.108v.65h-3.313v-.65l.823-.108V15.62zm11.968 7.35c-1.176 0-2.056-.368-2.641-1.104-.585-.736-.877-1.74-.877-3.01 0-.83.152-1.558.455-2.186.31-.628.743-1.111 1.299-1.45.556-.34 1.194-.51 1.916-.51 1.19 0 2.082.354 2.673 1.062.599.7.899 1.681.899 2.944 0 .837-.159 1.58-.477 2.23-.31.642-.746 1.14-1.309 1.493-.563.354-1.209.53-1.938.53zm.108-7.599c-.591 0-1.053.293-1.385.877-.332.584-.498 1.45-.498 2.598 0 1.133.159 1.995.476 2.587.325.584.787.877 1.386.877.584 0 1.042-.307 1.374-.92.332-.621.498-1.512.498-2.674 0-1.126-.159-1.963-.476-2.511-.317-.556-.776-.834-1.375-.834zm8.154-.562v.67l-.996.142v5.044l.725-1.213 2.76-3.572v-.26l-.909-.14v-.671h3.312v.67l-.833.142v6.472l.866.109v.65h-3.345v-.65l.909-.109v-5.109l-.649 1.17-2.836 3.604v.335l.963.109v.65h-3.377v-.65l.855-.109v-6.472l-.833-.141v-.671h3.388zm-.303-2.598c.115 0 .173.17.173.509 0 .274.076.487.227.638.152.145.401.217.747.217.339 0 .581-.072.725-.217.152-.151.228-.364.228-.638 0-.13.011-.246.032-.347.029-.108.076-.162.141-.162h1.061l.01.292c0 .534-.194.945-.584 1.234-.39.289-.931.433-1.624.433-.678 0-1.216-.144-1.613-.433-.389-.296-.584-.707-.584-1.234l.011-.292h1.05zm17.301 2.598v.67l-.867.141v6.463l.931.118v.65h-3.334v-.65l.823-.108v-6.537h-3.009v6.537l.909.108v.65h-3.323v-.65l.845-.108V15.62l-.877-.14v-.671h7.902zm4.896 8.161c-1.227 0-2.165-.365-2.815-1.093-.649-.737-.974-1.74-.974-3.01 0-.837.17-1.566.509-2.186a3.656 3.656 0 011.418-1.45c.599-.34 1.277-.51 2.035-.51.317 0 .624.022.92.066.296.036.646.086 1.05.151.303.05.469.076.498.076l-.119 2.23h-.996l-.336-1.548c-.079-.08-.216-.144-.411-.195a3.053 3.053 0 00-.747-.076c-.613 0-1.108.285-1.483.855-.368.563-.552 1.382-.552 2.457 0 1.04.177 1.888.531 2.544.353.657.869.985 1.547.985.325 0 .574-.029.747-.086.181-.065.332-.155.455-.271l.476-1.115.909.087-.216 1.677a2.532 2.532 0 00-.455.087 8.288 8.288 0 01-.27.065c-.289.08-.56.14-.812.184-.245.05-.549.076-.909.076zm7.251-8.161v.67l-.996.141v5.045l.725-1.213 2.761-3.572v-.26l-.91-.14v-.671h3.313v.67l-.834.141v6.473l.866.108v.65h-3.345v-.65l.91-.108v-5.109l-.65 1.17-2.836 3.604v.335l.964.108v.65h-3.378v-.65l.856-.108V15.62l-.834-.14v-.671h3.388zm8.847 4.113l-2.208-3.29-.747-.152v-.671h3.539v.67l-.92.152 1.483 2.457 1.526-2.468-.931-.14v-.671h2.782v.67l-.877.152-2.099 2.944 2.359 3.518.758.108v.65h-3.529v-.65l.91-.108-1.624-2.652-1.559 2.652 1.039.108v.65h-2.955v-.65l.909-.108 2.144-3.171zm8.881 4.048c-1.176 0-2.057-.368-2.641-1.104-.585-.736-.877-1.74-.877-3.01 0-.83.151-1.558.454-2.186.311-.628.744-1.111 1.299-1.45.556-.34 1.195-.51 1.916-.51 1.191 0 2.082.354 2.674 1.062.599.7.898 1.681.898 2.944 0 .837-.158 1.58-.476 2.23a3.528 3.528 0 01-1.31 1.493c-.563.354-1.209.53-1.937.53zm.108-7.599c-.592 0-1.054.293-1.386.877-.331.584-.498 1.45-.498 2.598 0 1.133.159 1.995.477 2.587.324.584.786.877 1.385.877.585 0 1.043-.307 1.375-.92.332-.621.498-1.512.498-2.674 0-1.126-.159-1.963-.476-2.511-.318-.556-.776-.834-1.375-.834zm7.558 1.105c0 1.255-.068 2.384-.206 3.387-.13.996-.332 1.747-.606 2.252-.288.534-.703.801-1.245.801-.368 0-.645-.022-.833-.065l-.097-.974c.288.029.562.043.822.043a.668.668 0 00.368-.097c.108-.065.202-.18.282-.347.231-.404.407-1.02.53-1.85.13-.83.195-1.949.195-3.356v-.65l-1.299-.14v-.671h6.7v.67l-.996.141v6.473l1.05.108v.65h-3.734v-.65l1.115-.119.011-6.462h-2.057v.856zm9.121 6.494c-1.176 0-2.057-.368-2.641-1.104-.585-.736-.877-1.74-.877-3.01 0-.83.151-1.558.454-2.186.311-.628.744-1.111 1.299-1.45.556-.34 1.195-.51 1.916-.51 1.191 0 2.082.354 2.674 1.062.599.7.898 1.681.898 2.944 0 .837-.158 1.58-.476 2.23a3.528 3.528 0 01-1.31 1.493c-.563.354-1.208.53-1.937.53zm.108-7.599c-.592 0-1.054.293-1.386.877-.331.584-.497 1.45-.497 2.598 0 1.133.158 1.995.476 2.587.325.584.786.877 1.385.877.585 0 1.043-.307 1.375-.92.332-.621.498-1.512.498-2.674 0-1.126-.159-1.963-.476-2.511-.318-.556-.776-.834-1.375-.834zm10.524-.562l.13 3.041h-.931l-.368-2.24-1.992-.109v6.582l1.775.13v.638h-4.546v-.639l1.18-.13v-6.45l-1.158-.163v-.66h5.91zm4.433 0v.67l-.997.141v5.045l.726-1.213 2.76-3.572v-.26l-.909-.14v-.671h3.312v.67l-.833.141v6.473l.865.108v.65h-3.344v-.65l.909-.108v-5.109l-.649 1.17-2.837 3.604v.335l.964.108v.65h-3.377v-.65l.855-.108V15.62l-.834-.14v-.671h3.389zm9.582 0v.67l-.996.141v5.045l.725-1.213 2.761-3.572v-.26l-.909-.14v-.671h3.311v.67l-.833.141v6.473l.866.108v.65h-3.344v-.65l.909-.108v-5.109l-.649 1.17-2.837 3.604v.335l.963.108v.65h-3.377v-.65l.855-.108V15.62l-.833-.14v-.671h3.388zM34.955 28.364h1.334l2.015 5.903.505.088v.523h-2.572v-.523l.654-.088-.34-1.133h-2.258l-.34 1.142.706.079v.523h-2.224l-.008-.523.523-.088 2.005-5.903zm.602 1.474l-.157-.68-.166.689-.776 2.677h1.919l-.82-2.686zm4.253-.785l-.654-.114v-.54h1.317c.122 0 .31-.006.567-.018.337-.023.642-.034.915-.034.605 0 1.081.075 1.43.226.355.146.605.358.75.637.151.273.227.622.227 1.046 0 .733-.23 1.302-.69 1.71-.453.406-1.083.61-1.891.61-.32 0-.55-.01-.69-.027v1.718l1.17.087v.523h-3.14v-.523l.69-.087v-5.214zm1.273 2.938c.134.03.36.044.68.044.39 0 .7-.134.933-.401.239-.273.358-.724.358-1.352 0-.488-.108-.843-.323-1.063-.209-.227-.532-.34-.968-.34-.163 0-.331.011-.505.034-.082.012-.14.018-.175.018v3.06zm5.988-3.016l-1.246.043-.34 1.901h-.733l.148-2.52h5.624l.105 2.52h-.689l-.34-1.9-1.23-.044v5.293l1.221.087v.523h-3.636v-.523l1.116-.087v-5.293zm4.853.079l-.698-.114v-.54h4.648l.113 1.465h-.61L55.089 29l-1.883-.078v2.345l1.212-.026.14-.715h.557v2.11h-.558l-.14-.75-1.211-.026v2.46l2.11-.105.506-1.116.654.182-.227 1.596h-5.014v-.523l.689-.087v-5.214zm.636-1.23a.505.505 0 01-.4-.183.649.649 0 01-.158-.436c0-.215.056-.39.166-.523.116-.14.285-.21.506-.21h.009c.197 0 .349.062.453.184a.627.627 0 01.157.436.78.78 0 01-.183.532c-.122.133-.302.2-.54.2h-.01zm2.215 0a.504.504 0 01-.4-.183.67.67 0 01-.158-.436c0-.215.055-.39.166-.523.116-.14.285-.21.505-.21h.01c.203 0 .354.062.453.184a.628.628 0 01.157.436c0 .22-.061.398-.183.532-.122.133-.306.2-.55.2zm3.305 1.229l-.943-.113v-.54h2.72l1.038 3.749.245 1.02.209-1.02 1.029-3.75h2.694v.541l-.95.113.697 5.206.706.096v.523h-2.78v-.523l.766-.087-.383-3.82-.166-1.595-.323 1.343-1.264 4.412h-.924l-1.29-4.186-.445-1.57-.131 1.597-.332 3.819.881.087v.523H56.71v-.523l.732-.087.637-5.215z"/><path d="M68.004 28.364h1.334l2.014 5.903.506.088v.523h-2.573v-.523l.654-.088-.34-1.133h-2.258l-.34 1.142.706.079v.523h-2.223l-.009-.523.523-.088 2.006-5.903zm.602 1.474l-.157-.68-.166.689-.776 2.677h1.918l-.82-2.686zM77.07 28.4v.54l-.803.113v4.064l.584-.977 2.224-2.877v-.21l-.733-.113v-.54h2.668v.54l-.671.113v5.215l.698.087v.523h-2.695v-.523l.733-.087v-4.116l-.523.942-2.285 2.903v.27l.776.088v.523h-2.72v-.523l.689-.087v-5.215l-.672-.113v-.54h2.73zm8.912-.036h1.334l2.014 5.903.506.088v.523h-2.572v-.523l.654-.088-.34-1.133h-2.259l-.34 1.142.706.079v.523h-2.223l-.009-.523.523-.088 2.006-5.903zm.601 1.474l-.156-.68-.166.689-.776 2.677h1.918l-.82-2.686zm5.84-.096c0 1.012-.055 1.921-.165 2.73-.105.801-.268 1.406-.489 1.813-.232.43-.566.645-1.002.645-.297 0-.52-.017-.672-.052l-.078-.785c.232.024.453.035.663.035a.537.537 0 00.296-.078.628.628 0 00.227-.28c.186-.325.328-.822.427-1.49.105-.669.157-1.57.157-2.704v-.523l-1.046-.113v-.54h5.397v.54l-.802.113v5.215l.846.087v.523h-3.009v-.523l.898-.096.01-5.206h-1.658v.69zm5.054-.689l-.698-.113v-.54h4.647l.114 1.464h-.61l-.288-.863-1.883-.078v2.345l1.212-.026.139-.715h.558v2.11h-.558l-.14-.75-1.212-.026v2.459l2.11-.105.506-1.116.654.183-.226 1.596h-5.014v-.523l.689-.087v-5.215zm8.448 2.363c.209.053.407.178.593.375.192.192.357.404.497.637.145.227.319.526.523.898.157.296.282.52.375.671.099.151.189.239.27.262l.323.096v.523h-1.378c-.145 0-.288-.11-.427-.331a12.019 12.019 0 01-.532-1.038c-.244-.529-.459-.933-.645-1.212-.18-.279-.372-.418-.576-.418h-.41v2.38l.777.105v.514h-2.712v-.523l.671-.096v-5.206l-.671-.113v-.54h2.598v.54l-.663.113v2.337h.637l1.561-2.337-.654-.113v-.54h2.302v.54l-.724.113-1.735 2.363zm5.976 3.558c-.989 0-1.744-.293-2.268-.88-.523-.593-.784-1.401-.784-2.425 0-.674.136-1.26.41-1.76a2.936 2.936 0 011.142-1.17 3.267 3.267 0 011.639-.409c.256 0 .503.018.741.052.238.03.52.07.846.122.244.041.378.061.401.061l-.096 1.797h-.802l-.27-1.247c-.064-.064-.175-.116-.332-.157a2.458 2.458 0 00-.601-.061c-.494 0-.893.23-1.195.689-.296.453-.445 1.113-.445 1.98 0 .836.143 1.519.428 2.048.285.529.7.794 1.247.794.261 0 .462-.024.601-.07.146-.053.268-.125.366-.218l.384-.898.732.07-.174 1.35a2.035 2.035 0 00-.366.07 7.225 7.225 0 01-.218.053c-.233.064-.45.113-.654.148a3.71 3.71 0 01-.732.061zm4.89-6.61h1.334l2.014 5.903.506.088v.523h-2.573v-.523l.654-.088-.34-1.133h-2.258l-.34 1.142.706.079v.523h-2.223l-.009-.523.523-.088 2.006-5.903zm.601 1.474l-.157-.68-.165.689-.776 2.677h1.918l-.82-2.686zm4.253-.785L121 28.94v-.54h2.651v.54l-.733.113v2.189h2.651v-2.189l-.671-.113v-.54h2.616v.54l-.663.113v5.215l.663.087v.523h-2.625v-.523l.68-.087v-2.364h-2.651v2.364l.733.087v.523h-2.668v-.523l.662-.087v-5.215zm12.579 5.206c0 .174-.026.593-.079 1.256a24.522 24.522 0 01-.095 1.08h-.707a12.919 12.919 0 00-.104-.932c-.064-.471-.114-.733-.149-.785h-3.836c-.041.052-.113.297-.218.732a15.82 15.82 0 00-.201.994h-.724l.009-.392a58.65 58.65 0 01.079-1.953h.628c.139-.192.29-.485.453-.88.163-.396.305-.925.427-1.588.122-.662.183-1.436.183-2.319v-.419l-.906-.113v-.54h5.257v.54l-.837.113v5.206h.82zm-3.697-4.735a14.65 14.65 0 01-.131 2.171c-.093.646-.203 1.18-.331 1.605-.128.424-.25.744-.366.959h2.441l.009-5.267h-1.622v.532zm5.157-.471l-.654-.114v-.54h1.316c.123 0 .312-.006.567-.018.338-.023.643-.034.916-.034.604 0 1.081.075 1.43.226.354.146.604.358.75.637.151.273.226.622.226 1.046 0 .733-.229 1.302-.688 1.71-.454.406-1.084.61-1.893.61a6.25 6.25 0 01-.688-.027v1.718l1.168.087v.523h-3.139v-.523l.689-.087v-5.214zm1.273 2.938c.134.03.36.044.68.044.389 0 .701-.134.933-.401.238-.273.357-.724.357-1.352 0-.488-.107-.843-.322-1.063-.209-.227-.532-.34-.968-.34-.163 0-.331.011-.506.034a1.415 1.415 0 01-.174.018v3.06zm5.84-1.011a28.74 28.74 0 011.133-.017c.727 0 1.276.166 1.648.497.372.331.558.796.558 1.395 0 .436-.101.811-.305 1.125a1.942 1.942 0 01-.828.724 2.798 2.798 0 01-1.195.244 14.2 14.2 0 01-.732-.035 18.953 18.953 0 00-.986-.035h-1.255v-.523l.689-.087v-5.223l-.672-.122v-.524h2.834v.524l-.889.122v1.935zm6.696-2.58v.54l-.758.113v5.215l.758.096v.514h-2.781v-.523l.741-.087v-5.215l-.75-.113v-.54h2.79zm-6.696 5.92c.197.046.433.07.706.07.448 0 .779-.131.994-.393.215-.267.323-.624.323-1.072 0-.919-.422-1.378-1.265-1.378l-.758.009v2.764zm11.768-5.345l-1.247.043-.34 1.901h-.732l.148-2.52h5.624l.105 2.52h-.689l-.34-1.9-1.23-.044v5.293l1.221.087v.523h-3.636v-.523l1.116-.087v-5.293zm6.919 5.999c-.947 0-1.656-.296-2.127-.89-.471-.592-.706-1.4-.706-2.423 0-.669.122-1.256.366-1.762.25-.505.599-.895 1.046-1.168.448-.273.962-.41 1.544-.41.959 0 1.677.285 2.153.855.483.564.724 1.354.724 2.372 0 .674-.128 1.273-.384 1.796-.25.517-.601.918-1.055 1.203-.453.285-.974.427-1.561.427zm.088-6.12c-.477 0-.849.235-1.116.706-.268.47-.402 1.168-.402 2.092 0 .913.128 1.607.384 2.084.262.471.634.706 1.116.706.471 0 .84-.247 1.108-.74.267-.5.401-1.218.401-2.154 0-.907-.128-1.582-.384-2.023-.256-.448-.625-.672-1.107-.672zm5.861.888c0 1.012-.056 1.921-.166 2.73-.105.801-.268 1.406-.488 1.813-.233.43-.567.645-1.003.645-.297 0-.52-.017-.672-.052l-.078-.785c.232.024.453.035.663.035a.536.536 0 00.296-.078.631.631 0 00.227-.28c.186-.325.328-.822.427-1.49.105-.669.157-1.57.157-2.704v-.523l-1.046-.113v-.54h5.397v.54l-.802.113v5.215l.846.087v.523h-3.009v-.523l.898-.096.009-5.206h-1.656v.69zm7.119 5.232c-.947 0-1.656-.296-2.127-.89-.471-.592-.707-1.4-.707-2.423 0-.669.122-1.256.367-1.762a2.76 2.76 0 011.046-1.168c.448-.273.962-.41 1.543-.41.959 0 1.677.285 2.154.855.482.564.724 1.354.724 2.372 0 .674-.128 1.273-.384 1.796-.25.517-.602.918-1.055 1.203-.454.285-.974.427-1.561.427zm.087-6.12c-.476 0-.848.235-1.116.706-.267.47-.401 1.168-.401 2.092 0 .913.128 1.607.384 2.084.261.471.633.706 1.116.706.471 0 .84-.247 1.107-.74.268-.5.401-1.218.401-2.154 0-.907-.128-1.582-.383-2.023-.256-.448-.625-.672-1.108-.672zm6.925 2.562c.209.053.407.178.593.375.192.192.358.404.497.637.145.227.32.526.523.898.157.296.282.52.375.671.099.151.189.239.27.262l.323.096v.523h-1.378c-.145 0-.287-.11-.427-.331a12.019 12.019 0 01-.532-1.038c-.244-.529-.459-.933-.645-1.212-.18-.279-.372-.418-.575-.418h-.41v2.38l.776.105v.514h-2.712v-.523l.671-.096v-5.206l-.671-.113v-.54h2.598v.54l-.662.113v2.337h.636l1.561-2.337-.654-.113v-.54h2.302v.54l-.724.113-1.735 2.363zm5.767 3.558c-.948 0-1.657-.296-2.128-.89-.471-.592-.706-1.4-.706-2.423 0-.669.122-1.256.366-1.762.25-.505.599-.895 1.046-1.168.448-.273.962-.41 1.543-.41.96 0 1.678.285 2.154.855.483.564.724 1.354.724 2.372 0 .674-.128 1.273-.384 1.796-.25.517-.601.918-1.055 1.203-.453.285-.973.427-1.56.427zm.087-6.12c-.477 0-.849.235-1.117.706-.267.47-.401 1.168-.401 2.092 0 .913.128 1.607.384 2.084.262.471.634.706 1.116.706.471 0 .84-.247 1.108-.74.267-.5.401-1.218.401-2.154 0-.907-.128-1.582-.384-2.023-.256-.448-.625-.672-1.107-.672zm4.274.199l-.646-.113v-.54h2.651v.54l-.732.113v2.189h2.65v-2.189l-.671-.113v-.54h2.616v.54l-.663.113v5.215l.663.087v.523h-2.625v-.523l.68-.087v-2.364h-2.65v2.364l.732.087v.523h-2.668v-.523l.663-.087v-5.215zm9.422-.653v.54l-.803.113v4.064l.585-.977 2.223-2.877v-.21l-.732-.113v-.54h2.668v.54l-.672.113v5.215l.698.087v.523h-2.694v-.523l.732-.087v-4.116l-.523.942-2.285 2.903v.27l.776.088v.523h-2.72v-.523l.689-.087v-5.215l-.672-.113v-.54h2.73zm5.425.653l-.645-.113v-.54h2.65v.54l-.732.113v2.189h2.651v-2.189l-.672-.113v-.54h2.616v.54l-.663.113v5.215l.663.087v.523h-2.624v-.523l.68-.087v-2.364h-2.651v2.364l.732.087v.523h-2.668v-.523l.663-.087v-5.215zm8.629 1.927a28.74 28.74 0 011.133-.017c.727 0 1.276.166 1.648.497.372.331.558.796.558 1.395 0 .436-.102.811-.305 1.125a1.942 1.942 0 01-.828.724 2.798 2.798 0 01-1.195.244 14.2 14.2 0 01-.732-.035 18.953 18.953 0 00-.986-.035h-1.255v-.523l.689-.087v-5.223l-.672-.122v-.524h2.834v.524l-.889.122v1.935zm6.697-2.58v.54l-.759.113v5.215l.759.096v.514h-2.783v-.523l.741-.087v-5.215l-.75-.113v-.54h2.792zm-6.697 5.92c.197.046.433.07.706.07.448 0 .779-.131.994-.393.215-.267.323-.624.323-1.072 0-.919-.422-1.378-1.265-1.378l-.758.009v2.764zm9.676-2.607l-1.78-2.65-.601-.123v-.54h2.853v.54l-.743.122 1.195 1.98 1.229-1.989-.75-.113v-.54h2.243v.54l-.709.122-1.689 2.372 1.899 2.834.61.087v.523h-2.841v-.523l.732-.087-1.307-2.137-1.257 2.137.837.087v.523h-2.38v-.523l.732-.087 1.727-2.555z"/></g><defs><clipPath id="clip0"><path fill="#fff" d="M0 0h235.41v40H0z"/></clipPath></defs></svg>