<svg width="40" height="40" viewBox="0 0 40 40" fill="none" xmlns="http://www.w3.org/2000/svg"><g clip-path="url(#clip0)" fill="#2F2F2F"><path d="M36.235 15.829L8.734.646a5.092 5.092 0 00-5.099.075c-1.492.882-2.382 2.415-2.382 4.1v30.357c0 1.687.893 3.219 2.385 4.101.812.48 1.71.72 2.61.72a5.12 5.12 0 002.489-.65l27.5-15.176c1.572-.87 2.512-2.43 2.51-4.177 0-1.744-.94-3.301-2.512-4.168zm-1.21 6.158L7.527 37.163a2.622 2.622 0 01-2.62-.037c-.734-.433-1.154-1.142-1.154-1.947V4.82c0-.805.42-1.514 1.15-1.947a2.641 2.641 0 012.621-.04l27.504 15.184c.76.42 1.217 1.162 1.217 1.982 0 .82-.455 1.564-1.22 1.987z"/><path d="M30.606 25.406L4.513 1.335a1.254 1.254 0 00-1.768.072 1.248 1.248 0 00.07 1.765L28.91 27.24c.24.222.545.332.847.332.338 0 .673-.132.92-.402a1.246 1.246 0 00-.07-1.765z"/><path d="M29.214 12.022a1.25 1.25 0 00-1.767 0L2.703 36.763A1.25 1.25 0 004.47 38.53l24.744-24.74a1.25 1.25 0 000-1.767z"/></g><defs><clipPath id="clip0"><path fill="#fff" d="M0 0h40v40H0z"/></clipPath></defs></svg>