<svg width="80" height="80" viewBox="0 0 80 80" fill="none" xmlns="http://www.w3.org/2000/svg"><path d="M60.797 31.683h7.562a2.268 2.268 0 002.266-2.265v-5.322a2.268 2.268 0 00-2.266-2.265h-7.562a2.268 2.268 0 00-2.266 2.265v5.322a2.268 2.268 0 002.266 2.265zm.078-7.509h7.406v5.165h-7.406v-5.165zM80 14.406v-1.565a2.74 2.74 0 00-2.734-2.74H53.16C51.605 4.292 46.294 0 40 0c-6.294 0-11.604 4.291-13.16 10.102h-8.642a1.172 1.172 0 100 2.343h8.23a13.732 13.732 0 000 2.355H2.735a.393.393 0 01-.39-.394v-1.565c0-.218.175-.396.39-.396h9.995a1.172 1.172 0 100-2.343H2.734A2.74 2.74 0 000 12.84v1.565a2.738 2.738 0 002.344 2.707V72.99A2.738 2.738 0 000 75.697v1.565A2.74 2.74 0 002.734 80h74.532A2.74 2.74 0 0080 77.262v-1.565a2.738 2.738 0 00-2.344-2.707V17.113A2.738 2.738 0 0080 14.405zM40 2.344c6.22 0 11.28 5.06 11.28 11.279 0 6.22-5.06 11.279-11.28 11.279s-11.28-5.06-11.28-11.28c0-6.219 5.06-11.278 11.28-11.278zm8.605 21.831H51.5v5.164h-7.406v-2.722a13.61 13.61 0 004.511-2.442zm-12.699 2.442v2.722H28.5v-5.164h2.895a13.61 13.61 0 004.511 2.442zM4.688 17.144H26.84a13.57 13.57 0 002.296 4.687h-.714a2.268 2.268 0 00-2.266 2.266v5.32a2.268 2.268 0 002.266 2.266h7.562a2.268 2.268 0 002.266-2.266v-2.284a13.697 13.697 0 003.5 0v2.284a2.268 2.268 0 002.266 2.266h7.562a2.268 2.268 0 002.266-2.266v-5.32a2.268 2.268 0 00-2.266-2.266h-.714a13.582 13.582 0 002.297-4.687h22.151v55.815H51.5V65a1.172 1.172 0 10-2.344 0v7.959h-7.984V53.897h7.984v5.635a1.172 1.172 0 102.344 0v-5.666a2.736 2.736 0 002.344-2.703V49.6a2.738 2.738 0 00-2.735-2.734H28.89a2.738 2.738 0 00-2.734 2.734v1.563a2.736 2.736 0 002.344 2.703v19.093H4.687V17.144zm24.203 34.41a.391.391 0 01-.391-.391V49.6a.39.39 0 01.39-.39h22.22a.39.39 0 01.39.39v1.563a.39.39 0 01-.39.39H28.89zm9.937 2.343V72.96h-7.984V53.897h7.984zm38.828 23.365a.393.393 0 01-.39.394H2.734a.393.393 0 01-.39-.394v-1.565c0-.218.175-.394.39-.394h74.532c.215 0 .39.176.39.394v1.565zm-.39-62.462H53.57a13.683 13.683 0 000-2.355h23.695c.215 0 .39.178.39.396v1.565a.393.393 0 01-.39.394zm-40.782 2.338v2.897A2.268 2.268 0 0038.75 22.3h2.5a2.268 2.268 0 002.266-2.265v-2.897h2.896a2.268 2.268 0 002.266-2.265v-2.5a2.268 2.268 0 00-2.266-2.266h-2.896V7.211a2.268 2.268 0 00-2.266-2.266h-2.5a2.268 2.268 0 00-2.266 2.266v2.896h-2.896a2.268 2.268 0 00-2.266 2.266v2.5a2.268 2.268 0 002.266 2.265h2.896zm-2.818-4.687h3.522c.904 0 1.64-.736 1.64-1.64V7.288h2.344v3.521c0 .905.736 1.64 1.64 1.64h3.522v2.345h-3.522c-.904 0-1.64.736-1.64 1.64v3.522h-2.344v-3.522c0-.904-.736-1.64-1.64-1.64h-3.522V12.45zm-5.244 31.428h7.562a2.268 2.268 0 002.266-2.265v-5.322a2.268 2.268 0 00-2.266-2.265h-7.562a2.268 2.268 0 00-2.266 2.265v5.322a2.268 2.268 0 002.266 2.265zm.078-7.508h7.406v5.164H28.5v-5.164zm32.297 7.508h7.562a2.268 2.268 0 002.266-2.265v-5.322a2.268 2.268 0 00-2.266-2.265h-7.562a2.268 2.268 0 00-2.266 2.265v5.322a2.268 2.268 0 002.266 2.265zm.078-7.508h7.406v5.164h-7.406v-5.164zm-41.672-2.344h-7.562a2.268 2.268 0 00-2.266 2.265v5.322a2.268 2.268 0 002.266 2.265h7.562a2.268 2.268 0 002.266-2.265v-5.322a2.268 2.268 0 00-2.266-2.265zm-.078 7.508h-7.406v-5.164h7.406v5.164zm.078 16.884h-7.562a2.268 2.268 0 00-2.266 2.266v5.32a2.268 2.268 0 002.266 2.266h7.562a2.268 2.268 0 002.266-2.265v-5.321a2.268 2.268 0 00-2.266-2.266zm-.078 7.509h-7.406v-5.165h7.406v5.165zm24.89-22.049h7.563a2.268 2.268 0 002.266-2.265v-5.322a2.268 2.268 0 00-2.266-2.265h-7.562a2.268 2.268 0 00-2.266 2.265v5.322a2.268 2.268 0 002.266 2.265zm.079-7.508H51.5v5.164h-7.406v-5.164zm-24.891 9.852h-7.562a2.268 2.268 0 00-2.266 2.266v5.32a2.268 2.268 0 002.266 2.266h7.562a2.268 2.268 0 002.266-2.265v-5.321a2.268 2.268 0 00-2.266-2.266zm-.078 7.509h-7.406v-5.165h7.406v5.165zm41.672 14.54h7.562a2.268 2.268 0 002.266-2.266v-5.321a2.268 2.268 0 00-2.266-2.266h-7.562a2.268 2.268 0 00-2.266 2.266v5.32a2.268 2.268 0 002.266 2.266zm.078-7.51h7.406v5.166h-7.406v-5.165zm-.078-4.687h7.562a2.268 2.268 0 002.266-2.265v-5.321a2.268 2.268 0 00-2.266-2.266h-7.562a2.268 2.268 0 00-2.266 2.266v5.32a2.268 2.268 0 002.266 2.266zm.078-7.508h7.406v5.165h-7.406v-5.165zM19.203 21.83h-7.562a2.268 2.268 0 00-2.266 2.265v5.322a2.268 2.268 0 002.266 2.265h7.562a2.268 2.268 0 002.266-2.265v-5.322a2.268 2.268 0 00-2.266-2.265zm-.078 7.508h-7.406v-5.165h7.406v5.165z" fill="url(#paint0_linear)"/><defs><linearGradient id="paint0_linear" x1="80" y1="0" x2="0" y2="0" gradientUnits="userSpaceOnUse"><stop stop-color="#FFD600"/><stop offset="1" stop-color="#AF9E72"/></linearGradient></defs></svg>