<svg width="80" height="80" viewBox="0 0 80 80" fill="none" xmlns="http://www.w3.org/2000/svg"><g clip-path="url(#clip0)"><path d="M40 7.66a1.18 1.18 0 001.18-1.18v-5.3a1.18 1.18 0 00-2.36 0v5.3c0 .652.528 1.18 1.18 1.18z" fill="url(#paint0_linear)"/><path d="M60.568 9.211l-3.747 3.747a1.18 1.18 0 101.67 1.67l3.747-3.747a1.18 1.18 0 10-1.67-1.67z" fill="url(#paint1_linear)"/><path d="M21.51 48.27l-3.748 3.746a1.18 1.18 0 101.67 1.67l3.747-3.747a1.18 1.18 0 10-1.67-1.67z" fill="url(#paint2_linear)"/><path d="M21.51 14.628a1.178 1.178 0 001.67 0 1.18 1.18 0 000-1.67l-3.748-3.747a1.18 1.18 0 10-1.67 1.67l3.747 3.747z" fill="url(#paint3_linear)"/><path d="M58.49 48.27a1.18 1.18 0 00-1.67 1.669l3.748 3.747a1.178 1.178 0 001.67 0 1.18 1.18 0 000-1.67L58.49 48.27z" fill="url(#paint4_linear)"/><path d="M15.031 30.268H9.732a1.18 1.18 0 000 2.361h5.3a1.18 1.18 0 000-2.361z" fill="url(#paint5_linear)"/><path d="M70.268 30.268h-5.3a1.18 1.18 0 100 2.361h5.3a1.18 1.18 0 100-2.361z" fill="url(#paint6_linear)"/><path d="M49.492 63.788a1.18 1.18 0 100-2.36h-.427v-3.992l.023-.134a16.736 16.736 0 011.286-4.193 1.18 1.18 0 00-2.148-.98 19.136 19.136 0 00-1.323 4.029H33.06c-.829-4.025-2.907-7.688-5.905-10.377a19.194 19.194 0 01-6.288-12.225 1.18 1.18 0 00-2.348.256 21.552 21.552 0 007.06 13.727c2.777 2.49 4.654 5.943 5.286 9.72l.03.178v3.99h-.387a1.18 1.18 0 100 2.361h.387v2.909h-.387a1.18 1.18 0 000 2.36h.387v2.025c0 1.398.89 2.588 2.13 3.044a6.932 6.932 0 003.856 5.75 1.18 1.18 0 101.05-2.115 4.584 4.584 0 01-2.508-3.434h9.114a4.583 4.583 0 01-2.51 3.435 1.18 1.18 0 101.051 2.114 6.931 6.931 0 003.856-5.75 3.247 3.247 0 002.13-3.044v-2.024h.427a1.18 1.18 0 100-2.362h-.427v-2.908h.427zM33.257 58.52h13.447v2.908H33.257V58.52zm13.447 12.563a.885.885 0 01-.884.884H34.14a.885.885 0 01-.883-.884v-2.024h13.447v2.024zm0-4.386H33.257v-2.908h13.447v2.908z" fill="url(#paint7_linear)"/><path d="M40 37.505a6.063 6.063 0 006.056-6.057A6.063 6.063 0 0040 25.393a6.063 6.063 0 00-6.056 6.055A6.063 6.063 0 0040 37.505zm0-9.751a3.699 3.699 0 013.695 3.694A3.699 3.699 0 0140 35.143a3.699 3.699 0 01-3.695-3.695A3.699 3.699 0 0140 27.755z" fill="url(#paint8_linear)"/><path d="M26.989 27.766a1.97 1.97 0 00-1.968 1.968v3.429a1.97 1.97 0 001.968 1.968h2.357c.147.425.32.842.517 1.247l-1.667 1.667a1.97 1.97 0 000 2.783l2.424 2.424a1.97 1.97 0 002.784 0l1.666-1.667c.406.198.822.37 1.248.518v2.356a1.97 1.97 0 001.968 1.968h3.428a1.97 1.97 0 001.968-1.968v-2.356c.425-.147.842-.32 1.247-.518l1.667 1.667c.372.372.866.577 1.392.577.526 0 1.02-.205 1.392-.577l2.424-2.424a1.97 1.97 0 000-2.783l-1.667-1.667c.197-.405.37-.822.517-1.247h2.357a1.97 1.97 0 001.968-1.968v-3.429a1.97 1.97 0 00-1.968-1.968h-2.357a11.29 11.29 0 00-.517-1.247l1.667-1.667a1.97 1.97 0 000-2.783l-2.425-2.424a1.956 1.956 0 00-1.391-.576c-.526 0-1.02.204-1.392.576l-1.666 1.667c-.406-.198-.822-.37-1.248-.518v-2.356a1.97 1.97 0 00-1.968-1.968h-3.428a1.97 1.97 0 00-1.968 1.968v2.356c-.426.147-.842.32-1.248.518l-1.666-1.667a1.97 1.97 0 00-2.784 0l-2.424 2.424a1.97 1.97 0 000 2.783l1.667 1.667c-.197.405-.37.822-.517 1.248h-2.357zm5.165-2.296l-2.01-2.01 1.868-1.867 2.01 2.01a1.18 1.18 0 001.437.18 8.847 8.847 0 012.331-.967 1.18 1.18 0 00.89-1.144v-2.84h2.64v2.84c0 .54.367 1.01.89 1.144a8.846 8.846 0 012.33.967 1.18 1.18 0 001.438-.18l2.01-2.01 1.868 1.868-2.01 2.01a1.18 1.18 0 00-.18 1.437 8.89 8.89 0 01.967 2.33 1.18 1.18 0 001.144.89h2.84v2.641h-2.84c-.54 0-1.01.366-1.144.89a8.845 8.845 0 01-.967 2.33 1.18 1.18 0 00.18 1.438l2.01 2.01-1.868 1.867-2.01-2.009a1.18 1.18 0 00-1.437-.18 8.854 8.854 0 01-2.331.966 1.18 1.18 0 00-.89 1.144v2.841h-2.64v-2.84c0-.54-.367-1.011-.89-1.145a8.858 8.858 0 01-2.33-.966 1.18 1.18 0 00-1.438.18l-2.01 2.01-1.868-1.868 2.01-2.01a1.18 1.18 0 00.18-1.438 8.854 8.854 0 01-.967-2.33 1.18 1.18 0 00-1.144-.89h-2.84v-2.641h2.84c.54 0 1.01-.366 1.144-.889a8.852 8.852 0 01.967-2.331 1.18 1.18 0 00-.18-1.438z" fill="url(#paint9_linear)"/><path d="M55.369 16.26a21.476 21.476 0 00-15.095-6.417c-5.295-.064-10.43 1.849-14.466 5.391-4 3.511-6.571 8.302-7.241 13.49a1.18 1.18 0 102.342.303c.596-4.619 2.889-8.887 6.457-12.018 3.597-3.157 8.176-4.866 12.879-4.805a19.128 19.128 0 0113.444 5.716 19.13 19.13 0 015.557 13.528 19.29 19.29 0 01-6.301 14.241 20.32 20.32 0 00-1.743 1.794 1.18 1.18 0 001.792 1.538 17.84 17.84 0 011.54-1.584 21.655 21.655 0 007.074-15.989 21.479 21.479 0 00-6.24-15.188z" fill="url(#paint10_linear)"/></g><defs><linearGradient id="paint0_linear" x1="41.181" y1="0" x2="38.819" y2="0" gradientUnits="userSpaceOnUse"><stop stop-color="#FFD600"/><stop offset="1" stop-color="#AF9E72"/></linearGradient><linearGradient id="paint1_linear" x1="62.583" y1="8.865" x2="56.475" y2="8.865" gradientUnits="userSpaceOnUse"><stop stop-color="#FFD600"/><stop offset="1" stop-color="#AF9E72"/></linearGradient><linearGradient id="paint2_linear" x1="23.525" y1="47.923" x2="17.416" y2="47.923" gradientUnits="userSpaceOnUse"><stop stop-color="#FFD600"/><stop offset="1" stop-color="#AF9E72"/></linearGradient><linearGradient id="paint3_linear" x1="23.525" y1="8.865" x2="17.416" y2="8.865" gradientUnits="userSpaceOnUse"><stop stop-color="#FFD600"/><stop offset="1" stop-color="#AF9E72"/></linearGradient><linearGradient id="paint4_linear" x1="62.584" y1="47.923" x2="56.475" y2="47.923" gradientUnits="userSpaceOnUse"><stop stop-color="#FFD600"/><stop offset="1" stop-color="#AF9E72"/></linearGradient><linearGradient id="paint5_linear" x1="16.212" y1="30.268" x2="8.551" y2="30.268" gradientUnits="userSpaceOnUse"><stop stop-color="#FFD600"/><stop offset="1" stop-color="#AF9E72"/></linearGradient><linearGradient id="paint6_linear" x1="71.448" y1="30.268" x2="63.788" y2="30.268" gradientUnits="userSpaceOnUse"><stop stop-color="#FFD600"/><stop offset="1" stop-color="#AF9E72"/></linearGradient><linearGradient id="paint7_linear" x1="50.673" y1="32.503" x2="18.513" y2="32.503" gradientUnits="userSpaceOnUse"><stop stop-color="#FFD600"/><stop offset="1" stop-color="#AF9E72"/></linearGradient><linearGradient id="paint8_linear" x1="46.056" y1="25.393" x2="33.944" y2="25.393" gradientUnits="userSpaceOnUse"><stop stop-color="#FFD600"/><stop offset="1" stop-color="#AF9E72"/></linearGradient><linearGradient id="paint9_linear" x1="54.979" y1="16.47" x2="25.021" y2="16.47" gradientUnits="userSpaceOnUse"><stop stop-color="#FFD600"/><stop offset="1" stop-color="#AF9E72"/></linearGradient><linearGradient id="paint10_linear" x1="61.608" y1="9.841" x2="18.557" y2="9.841" gradientUnits="userSpaceOnUse"><stop stop-color="#FFD600"/><stop offset="1" stop-color="#AF9E72"/></linearGradient><clipPath id="clip0"><path fill="#fff" d="M0 0h80v80H0z"/></clipPath></defs></svg>