<svg width="33" height="32" viewBox="0 0 33 32" fill="none" xmlns="http://www.w3.org/2000/svg"><g clip-path="url(#clip0)" fill="#fff"><path d="M32.302 9.408c-.075-1.7-.35-2.87-.744-3.882a7.809 7.809 0 00-1.85-2.838A7.876 7.876 0 0026.876.844C25.857.45 24.694.175 22.994.1 21.281.02 20.737 0 16.393 0c-4.345 0-4.889.019-6.595.094-1.7.075-2.87.35-3.882.744a7.808 7.808 0 00-2.838 1.85A7.879 7.879 0 001.234 5.52C.84 6.539.564 7.7.49 9.402c-.082 1.713-.1 2.257-.1 6.601 0 4.345.018 4.889.093 6.595.075 1.7.35 2.87.744 3.882a7.891 7.891 0 001.85 2.838c.8.813 1.77 1.444 2.832 1.844 1.02.394 2.182.67 3.883.744 1.706.075 2.25.094 6.595.094 4.344 0 4.888-.019 6.595-.094 1.7-.075 2.869-.35 3.881-.744a8.185 8.185 0 004.683-4.682c.393-1.019.669-2.182.744-3.882.075-1.706.093-2.25.093-6.595s-.006-4.888-.081-6.595zM29.42 22.473c-.069 1.563-.331 2.407-.55 2.97a5.308 5.308 0 01-3.038 3.038c-.563.218-1.413.481-2.97.55-1.687.075-2.193.093-6.463.093s-4.782-.018-6.464-.093c-1.563-.069-2.407-.331-2.97-.55a4.925 4.925 0 01-1.837-1.194 4.975 4.975 0 01-1.194-1.838c-.219-.563-.481-1.413-.55-2.97-.075-1.687-.094-2.194-.094-6.463 0-4.27.019-4.783.094-6.464.069-1.563.331-2.407.55-2.97a4.864 4.864 0 011.2-1.837A4.967 4.967 0 016.972 3.55c.563-.22 1.413-.482 2.97-.55 1.687-.075 2.194-.094 6.463-.094 4.276 0 4.782.019 6.464.094 1.563.068 2.407.331 2.97.55a4.92 4.92 0 011.837 1.194 4.973 4.973 0 011.194 1.838c.219.562.482 1.412.55 2.969.075 1.688.094 2.194.094 6.464 0 4.27-.019 4.77-.094 6.457z"/><path d="M16.393 7.783a8.222 8.222 0 00-8.22 8.22 8.222 8.222 0 008.22 8.22 8.222 8.222 0 008.22-8.22 8.222 8.222 0 00-8.22-8.22zm0 13.553a5.333 5.333 0 11.001-10.666 5.333 5.333 0 01-.001 10.666zM26.857 7.458a1.92 1.92 0 11-3.838 0 1.92 1.92 0 013.838 0z"/></g><defs><clipPath id="clip0"><path fill="#fff" transform="translate(.333)" d="M0 0h32v32H0z"/></clipPath></defs></svg>