<svg width="40" height="40" viewBox="0 0 40 40" fill="none" xmlns="http://www.w3.org/2000/svg"><path d="M39.219 0H7.656a.781.781 0 00-.781.781V4.22H4.219a.781.781 0 00-.782.78v4.219H.781A.781.781 0 000 10v25.781A4.224 4.224 0 004.219 40H35.78A4.224 4.224 0 0040 35.781v-35A.781.781 0 0039.219 0zm-.782 35.781a2.66 2.66 0 01-2.656 2.657H7.493c.59-.726.944-1.65.944-2.657V25.235a.781.781 0 00-1.562 0V35.78a2.66 2.66 0 01-2.656 2.657 2.66 2.66 0 01-2.657-2.657v-25h1.875V35A.781.781 0 005 35V5.781h1.875v12.422a.781.781 0 001.563 0V1.563h30V35.78z" fill="#2F2F2F"/><path d="M11.406 12.344H35.47c.431 0 .781-.35.781-.781V5.936a.781.781 0 00-.781-.78H11.406a.781.781 0 00-.781.78v5.625c0 .432.35.782.781.782zm.781-5.625h22.5v4.062h-22.5V6.72zm-.781 24.375h12.031c.432 0 .782-.35.782-.782v-15a.781.781 0 00-.782-.78h-12.03a.781.781 0 00-.782.78v15c0 .432.35.782.781.782zm.781-15h10.47V29.53h-10.47V16.094zm23.282-1.563h-8.282a.781.781 0 000 1.563h8.282a.781.781 0 000-1.563zm0 3.75h-8.282a.781.781 0 000 1.563h8.282a.781.781 0 000-1.563zm0 3.75h-8.282a.781.781 0 000 1.563h8.282a.781.781 0 000-1.563zm0 3.75h-8.282a.781.781 0 000 1.563h8.282a.781.781 0 000-1.563zm0 3.75h-8.282a.781.781 0 000 1.563h8.282a.781.781 0 000-1.563zm-24.063 5.313H35.47a.781.781 0 000-1.563H11.406a.781.781 0 000 1.563zM7.695 20.938a.787.787 0 00-.552.228.785.785 0 00.552 1.334.783.783 0 00.782-.781.787.787 0 00-.23-.553.786.786 0 00-.552-.229z" fill="#2F2F2F"/></svg>