<svg width="20" height="21" viewBox="0 0 20 21" fill="none" xmlns="http://www.w3.org/2000/svg"><g clip-path="url(#clip0)" fill="#fff"><path d="M1.81 13.81a8.719 8.719 0 010-6.62.586.586 0 00-1.087-.44 10.094 10.094 0 000 7.5.586.586 0 101.087-.44zm17.467-7.06a.586.586 0 00-1.087.44 8.72 8.72 0 010 6.62.587.587 0 001.087.44 10.094 10.094 0 000-7.5zm-2.176.881a.586.586 0 00-1.087.44 6.383 6.383 0 010 4.858.587.587 0 001.087.44 7.658 7.658 0 000-5.738zm-13.115.44a.586.586 0 10-1.087-.44 7.658 7.658 0 000 5.738.586.586 0 101.087-.44 6.383 6.383 0 010-4.858zM13.557.5H6.443c-.97 0-1.76 1.035-1.76 2.308v15.384c0 1.273.79 2.308 1.76 2.308h7.114c.97 0 1.76-1.035 1.76-2.308V2.808c0-1.273-.79-2.308-1.76-2.308zm-7.7 2.308c0-.424.262-.77.586-.77h7.114c.324 0 .587.346.587.77v.769H5.856v-.77zm0 2.307h8.287v10.77H5.856V5.115zm8.287 13.077c0 .424-.263.77-.587.77H6.443c-.324 0-.587-.346-.587-.77v-.769h8.288v.77z"/></g><defs><clipPath id="clip0"><path fill="#fff" transform="translate(0 .5)" d="M0 0h20v20H0z"/></clipPath></defs></svg>